<?xml version="1.0" ?><svg id="Layer_1" style="enable-background:new 0 0 512 512;" version="1.1" viewBox="0 0 512 512" xml:space="preserve" xmlns="http://www.w3.org/2000/svg" xmlns:xlink="http://www.w3.org/1999/xlink"><style type="text/css">
	.st0{fill:#333333;}
	.st1{fill:#4D4D4D;}
</style><g><g><g><path class="st0" d="M402.3,474.7c-6.4,0-12.7-2-18-5.9l-113.2-83l-56.2,57.4c-6.4,6.6-15.5,9.2-24.5,7.1     c-9-2.1-16-8.6-18.7-17.4l-2-6.3l-40.2-127.8l-68.9-20.4l-43.8-12.9C7.3,262.8,1,254.6,0.5,244.8c-0.4-9.8,5.2-18.4,14.4-22     l19.2-7.5l189.3-73.8l20.7-8.1l201.7-78.5l24.6-9.7c0.1,0,0.2-0.1,0.3-0.1c1.8-0.6,3.4-1,4.9-1.4c0,0,0.1,0,0.1,0     c2.6-0.5,5.4-0.6,8-0.4c1.8,0.1,3.5,0.4,5.1,0.9c15,4.2,24.3,19.3,21.1,34.4l-50.3,240.5L448,374.9l-15.8,75.6     c-2.2,10.2-9.2,18.5-18.9,22.2C409.7,474.1,406,474.7,402.3,474.7z M270.4,371.9c1.2,0,2.5,0.4,3.5,1.2l117.4,86.1     c5.2,3.8,11.6,4.6,17.6,2.3c6-2.3,10.2-7.2,11.5-13.5l15.8-75.6l11.7-55.8l50.3-240.5c2.1-10-4.8-18.2-12.6-20.4     c-0.1,0-0.1,0-0.2-0.1c-0.7-0.2-1.6-0.4-2.6-0.5c0,0-0.1,0-0.1,0c-1.5-0.1-3.1-0.1-4.6,0.2c-1.1,0.2-2.2,0.5-3.4,1l-24.4,9.6     l-201.7,78.5l-20.7,8.1l-197,76.8L19.3,234c-5.2,2-6.9,6.7-6.8,10.3c0.2,3.7,2.2,8.1,7.6,9.7l43.8,12.9l72,21.3     c1.9,0.6,3.4,2,4,4l43.2,137.1c1.5,4.7,5.2,8.2,10.1,9.3c4.8,1.1,9.7-0.3,13.1-3.8l59.8-61.1     C267.3,372.5,268.8,371.9,270.4,371.9z M189.8,408.2c-3.6,0-6.7-2.3-7.8-5.8L160.6,333l-12-38.7c-2.3-7.6,0.8-15.8,7.5-19.9     l249.8-155c5.3-3.2,11.8-1.9,15.4,3c3.6,4.9,2.9,11.4-1.6,15.4L208,325c-1,0.9-1.7,2.1-1.8,3.4c0,0.1,0,0.1,0,0.2L206,330     l-8,70.8c-0.5,4-3.6,6.9-7.5,7.3C190.3,408.2,190,408.2,189.8,408.2z M193.4,398.8L193.4,398.8     C193.4,398.8,193.4,398.8,193.4,398.8z M407.3,132.6l-245,152c-2.1,1.3-3,3.8-2.3,6.2l12,38.6c0,0,0,0,0,0l16,52l6-52.8     c0,0,0-0.1,0-0.1l0.2-1.4c0.5-4.2,2.4-8.1,5.7-11L407.3,132.6z"/></g></g><g><g><path class="st0" d="M402.3,474.7c-6.4,0-12.7-2-18-5.9l-113.2-83l-56.2,57.4c-6.4,6.6-15.5,9.2-24.5,7.1     c-9-2.1-16-8.6-18.7-17.4l-2-6.3l-40.2-127.8l-68.9-20.4l-43.8-12.9C7.3,262.8,1,254.6,0.5,244.8c-0.4-9.8,5.2-18.4,14.4-22     l19.2-7.5l189.3-73.8l20.7-8.1l201.7-78.5l24.6-9.7c0.1,0,0.2-0.1,0.3-0.1c1.8-0.6,3.4-1,4.9-1.4c0,0,0.1,0,0.1,0     c2.6-0.5,5.4-0.6,8-0.4c1.8,0.1,3.5,0.4,5.1,0.9c15,4.2,24.3,19.3,21.1,34.4l-50.3,240.5L448,374.9l-15.8,75.6     c-2.2,10.2-9.2,18.5-18.9,22.2C409.7,474.1,406,474.7,402.3,474.7z M270.4,371.9c1.2,0,2.5,0.4,3.5,1.2l117.4,86.1     c5.2,3.8,11.6,4.6,17.6,2.3c6-2.3,10.2-7.2,11.5-13.5l15.8-75.6l11.7-55.8l50.3-240.5c2.1-10-4.8-18.2-12.6-20.4     c-0.1,0-0.1,0-0.2-0.1c-0.7-0.2-1.6-0.4-2.6-0.5c0,0-0.1,0-0.1,0c-1.5-0.1-3.1-0.1-4.6,0.2c-1.1,0.2-2.2,0.5-3.4,1l-24.4,9.6     l-201.7,78.5l-20.7,8.1l-197,76.8L19.3,234c-5.2,2-6.9,6.7-6.8,10.3c0.2,3.7,2.2,8.1,7.6,9.7l43.8,12.9l72,21.3     c1.9,0.6,3.4,2,4,4l43.2,137.1c1.5,4.7,5.2,8.2,10.1,9.3c4.8,1.1,9.7-0.3,13.1-3.8l59.8-61.1     C267.3,372.5,268.8,371.9,270.4,371.9z M189.8,408.2c-3.6,0-6.7-2.3-7.8-5.8L160.6,333l-12-38.7c-2.3-7.6,0.8-15.8,7.5-19.9     l249.8-155c5.3-3.2,11.8-1.9,15.4,3c3.6,4.9,2.9,11.4-1.6,15.4L208,325c-1,0.9-1.7,2.1-1.8,3.4c0,0.1,0,0.1,0,0.2L206,330     l-8,70.8c-0.5,4-3.6,6.9-7.5,7.3C190.3,408.2,190,408.2,189.8,408.2z M193.4,398.8L193.4,398.8     C193.4,398.8,193.4,398.8,193.4,398.8z M407.3,132.6l-245,152c-2.1,1.3-3,3.8-2.3,6.2l12,38.6c0,0,0,0,0,0l16,52l6-52.8     c0,0,0-0.1,0-0.1l0.2-1.4c0.5-4.2,2.4-8.1,5.7-11L407.3,132.6z"/></g></g></g><g><g><path class="st0" d="M402.3,474.7c-6.4,0-12.7-2-18-5.9l-113.2-83l-56.2,57.4c-6.4,6.6-15.5,9.2-24.5,7.1c-9-2.1-16-8.6-18.7-17.4    l-2-6.3l-40.2-127.8l-68.9-20.4l-43.8-12.9C7.3,262.8,1,254.6,0.5,244.8c-0.4-9.8,5.2-18.4,14.4-22l19.2-7.5l189.3-73.8l20.7-8.1    l201.7-78.5l24.6-9.7c0.1,0,0.2-0.1,0.3-0.1c1.8-0.6,3.4-1,4.9-1.4c0,0,0.1,0,0.1,0c2.6-0.5,5.4-0.6,8-0.4    c1.8,0.1,3.5,0.4,5.1,0.9c15,4.2,24.3,19.3,21.1,34.4l-50.3,240.5L448,374.9l-15.8,75.6c-2.2,10.2-9.2,18.5-18.9,22.2    C409.7,474.1,406,474.7,402.3,474.7z M270.4,371.9c1.2,0,2.5,0.4,3.5,1.2l117.4,86.1c5.2,3.8,11.6,4.6,17.6,2.3    c6-2.3,10.2-7.2,11.5-13.5l15.8-75.6l11.7-55.8l50.3-240.5c2.1-10-4.8-18.2-12.6-20.4c-0.1,0-0.1,0-0.2-0.1    c-0.7-0.2-1.6-0.4-2.6-0.5c0,0-0.1,0-0.1,0c-1.5-0.1-3.1-0.1-4.6,0.2c-1.1,0.2-2.2,0.5-3.4,1l-24.4,9.6l-201.7,78.5l-20.7,8.1    l-197,76.8L19.3,234c-5.2,2-6.9,6.7-6.8,10.3c0.2,3.7,2.2,8.1,7.6,9.7l43.8,12.9l72,21.3c1.9,0.6,3.4,2,4,4l43.2,137.1    c1.5,4.7,5.2,8.2,10.1,9.3c4.8,1.1,9.7-0.3,13.1-3.8l59.8-61.1C267.3,372.5,268.8,371.9,270.4,371.9z M189.8,408.2    c-3.6,0-6.7-2.3-7.8-5.8L160.6,333l-12-38.7c-2.3-7.6,0.8-15.8,7.5-19.9l249.8-155c5.3-3.2,11.8-1.9,15.4,3    c3.6,4.9,2.9,11.4-1.6,15.4L208,325c-1,0.9-1.7,2.1-1.8,3.4c0,0.1,0,0.1,0,0.2L206,330l-8,70.8c-0.5,4-3.6,6.9-7.5,7.3    C190.3,408.2,190,408.2,189.8,408.2z M193.4,398.8L193.4,398.8C193.4,398.8,193.4,398.8,193.4,398.8z M407.3,132.6l-245,152    c-2.1,1.3-3,3.8-2.3,6.2l12,38.6c0,0,0,0,0,0l16,52l6-52.8c0,0,0-0.1,0-0.1l0.2-1.4c0.5-4.2,2.4-8.1,5.7-11L407.3,132.6z"/></g></g><g><g><path class="st1" d="M503.6,9.5c0-0.5-0.1-1-0.2-1.5c-0.5-3-1.8-5.4-4.8-6.3c-1-0.3-2.2-0.3-3.2-0.1c-47.6,7.2-96,4-144,2.4    C252,0.5,152.7,3.1,53.3,6.6l0,0l0,0l0,0C43.2,6.9,33.1,7.3,23,7.6c-2,0.1-3.9,0.1-5.9,0.2C15,7.9,12.8,8,10.6,8    c-1.1,16.2-0.9,32.4,0.6,48.5c0.9,9.8,2.3,19.6,4.1,29.3c2.9,15.3,7,30.6,6.2,46.2c-0.8,15.8-6.7,30.8-10.6,46    C8,189.7-3,221,15,216.5c3.3-0.8,8-3.3,12.5-6.1c2.1-1.3,4.1-2.6,6.1-3.9c2.7-1.8,5.2-3.4,7-4.7c8.2-5.5,16.8-10.3,25.8-14    c11.9-4.9,24.4-8,36.5-12.5c15.7-5.9,31.8-9.5,46.8-17.3c8.2-4.3,16.8-8.3,25.5-12.2c7.4-3.3,15-6.4,22.7-9.4    c0.5-0.2,1-0.4,1.6-0.6c16.3-6.4,32.9-12.3,49.3-18.3c18.2-6.5,36.1-13,53.2-20c13.9-5.7,39.8-16.2,53.7-21.9    c15.4-6.3,29.3-11.9,42.7-17c11-4.2,21.6-8.1,32.3-11.8c17-5.9,34.3-11.4,54-17c0.8-0.2,1.7-0.5,2.5-0.7    C496.5,26.4,504.4,19.5,503.6,9.5z M152.8,54c-1,2.1-3.4,3-5.5,2s-3-3.4-2-5.5s3.4-3,5.5-2C152.9,49.4,153.8,51.9,152.8,54z     M106,54c-1,2.1-3.4,3-5.5,2s-3-3.4-2-5.5s3.4-3,5.5-2C106.1,49.4,107,51.9,106,54z M129.9,79.7c-2.2,4.7-7.6,6.7-12.3,4.5    c-4.6-2.1-6.7-7.6-4.5-12.3c2.1-4.7,7.6-6.7,12.3-4.5C130.1,69.6,132,75.1,129.9,79.7z"/></g></g><g><g><path class="st1" d="M506.1,164.1c-0.8-12.1,2.7-25.9,0.6-37.9C511.6,137.6,507.4,151.6,506.1,164.1z"/></g></g><g><g><path class="st1" d="M506,448.5c-3.3-17.8-5.5-35.7-6.8-53.7c-0.7-9.1-1-18.2-1.2-27.3c-0.2-13.2,0.2-26.5,0.9-39.7    c2.8-54.7,10.7-109.6,7.2-163.7c-1.4,13-5.1,26.2-8.5,38.8c-10.3,38-18.1,76.6-25.5,115.3c-3.8,20.1-7.5,40.3-11.4,60.5    c-4,20.7-8.1,41.3-12.8,61.8c-2.6,11.5-5.9,23.8-15,31.3c-4.9,4-10.9,6.1-16.9,8c-8.8,2.8-18.2,5.2-27.3,3.5    c-8.5-1.6-15.9-6.7-23-11.7c-26.8-18.8-53.6-37.6-80.4-56.5c-5.6-3.9-11.6-8-18.4-7.8c-7.7,0.2-14.3,6-18.4,12.6    c-4,6.6-6.3,14.1-9.9,21c-7.5,14.3-22.4,25.7-38.6,25c-17-0.8-29.5-13.7-38.3-29.1c-3.6-6.3-6.5-12.9-9-19.4    c-5.1-13.6-9.4-27.4-13.1-41.4c0,0,0,0,0-0.1c-3.7-14-6.8-28.2-9.3-42.5c0,0,0,0,0-0.1c-1.8-10.5-4.4-22.6-13.8-27.5    c-3.3-1.7-7.1-2.3-10.8-2.9c-14.6-2.4-29-5.7-43.2-10c-9.8-2.9-19.4-6.2-28.9-10c-0.8-0.3-1.6-0.6-2.5-1    c-5.4-2.2-9.3-4.5-12.4-5.4c-4.4-1.3-7.2,0.1-10.5,8.5c-4.4,11.3-1.8,27.2-1.1,39c0.3,5.9,0.7,11.8,0.9,17.7    c0.7,11.7,1,23.5,1.3,35.3c0.1,6.9,0.2,13.7,0.3,20.6c0.2,35.1-1,70.2-3.6,105.1c4.5,0,8.9-0.1,13.4-0.1c30.3-0.3,60.7-0.6,91-0.9    c23.6-0.3,47.1-0.5,70.7-0.7c22.8-0.2,45.6-0.5,68.3,1.5c20.7,1.8,41.2,5.3,61.9,5.6c22.3,0.3,44.5-3.3,66.8-5.6    c31.1-3.2,62.5-3.9,93.8-2.1c8.2,0.5,16.9,1,24-3c7.8-4.4,11.9-13.4,12.8-22.3C509.5,466.1,507.6,457.3,506,448.5z M67,434.8    c-9.8,4.1-21-0.5-25.1-10.3s0.5-21,10.3-25.1s21,0.5,25.1,10.3C81.4,419.5,76.8,430.7,67,434.8z M98.6,444.4    c-3.2,1.3-6.8-0.2-8.1-3.3c-1.3-3.2,0.2-6.8,3.3-8.1c3.2-1.3,6.8,0.2,8.1,3.3C103.3,439.4,101.8,443.1,98.6,444.4z M104.2,405.9    c-7,3-15.1-0.4-18.1-7.4c-0.7-1.7-1.1-3.5-1.1-5.2c-0.1-5.4,3.1-10.6,8.5-12.9c6.6-2.8,14.2,0,17.5,6.2c0.2,0.4,0.4,0.8,0.6,1.2    C114.5,394.9,111.2,403,104.2,405.9z"/></g></g></svg>