<?xml version="1.0" encoding="utf-8"?>
<!-- Generator: Adobe Illustrator 26.5.0, SVG Export Plug-In . SVG Version: 6.00 Build 0)  -->
<svg version="1.1" id="svg" xmlns="http://www.w3.org/2000/svg" xmlns:xlink="http://www.w3.org/1999/xlink" x="0px" y="0px"
	 viewBox="0 0 500.7 406.5" style="enable-background:new 0 0 500.7 406.5;" xml:space="preserve">
<style type="text/css">
	.st0{fill:#FFFFFF;}
</style>
<path class="st0" d="M412.6,256.1c-10.7-1.5-20-3.7-23.3-5.3c-3.8-2-14.1-2.1-16.6-0.2c-1.7,1.2-1.1,1.4,5.1,1.8
	c4.2,0.3,8.7,1.3,11.4,2.6l4.5,2.2l-7.5-0.7c-12.9-1.2-42.8-0.7-50.8,0.9c-4,0.8-7.2,1.1-7.2,0.7c0-1.3,9.8-5.8,14.1-6.5
	c2.1-0.3,3.7-1,3.4-1.4c-0.3-0.4,0.8-1.2,2.3-1.8c3.5-1.4,28.5-8.2,33.7-9.3c25.1-5,32.6-7,32.3-8.9c-0.4-2-4.3-2.2-9.3-0.6
	c-2.2,0.7-8.7,2.3-14.5,3.5c-10.4,2.2-12.7,2.8-30.5,7.5c-28.2,7.6-44.6,17.5-56.3,33.8c-4.3,6-2.4,5.9,4.3-0.2
	c16-14.6,37.1-17.3,95.5-12.2c18.7,1.6,18,1.4,18,5.3c0,4.2,3.5,10.1,5.6,9.3c0.8-0.3,2-0.6,2.5-0.6c0.6,0-0.1-1.4-1.6-3
	c-1.6-1.9-2.8-4.9-3.2-8.1C423.7,258.8,421.8,257.4,412.6,256.1z"/>
<path class="st0" d="M349.1,222.9c-21.6,7.8-45.4,24.5-51.4,36.1c-0.9,1.7-1.2,3.1-0.6,3.1c0.6,0,1-0.7,1-1.5
	c0-3.6,17.9-18.2,30.5-24.9c7.2-3.8,27.5-11.1,33.8-12.1c2.1-0.3,3.8-1.1,3.8-1.6c0-0.6,0.5-0.7,1-0.4c0.5,0.3,1,0.1,1-0.4
	c0-0.6,1.5-1.1,3.2-1.1c2.1,0,2.8-0.3,2-0.8c-0.9-0.5,0.1-1.3,3-2.2c6.3-2,9.9-4,9.3-5c-0.8-1.3-4.2-1.1-9.5,0.8
	c-2.5,0.9-8.3,3-13,4.8C358.5,219.5,352.2,221.8,349.1,222.9z"/>
<path class="st0" d="M290.2,160.2c-4.4,3.3-7.8,6.5-7.5,7c0.3,0.5,0,0.9-0.7,0.9c-2,0-4.8,3.1-4.2,4.6c0.4,1,1.7,0.2,4.4-2.8
	c2.1-2.3,3.6-3.4,3.2-2.3c-0.5,1.3-0.3,1.7,0.5,1.2c0.6-0.4,1.2-0.2,1.2,0.5c0,0.9,0.4,0.9,1.5-0.1c0.8-0.7,1.3-1.6,1-2.1
	s0.8-1.8,2.5-3c1.6-1.2,4.4-3.9,6.1-6C302.8,152.2,299.6,153.1,290.2,160.2z M278.6,172.1c-0.3,0-0.5-0.2-0.5-0.5
	c0-0.3,0.2-0.5,0.5-0.5c0.3,0,0.5,0.2,0.5,0.5C279.1,171.9,278.9,172.1,278.6,172.1z M288.2,168.1c-0.6,0-1.1-0.5-1.1-1s0.2-1,0.4-1
	c0.2,0,0.7,0.5,1.1,1C289,167.7,288.8,168.1,288.2,168.1z"/>
<path class="st0" d="M325.1,270.1c0,1.2,0.8,1.2,3.5,0c1.8-0.8,1.7-0.9-0.8-0.9C326.4,269.2,325.1,269.6,325.1,270.1z"/>
<path class="st0" d="M334.9,116.6c-3.1,0.7-5.2,3.6-6.1,8.3c-1.3,7,9.1,10.8,17.9,6.7c3.5-1.7,6.5-7.2,6.5-11.9c0-5.5-6.1-8-12.5-5
	C339,115.3,336.4,116.2,334.9,116.6z M341.8,117.8c1.3-1.3,6.4-0.7,7,0.9c1.6,4.2-4.5,10.5-10.3,10.5c-5.4,0-6.9-3.7-3.1-7.7
	c3-3.2,3.5-2.9,3,1.4c-0.4,3.4-0.3,3.6,1.2,2.4c0.9-0.7,1.6-2.6,1.6-4.1C341.1,119.7,341.4,118.2,341.8,117.8z"/>
<path class="st0" d="M330.4,108.9c-2.1,0.7-1.4,3.3,1.3,4.3c3.6,1.4,4.2,1.2,5.5-1.1c1.4-2.6,0.5-3.6-1.6-1.8
	c-1.4,1.1-1.8,1.1-2.8-0.2C332.2,109.2,331.1,108.6,330.4,108.9z"/>
<path class="st0" d="M337.4,104c-0.6-2.2-0.9-2.3-1.6-0.3c-0.8,2.1-0.8,2.1,0.8,2.1C337.3,105.8,337.7,105.1,337.4,104z"/>
<path class="st0" d="M332.8,106.4c0.3-0.7,0.3-1.8,0-2.5c-0.3-0.7-0.5-0.1-0.5,1.2S332.5,107.1,332.8,106.4z"/>
<path class="st0" d="M348.6,77.2c-5.6,5.3-7.4,8.4-5.7,10c0.6,0.6,1.6,0,2.7-1.7c1-1.5,3.8-4.7,6.4-7.1c2.6-2.5,3.8-4.1,2.7-3.7
	c-1.8,0.7-1.8,0.6-0.6-0.9C356.8,70.4,353.9,72.3,348.6,77.2z M343.6,87.1c-0.3,0-0.5-0.2-0.5-0.5c0-0.3,0.2-0.5,0.5-0.5
	c0.3,0,0.5,0.2,0.5,0.5C344.1,86.9,343.9,87.1,343.6,87.1z M347.6,80.5c-0.9,0.3-1.3,0.2-0.9-0.4c0.6-1,2.5-1.4,2.5-0.6
	C349.1,79.7,348.4,80.2,347.6,80.5z"/>
<path class="st0" d="M373.1,246.1c0,0.4,10.3,0.5,22.9,0.2l22.9-0.5l0.7,3.6c0.7,3.6,4.4,8.7,6.4,8.7c1.4,0,1.4,0.1-1.1-6.7
	c-2.3-6.2-5.9-10.4-8.7-10.2c-0.9,0.1-9.6,0.7-19.2,1.4C379.4,243.9,373.1,244.8,373.1,246.1z"/>
<path class="st0" d="M435.4,278.9c2.6,0.2,6.9,0.2,9.5,0c2.6-0.2,0.5-0.4-4.8-0.4S432.8,278.7,435.4,278.9z"/>
<path class="st0" d="M301.9,158.9c1.7-1.7,2.4-3.1,1.8-3.6c-0.6-0.6-1.6-0.1-2.7,1.4C298.2,160.3,298.8,161.9,301.9,158.9z"/>
<path class="st0" d="M264.6,153l3-0.8c7.2-2,8.8-3,7.5-4.6c-0.7-0.8-1.5-1.3-1.7-1c-0.3,0.3-2.7-2.2-5.5-5.5s-5.2-6-5.4-6
	c-0.2,0-0.3,0.9-0.3,1.9c0,1.1,0.5,2.2,1,2.6c0.6,0.3,0.8,1,0.5,1.5c-0.3,0.5,1.3,2.2,3.5,3.8l4,2.9l-3.2,2.6L264.6,153z
	 M265.9,143.3c-1.7-1.3-2.2-2.1-1.4-2.1c0.2,0,1,0.8,1.8,1.8C267.5,144.5,267.5,144.5,265.9,143.3z"/>
<path class="st0" d="M308.1,152.7c0-2.5-17.8-4.7-21-2.6c-0.8,0.5-2.7,0.7-4.3,0.4c-3.1-0.7-11.2,2.1-14.2,4.8
	c-2.2,2-1.4,2.3,1.6,0.7c4.5-2.4,2.7,0.2-2.6,3.7c-8.3,5.5-6.8,6.1,2.7,1c8.2-4.4,16.9-7.7,23.7-9.1c5.3-1.1,2.4,0.8-4.5,3
	c-6.5,2.1-20.9,8.9-23.8,11.4c-1.3,1.1-1.5,1.7-0.6,2.3c0.7,0.4,2.7-0.5,4.8-2.2c1.9-1.6,4.1-2.9,4.8-2.9c1.7,0,1.6,2.5-0.2,4
	c-0.8,0.7-1.5,1.8-1.5,2.6c0,2.8,1.8,2.2,4.8-1.7c4.1-5.3,18.4-14.8,22.2-14.8c1.6,0,3.2,0.4,3.5,0.9
	C304.4,155.3,308.1,154.2,308.1,152.7z"/>
<path class="st0" d="M296.9,163.1c-0.2,0-1.5,1.2-2.9,2.6c-1.3,1.5-1.8,2.4-1,2.2C294.4,167.6,297.9,163.1,296.9,163.1z"/>
<path class="st0" d="M306.1,147.7c-3.7-2-18.2-4.6-19.4-3.5c-0.5,0.5-2.8,0.9-5,0.9c-3.5,0-4.3-0.4-5.8-3.1
	c-1.2-2.1-2.3-2.9-3.3-2.5c-0.8,0.3-1.3,0.2-1-0.3c0.3-0.5-0.5-1.7-1.7-2.8c-3.3-3-4.7-3.6-4.7-2c0,1.4,10.4,12.3,13.3,13.9
	c0.9,0.5,5.4,0.4,10.6-0.2c6.2-0.7,9.7-0.7,11,0c1,0.6,3.4,1,5.2,1l3.3,0L306.1,147.7z"/>
<path class="st0" d="M367.4,224.2c-4.3,1.1-10,2.7-12.8,3.4c-6,1.6-15.5,4.9-18.1,6.3c-1.1,0.6-4.2,2.1-6.9,3.4
	c-8.4,4-27.5,19.9-27.5,22.9c0,0.8,2.4-0.9,5.2-3.7c9.6-9.2,20.2-15,42.8-23.2c6.1-2.2,22.8-7,39.5-11.2c6-1.5,11.8-3.1,12.7-3.5
	c1.2-0.5,2.4,0.4,4.3,3.4c1.9,2.9,3.3,4.1,5,4.1c3.9,0,3.7-1.3-0.9-6.3c-5.2-5.6-6.3-5.7-21.5-2c-5.8,1.4-11.3,2.9-12.2,3.4
	C376,221.7,371.7,223,367.4,224.2z"/>
<path class="st0" d="M365.4,176.8c1.4,0,1.5-0.3,0.2-2.7c-1.6-3.2-13.2-13.9-15-13.9c-0.7,0-1.7-0.6-2.4-1.4
	c-1.5-1.8-4.1-2.5-6.5-1.7c-1.5,0.5-1.6,0.8-0.5,1.7c0.7,0.6,2.2,1.3,3.3,1.5c1.1,0.2,1.9,0.9,1.8,1.5c-0.1,0.6,1.2,2.6,2.8,4.4
	c1.7,1.9,3.8,5.1,4.7,7.1c0.9,2.1,2,3.8,2.5,3.8c1.3,0-0.1-6.1-1.9-8c-0.8-0.9-1.5-2.3-1.5-3.1c0-1,0.6-0.7,1.9,0.8
	c1,1.2,2.2,1.9,2.6,1.5c0.4-0.4,0.6-0.2,0.4,0.4C357.5,170.2,363.5,176.8,365.4,176.8z M364.6,175.1c0.3,0,0.5,0.2,0.5,0.5
	c0,0.3-0.2,0.5-0.5,0.5s-0.5-0.2-0.5-0.5C364.1,175.4,364.4,175.1,364.6,175.1z M349.6,165.1c-0.3,0-0.5-0.2-0.5-0.5
	c0-0.3,0.2-0.5,0.5-0.5c0.3,0,0.5,0.2,0.5,0.5C350.1,164.9,349.9,165.1,349.6,165.1z"/>
<path class="st0" d="M338.1,161.6c0,0.8,0.9,1.7,1.9,2c1.1,0.3,4,2.9,6.5,5.7c3.5,3.9,4.5,5.6,4,7.2c-0.4,1.2-0.3,1.8,0.1,1.4
	c0.4-0.4,1.4-0.2,2.1,0.4c1.1,0.9,1.2,0.8,0.6-0.8c-1.6-4.4-7.5-13.4-10-15.3C340.4,159.8,338.1,159.5,338.1,161.6z"/>
<path class="st0" d="M350.6,146.5c-1.7,1.3-1.4,1.5,4.1,2c3.3,0.3,8.1,1.1,10.8,1.6c2.7,0.5,6,1,7.5,1c5.3,0,0.3-2.3-9-4.1
	C352.6,144.8,353,144.8,350.6,146.5z"/>
<path class="st0" d="M367.8,71.9c0.3-1,0.2-2.3,0-3s-0.5,0.1-0.5,1.8C367.4,72.3,367.6,72.8,367.8,71.9z"/>
<path class="st0" d="M345.2,209.1c-0.5,0-3.2,1.3-5.8,3c-3.2,1.9-5.7,2.8-7.3,2.5c-2.1-0.4-2.2-0.4-0.5,0.4c1.8,0.8,1.7,1-1,1.7
	c-1.6,0.4-5.6,2.5-8.9,4.6c-3.2,2.1-6,3.9-6.1,3.9c-0.2,0,1.4-3.9,3.5-8.8c2.1-4.8,4.2-10.8,4.8-13.2c0.6-2.5,1.9-7.6,3-11.5
	c4.2-15,4.9-27.9,1.6-25.7c-0.6,0.4-1.3,3.2-1.6,6.3c-1.1,10.8-5.1,25.5-10.9,39.9c-5.4,13.6-7.6,17.4-16.2,28.8
	c-7.2,9.5-9.7,13.7-9.7,16.5c0,0.7,0.9-0.3,2-2.1c6.8-11.2,18.8-22.9,29.9-29.4c5.3-3.1,28.7-14.8,29.5-14.8c0.3,0,3-1.1,6-2.5
	s5.8-2.5,6.3-2.5c0.4,0,3.5-1.1,6.8-2.4l6-2.4l1.8,3.4c1.8,3.6,6,5.5,7.9,3.7c0.7-0.7,0.4-1.4-1-2.1c-1.1-0.6-2.8-2.7-3.7-4.6
	c-0.9-1.9-2.4-3.7-3.3-4c-1.5-0.5-26,7.9-30.3,10.5C347,208.7,345.7,209.1,345.2,209.1z"/>
<path class="st0" d="M309.9,146c-1.7-2.8-10.2-6.5-17.1-7.3c-5.3-0.7-5.7-0.6-5.4,1.1c0.3,1.4,1.6,2,5.9,2.4c3.1,0.3,6,0.9,6.5,1.2
	c0.5,0.3,3.3,1.5,6.1,2.6l5.2,2L309.9,146z"/>
<path class="st0" d="M312.7,99.2c-1.4-1.4-1.5-1.3-1.5,0.1c0,0.9-0.3,3-0.6,4.7c-0.5,2.4-0.3,3.1,0.9,3.1
	C313.6,107.1,314.6,101.1,312.7,99.2z"/>
<path class="st0" d="M307.6,103.8c-0.8-3.2-3.5-3.5-3.4-0.4c0,1.2,0.4,2.9,1,3.7C306.6,109.4,308.4,107,307.6,103.8z"/>
<path class="st0" d="M315.4,138.7c-1.2,0.9-2.2,2.6-2.2,3.8c0,2.7,6.8,9.2,8.2,7.8c1.6-1.6,0.3-4.6-3-6.6c-1.8-1.1-3.2-2.3-3.2-2.6
	c0-0.5,12,1.1,12.9,1.7c0.2,0.2-0.6,1.4-1.8,2.7c-1.2,1.3-2.4,3.3-2.6,4.5c-0.6,3.2,2.5,2.8,5.9-0.8c2.4-2.5,2.7-3.5,2.1-6.5
	c-0.4-1.9-1-3.7-1.4-3.9s-3.4-0.7-6.7-1.1C319,137.2,317.1,137.4,315.4,138.7z"/>
<path class="st0" d="M324.3,104.1c1.1,0,1-5.7,0-8.4c-0.5-1.2-1-1.5-1.5-0.8C321.9,96.3,323.1,104.1,324.3,104.1z"/>
<path class="st0" d="M298.8,110.6c-0.7-1-3.6-1.7-7.7-2.1c-6.4-0.6-6.7-0.5-8.4,2.1c-2.6,3.9-0.8,8.9,5.5,15c4.7,4.6,5.4,5,10.9,5.4
	c4.4,0.3,6.5,0,8.5-1.3c3.2-2.1,3.2-2.6,0.6-5.6c-1.1-1.3-1.8-1.8-1.5-1.2c0.3,0.7-0.5,2-1.9,2.9c-5.6,3.7-15.2-1.6-18-10
	c-1.2-3.5-1.2-3.6,1.4-3.6c6,0,7.1,0.9,7.1,5.5c0,4.8,1.3,6.3,3.6,4.3c1.1-0.9,1.4-2.2,0.9-4.7l-0.6-3.5l6.3,5
	c3.5,2.7,6.9,6,7.5,7.4c1.1,2.2,1.3,2.2,1.9,0.6c1-2.5-2.3-8.4-5.6-10.1c-1.4-0.7-3.2-2.1-3.9-2.9c-0.7-0.9-2.2-1.6-3.3-1.6
	C300.8,112.1,299.4,111.4,298.8,110.6z"/>
<path class="st0" d="M327.7,96c-0.7,3-0.4,5.3,0.6,6.1c0.3,0.3,1.1,1.4,1.7,2.5c1.1,1.9,1.1,1.8,1.2-0.7c0-1.5-0.5-2.8-1.1-3.1
	c-0.6-0.2-1.1-2-1-4.1C329.1,92.4,328.5,92,327.7,96z"/>
<path class="st0" d="M295.8,69.6c1.9,0.7,2.8,0.1,1.9-1.4c-0.8-1.3-2.2-1.4-3-0.2C294.4,68.5,294.9,69.2,295.8,69.6z"/>
<path class="st0" d="M329.8,74.6c0.3-0.8,1.1-1.5,1.8-1.5c0.7,0,3.9-1.3,7.1-3s6.5-3,7.2-3c0.7,0,1-0.5,0.6-1.2
	c-0.5-0.7-0.3-0.9,0.5-0.4c0.7,0.4,1.7,0.3,2.4-0.2c0.7-0.5,3.6-1.7,6.6-2.7c4.2-1.4,5.8-1.5,7.2-0.6c1.5,1,1.8,0.8,1.8-0.8
	c0-1.9-3.9-3.2-7.1-2.4c-3.3,0.9-20.6,9-23.9,11.3c-1.4,0.9-3.7,2-5.2,2.4c-1.5,0.4-2.8,1.3-2.8,2.1C326.1,76.6,329,76.6,329.8,74.6
	z"/>
<path class="st0" d="M322.1,72.2c2.2-1,2.3-1.1,0.3-0.7c-1.2,0.2-4.3-0.2-6.9-1c-5-1.5-17.4-2-15.8-0.6
	C301.5,71.6,319.4,73.4,322.1,72.2z"/>
<path class="st0" d="M18.8,332.8c-0.4,0.4-0.7,1-0.7,1.5c0,1,66.3,1.1,97.2,0.2c12-0.4,21.8-1,21.8-1.5
	C137.1,332,19.8,331.8,18.8,332.8z"/>
<path class="st0" d="M13.1,346.8c6.7-0.4,8.2-0.3,9,1.1c0.8,1.4,1.1,1.4,2.3,0.2c1.2-1.2,10.8-1.4,64.8-1.2
	c46.1,0.2,64.6,0.5,68.1,1.4c3.8,1,5.3,1,7.5,0l2.7-1.2l-2.4-1.7c-2.2-1.6-9.1-1.7-80.7-2.2c-83.6-0.5-80.2-0.3-80.2-5.1
	c0-2.3,1.9-3.6,6.5-4.4c2.2-0.4,5.2-1.5,6.7-2.6c2.6-1.8,5.3-1.9,60.5-1.9c60.1,0,60,0,68,4.3c9,4.8,18,8.3,19.7,7.7
	c1.6-0.6,1.1-1.2-2.9-3.9c-2.6-1.8-6.2-3.5-7.9-3.8s-4.3-1.4-5.6-2.3s-5-2.7-8-4c-3-1.2-6.6-3.5-8-5c-1.4-1.5-5.5-5.1-9.3-7.9
	c-3.7-2.9-6.5-5.6-6.2-6.1c0.3-0.5-0.4-1.5-1.5-2.2c-1.2-0.7-3.7-3.6-5.6-6.5c-3.5-5.2-4.7-6.1-5.9-4.3c-1.4,2.2,3.1,8.9,11.7,17.4
	l9.3,9.1l-50-0.1c-36.2-0.1-45.2,0.1-32.5,0.7c9.6,0.4,32.9,0.8,51.8,0.8c21.3,0,34.9,0.4,36,1.1c1.2,0.7-15.4,1-53,1
	c-30.1,0-54.7-0.3-54.7-0.7c0-0.4,1.4-3.5,3-6.8c3.3-6.7,4-13.7,1.5-16.1c-0.8-0.8-1.5-1.9-1.5-2.4c0-0.5,7.5-1,17.8-1
	c9.8,0,25.6-0.6,35.2-1.3c9.6-0.7,17.8-1.1,18.2-0.9c0.4,0.2,0.8,1,0.8,1.7c0,2.4-24.1,6.1-52,8c-3,0.2,1.7,0.2,10.5,0.1
	c8.8-0.2,18.9-0.8,22.5-1.4c3.6-0.6,10.4-1.6,15.2-2.3l8.7-1.2l-0.6-3.1c-0.3-1.7-1-3.9-1.4-4.8c-0.5-0.9-0.9-2.9-0.9-4.3
	c0-1.4-0.7-4.2-1.5-6.2l-1.5-3.6l-8.7,0.7c-4.8,0.4-10.8,0.9-13.2,1.2c-4.2,0.5-4.4,0.4-2.6-1c1.9-1.5,1.9-1.6-0.6-1.6
	c-1.5,0-2.9,0.7-3.2,1.6c-0.6,1.5-2.6,1.6-18.9,1.1c-16.8-0.5-18.5-0.4-21.4,1.4c-2.6,1.6-3.3,2.8-3.8,6.6c-0.3,2.6-1.1,5.9-1.7,7.4
	c-0.8,2.1-0.7,3.4,0.6,5.9c2.4,4.9,2,9-1.4,13.7c-1.8,2.4-3,5.4-3,7.2c0,1.7-0.5,3-1.1,3c-0.6,0-2.2,0.9-3.6,2
	c-3,2.4-7.3,2.7-7.3,0.5c0-0.9-1.4,0.1-3.5,2.4c-4.4,4.9-4.9,10.5-1.1,14.1C4.8,347.2,5.7,347.3,13.1,346.8z M29,289.7l2-4.6
	l23.8-0.1c13.1-0.1,26.3-0.4,29.3-0.9c10.8-1.5,10.5-1.6,11.6,3.8l1,4.8l-3.8,0.2c-2.1,0.1-7.8,0.6-12.5,1.1c-9,1-52,1.6-52.9,0.7
	C27.2,294.5,27.9,292.2,29,289.7z"/>
<path class="st0" d="M80.8,264.3c1.3,2.6,2.8,5,3.3,5.3c1.5,0.9,1.2,2.3-0.8,2.8c-1,0.3,0.1,0.5,2.5,0.6c3.2,0.1,4.5-0.3,5.2-1.8
	c1.4-2.7,1.5-7.5,0.3-14.6c-0.6-3.7-0.7-12.9-0.3-24c0.7-17.9,0.7-18.1,5.1-30.3c3.5-9.9,4.1-12.5,3-13.1c-1.1-0.7-0.9-1.4,0.8-3.8
	c1.2-1.7,2.1-3.3,2.1-3.7c0-1,8.7-13.1,10.4-14.5c0.8-0.7,1.2-1.8,0.9-2.6c-0.5-1.3,16-18.5,17.8-18.5c0.4,0,0.5-0.7,0.2-1.5
	c-0.6-1.4,0.7-2.2,9.6-5.7l2.5-1l-2.5-1c-3.8-1.5-15,2.5-23.3,8.4c-4.5,3.2-2.4,3.1,4.9-0.2c7-3.2,10.2-3.5,4.3-0.5
	c-4.1,2.1-28.5,26.1-27.5,27.1c0.4,0.4,2.2-0.6,3.9-2.3c7.9-7.2,9-7.7,4.1-1.9c-5.7,6.8-9.6,12.4-14.3,20.8
	c-3.7,6.6-3.8,9.8-0.1,4.4c3.4-5,4.3-4.5,1.8,1.1c-4.7,10.7-9.1,26.2-8,27.7c0.5,0.6,0.5,7.6,0,15.6c-0.5,8.2-0.4,16,0.1,18
	c1.7,6.6,2.3,15,1.1,15c-0.6,0-1.1-0.5-1.1-1c0-0.6-1.1-3.1-2.4-5.8C76,246.1,73,239.5,70.2,231.1c-11.3-34-10.6-66.1,2.1-101
	c2-5.6,12.2-25.1,15.9-30.5c25-36.5,60-61.7,106-76.3c23.6-7.5,59.2-11.2,78-8.1c3,0.5,8.3,1.2,11.8,1.6c3.5,0.4,6.1,0.9,6,1.3
	c-9.8,19-12.7,25.5-11.6,26.8c1.5,1.8,5,1.8,4.3,0.1c-0.6-1.6,5.5-15,9-19.6c5.1-6.8,2.9-10.8-6.5-12.1c-3.6-0.5-9.8-1.3-14-1.9
	c-10-1.4-27.9-1.2-42,0.4c-6.3,0.7-13.8,1.9-16.5,2.5c-11.3,2.7-33,9.4-39.6,12.3c-12.4,5.5-16.4,7.4-24.4,11.9
	c-9.7,5.4-26.3,16.9-31.1,21.4c-1.6,1.5-4.8,4.4-7.1,6.4C96,78.9,76.1,108.1,69.7,126.1c-8.8,24.7-10.5,33.8-10.5,57.5
	c-0.1,26.5,4.9,48.5,15.1,68C76.6,256,79.5,261.7,80.8,264.3z"/>
<path class="st0" d="M465.9,321.9c1.8,0.2,4.5,0.2,6,0c1.5-0.2,0-0.4-3.3-0.4C465.3,321.4,464.1,321.6,465.9,321.9z"/>
<path class="st0" d="M392.7,312c-13.2-2.2-47.5-3.4-57.7-2c-6,0.8-16.9,4.5-20.3,6.8c-3,2-0.2,1.6,6.7-1.1c3.4-1.3,9.4-3,13.3-3.7
	c12.7-2.4,39.2-1.3,62,2.6c16.5,2.8,54.2,5.2,55.9,3.5c0.7-0.7-2.4-1-10.3-1C430,317.1,411.8,315.2,392.7,312z"/>
<path class="st0" d="M492.6,330.1c-4.3,0-10.4-3.8-10.5-6.6c0-1.1-1.2-3.6-2.6-5.5c-3.7-5.1-4.7-9.5-2.9-13.7
	c2.8-6.6,0.1-19.3-4.7-22.2c-2.7-1.7-4.9-1.8-23.4-1.3c-18.1,0.4-20.5,0.3-21-1.1c-0.4-1.1-1.9-1.6-4.8-1.6c-2.3,0-9.3-0.9-15.6-1.9
	c-14.5-2.4-28.5-4-42-4.7c-11.6-0.6-30.7,2-39,5.2c-7.7,3-16.4,8.8-18,11.9l-1.5,3l-0.3-3.5c-0.4-3.9-2.6-7-5.1-7
	c-3.1,0-8-4-10.2-8.2c-4.1-8-4.9-37.8-1.4-51.1c0.9-3.5,3.5-8.3,7.7-14.1c3.5-4.8,7.3-10.5,8.5-12.7c2.9-5.2,6.2-15.5,6.5-20.3
	c0.3-3.8,0.4-4,6.5-6.1c3.4-1.2,7.1-2.9,8.1-3.8c1-0.9,2.2-1.7,2.6-1.7c1.2,0,9.1-5.4,10.4-7.2c1.2-1.6,1.5-1.6,5.5,0
	c4.4,1.8,12.2,6.7,13.3,8.3c0.3,0.5,1.1,0.7,1.7,0.3c0.6-0.4,0.8-0.2,0.5,0.3c-0.3,0.5,1.6,3.2,4.3,5.9c3,2.9,5,4.3,5,3.4
	c0-0.8-0.7-2.4-1.5-3.5c-1.9-2.5-2.1-5.1-0.3-3.7c1.6,1.2,6,1.5,5.2,0.3c-1.8-2.9-22.8-12.2-30.2-13.4c-0.7-0.1-1.5-0.5-1.9-0.9
	c-0.4-0.4,1.8-0.4,4.7-0.1c11.3,1.1,10.8,0.9,20.8,7.6c5,3.4,8.3,4.9,8.9,4.3c0.9-1-5.9-6.5-7.3-5.9c-0.6,0.3-0.2-0.2,0.9-1.1
	c1.1-0.9,2.5-1.4,3.2-1.1c1.5,0.6,1.7-1.1,0.2-2c-1.7-1-15.9-4.2-22.3-5c-4.2-0.5-6.1-0.4-6.6,0.5c-0.4,0.7-1.5,0.9-2.6,0.5
	c-1.5-0.6-1.6-0.8-0.4-1.6c0.8-0.5,2.5-0.9,3.7-0.9c2.5,0,7.7-6.4,11.4-14c1.8-3.6,2.2-6.3,2.3-14c0-5.2-0.3-11.7-0.8-14.3
	c-0.6-3.1-0.5-5.6,0.2-7c3.9-8.2,7.4-28.5,5.6-33.1c-0.8-2-4.8-1.9-9.4,0.2c-1.9,0.9-8.5,4.1-14.7,7.1l-11.2,5.5l-9.3-2.1
	c-5.1-1.2-12.3-2.3-15.9-2.5l-6.6-0.4l2.5,3.9c2.4,3.6,5.2,5.2,5.2,2.8c0-0.6-0.5-0.8-1-0.4c-0.5,0.3-1,0.2-1-0.3s0.6-1.2,1.4-1.5
	c1.9-0.7,18.7,2,20,3.3c1.6,1.6,5.9,1.2,10.2-1c2.2-1.1,5.5-2.7,7.4-3.5c3.4-1.5,3.4-1.4,1.6,0.5c-1,1.1-2.2,1.8-2.6,1.5
	c-0.4-0.3-1.1,0-1.5,0.7c-0.5,0.7-0.3,0.9,0.4,0.5c1.4-0.9,1.5,0.3,0.2,2.4c-0.5,0.8-0.7,1.8-0.4,2.3c0.5,0.9,8.8-8,8.8-9.4
	c0-0.4,0.2-0.7,0.5-0.6c0,0,0,0,0,0c0.1-0.1,0.2-0.2,0.4-0.2c0.1,0,0.1,0,0.2,0c0.8-0.4,2.3-1.4,3.9-2.6c4.7-3.7,8.5-5.4,6.5-2.9
	c-1.1,1.3-1,1.4,0.4,0.9c2-0.8,2.1,0.3,0.2,11.8c-0.8,4.8-2.3,10.7-3.5,13.2c-2.1,4.6-2.1,5.9,0.6,22.2c0.8,4.9-2.3,17.5-5,20.4
	c-1.3,1.4-2.9,3.6-3.5,4.8c-0.7,1.3-2.7,2.6-5,3.3c-4.3,1.1-6.7,3.3-5.6,5.1c2,3.2-6.1,11-11.4,11c-1,0-2.2,0.4-2.7,0.9
	c-1.1,1-8.2,3.4-10.8,3.6c-2.1,0.2-3.6,2.2-3.6,4.8c0,3.4-5.2,19-8.1,24.4c-1.6,2.9-5.1,8.2-7.9,11.7c-8.2,10.4-8.4,11.6-8.5,38.6
	c0,20.8,0.2,24.1,1.9,28.5c2.4,6.3,4.9,8.8,10.6,10.9c2.9,1.1,5.1,2.7,6.2,4.7c1.7,3,1.7,3.1-0.7,5.3c-1.3,1.2-4.2,3-6.2,4
	c-2.4,1.1-4.6,3.2-6.1,5.8l-2.3,4.1l-3.2-3.8c-1.7-2.1-3.1-4.3-2.9-4.9c0.1-0.6-2.4-2.7-5.6-4.8c-4.7-3-6.2-4.7-7.4-8
	c-0.8-2.3-2.7-7.4-4.2-11.2c-1.5-3.8-3.3-9-4-11.5c-2.7-9.4-8.5-21.6-12.3-26c-3.9-4.5-7.5-6-8.8-3.7c-0.4,0.7-0.4,0.9,0,0.5
	c0.9-0.8,7.8,6.7,9.9,10.8c1.4,2.8,3,6.9,5.7,14.4c5.1,14.5,9.8,27.8,10.5,29.2c0.6,1.4-0.5,1.1-5.4-1.2c-3.4-1.6-7.1-2.9-8.3-2.9
	c-1.3,0,2,2.1,7.8,4.9c15.5,7.6,22.2,14.4,26.3,26.5c1.9,5.5,1.9,5.6,2.5,2.5c0.3-1.7,2-5.9,3.6-9.3c2.5-5.1,3.6-6.4,6.6-7.5
	c2-0.7,5.5-3.1,7.8-5.4c12.5-12.2,31.3-18.7,54-18.7c10.3,0,27.8,1.9,44.1,4.7c6,1,18.3,1.7,36.7,2.1c26.7,0.5,27.8,0.6,29.6,2.6
	c1.1,1.2,2.2,3.6,2.5,5.3l0.6,3.2l-22.2-0.5c-22.9-0.5-41.9-2.2-56.7-5.2c-6.3-1.3-13.8-1.7-29.5-1.7c-22.1,0-27.7,0.8-37.9,5.6
	c-2.2,1-4.3,1.8-4.7,1.8c-1.7,0-15.7,10-17.2,12.4c-2.4,3.6-0.9,3.3,3.8-1c5-4.5,18-10.8,27.6-13.3c13.9-3.7,42.7-3.6,61.4,0.3
	c12.2,2.5,28.4,3.6,52.8,3.6c13,0,23.7,0.4,23.7,0.9c0,0.5-0.6,1.4-1.4,2c-3.6,3-2.6,12.5,2.1,19.4c1.4,2.1,2.4,3.9,2.2,4.1
	c-0.2,0.2-16.1,0-35.4-0.4c-34.2-0.8-48.1-1.7-69.7-4.6c-14.5-1.9-33.1-1.8-42.1,0.2c-4,0.9-10.5,3.1-14.6,5
	c-4.1,1.9-7.9,3.4-8.6,3.4c-0.7,0-1.9,0.7-2.6,1.7c-1.3,1.5-1,1.6,2.6,0.8c6.2-1.4,175.4-1.2,176.3,0.2c0.4,0.6,3.3,1.9,6.4,2.8
	c3.2,0.9,6,2,6.2,2.5c0.3,0.5,0,2.2-0.6,4l-1.1,3.1l-88.1-0.1c-87.7-0.1-88.1-0.1-90.6,2c-12.1,9.8-20.5,11.6-42.5,8.9
	c-9.1-1.1-9.9-1.4-19.4-7.8c-5.1-3.4-5.8-3.6-12.7-3.4l-7.3,0.2l-4.3-4.7c-4.6-5-4.2-6,1.8-4.3c2.1,0.6,7.7,1.1,12.6,1.1
	c4.8,0,8.8,0.3,8.8,0.6c0,0.3-1,1.4-2.2,2.4c-3,2.4-2,3.2,2.5,1.9c3.2-0.9,4.4-0.7,8.9,1.7c2.9,1.5,6.6,2.7,8.3,2.6l3-0.1l-3,1.3
	l-3,1.3l3.8,0.7c2.1,0.4,9.6,0.5,16.7,0.3c11.1-0.3,13.3-0.7,15.7-2.5c4.5-3.3,9.4-5.6,10.8-5c3.1,1.2,2.3-1.5-0.9-3
	c-3.4-1.6-3.5-1.6-7.7,1.5c-4.9,3.5-6.3,3.7-11.3,1.6c-4.9-2.1-11.6-1.9-16.8,0.5l-4.4,2l-4.5-2.6c-2.5-1.4-5.2-3.2-6.1-4
	c-0.9-0.7-2.5-1.4-3.6-1.4c-1.1,0-3.3-0.7-4.9-1.5c-2.1-1.1-6.4-1.5-16.5-1.5c-11.9,0-13.9-0.2-16-1.9c-2.3-1.9-2.1-1.9,15.1-1.4
	c9.6,0.3,19.1,0.9,21,1.4c1.9,0.5,4.9,0.9,6.5,0.9c2.7,0,2.8-0.1,1.1-1.1c-5.2-3-20.2-5.8-34.8-6.4l-14.3-0.6l-7-4
	c-3.8-2.2-8.1-4.8-9.5-5.7c-7.1-4.7-17.7-8.5-20-7c-1.8,1.1-0.4,2.7,3.3,3.5c1.8,0.4,4.3,1.5,5.6,2.6c1.3,1,2.9,1.9,3.5,1.9
	c0.6,0,3.6,1.7,6.7,3.9c3.1,2.1,8.6,5.3,12.3,7.1c4.7,2.3,6.6,3.7,6.2,4.7c-0.3,0.9,2.5,4.5,7.5,9.5c7.5,7.6,8.3,8.1,11.5,7.6
	c1.9-0.3,3.7-0.1,4,0.5c0.3,0.6,2.2,0.8,4.2,0.6c2.9-0.3,5,0.5,11.5,4.4c8.2,4.9,11.1,5.7,23.8,6.4c12.4,0.7,17.3,0.4,21.8-1.1
	c2.4-0.8,4.9-1.4,5.7-1.4c0.8,0,4.2-2.3,7.5-5.1c6-5,6.2-5,9.7-3.9c2.3,0.8,5.9,0.9,10.2,0.5c5.6-0.6,81.3-1,126.8-0.7l13.2,0.1
	l1,3.7c1.3,4.9-0.3,10.5-4.4,14.9l-3.1,3.3l-112.1-0.1c-85.7-0.1-112.5,0.2-113.6,1.1c-0.8,0.7-1.7,3.2-2.1,5.6
	c-1.1,7.5-6.1,15.5-9.7,15.5c-1,0-2,0.4-2.3,0.9c-0.3,0.5-3.3,1.6-6.8,2.6c-16.7,4.7-47.5-0.3-52.6-8.5c-1-1.6-0.8-2.1,1.8-3.4
	c1.6-0.8,4.5-1.5,6.3-1.5c3.5,0,13,2.9,16.4,5c2.8,1.8,11,0.4,12.3-2c1.5-2.8,1.2-8.7-0.5-12.1c-1.3-2.6-2.1-3-6.2-3
	c-2.6,0-41.1,0-85.5,0.1L33,369.3l-3.3-2.5c-3.5-2.7-6.4-7.8-7.7-13.6c-0.6-2.8-0.7-2.5-0.4,1.7c0.5,6.5,2.7,10.8,6.8,13.3
	c3.1,1.9,5.7,2,88.3,2c97,0,88.4-0.9,88.4,8.9c0,4.6-0.3,5.3-2.5,6.1c-2.7,1-2.9,1-12-2.5c-8.7-3.3-14.4-4-18.8-2.1
	c-7.1,3-5.6,7.4,3.7,11.6c9.8,4.4,20.4,6.3,33.7,5.8c10.1-0.3,12.2-0.7,17.1-3.1c3.1-1.5,6.3-2.7,7.1-2.7c3.3,0,8.2-9,9.2-17
	c0.3-2.5,0.6-4.5,0.6-4.6c0-0.1,50.9-0.1,113-0.1c126.4,0,116,0.6,120.1-7.3c1.4-2.8,2-5.9,2-10.5v-6.6l8,0.7
	c9.6,0.8,12.2-0.2,13.9-5.6C502.1,335.3,498.5,330.1,492.6,330.1z M371.6,161.1c0.3,0,0.5,0.2,0.5,0.5c0,0.3-0.2,0.5-0.5,0.5
	s-0.5-0.2-0.5-0.5C371.1,161.4,371.4,161.1,371.6,161.1z M349.9,325c-22.4-0.1-23.8-0.2-18.8-1.4c3.9-0.9,10.4-1.2,22-0.9
	c9.1,0.2,17.5,0.4,18.8,0.4c1.2,0,2.2,0.5,2.2,1C374.1,324.8,365.5,325.1,349.9,325z M378.6,325.1c-0.3,0-0.5-0.2-0.5-0.5
	s0.2-0.5,0.5-0.5s0.5,0.2,0.5,0.5S378.9,325.1,378.6,325.1z M280.6,344.1c2.7-1.1,9.7-1.1,11.4,0c1.7,1.1-4.3,1.9-9.6,1.3
	C279.3,344.9,279,344.7,280.6,344.1z M230.6,326.4c2.2,0,3.2,0.2,2.3,0.4s-2.8,0.3-4,0C227.7,326.6,228.4,326.4,230.6,326.4z
	 M221.6,326.3c1.7,0,2.4,0.2,1.8,0.5s-2,0.3-3,0C219.4,326.6,220,326.3,221.6,326.3z"/>
<path class="st0" d="M230.1,348.4c-0.8-0.3-2.3-1.2-3.2-2.1c-1-0.8-1.8-1.1-1.8-0.6c0,1.7,2.3,3.4,4.5,3.3
	C231,349,231.2,348.8,230.1,348.4z"/>
<path class="st0" d="M323.6,335c0.5-0.2,36.2-0.4,79.3-0.5c57.2-0.1,78.6-0.5,79.5-1.3c0.9-0.9-19.6-1.1-81.9-1.1
	c-71.4,0-83.3,0.2-84.9,1.5c-1.8,1.4-1.6,1.5,2.6,1.6C320.6,335.3,323.1,335.2,323.6,335z"/>
<path class="st0" d="M312.2,361.5c0.8-0.8,0.3-1.2-1.6-1.6c-2.4-0.5-2.5-0.4-1.1,1.1C310.7,362.1,311.4,362.2,312.2,361.5z"/>
<path class="st0" d="M462.3,307.5c-1.5,0-5.6-0.4-9.2-0.8c-5.1-0.6-6.1-0.5-4.7,0.4c2.2,1.4,18.6,2.6,17.3,1.3
	C465.4,308,463.8,307.6,462.3,307.5z"/>
<path class="st0" d="M259.6,281.1c1.3,0,1.4-0.4,0.5-2c-1.1-2-4.9-12.2-9.5-25.1c-3.3-9.4-9.6-18.6-11.7-17.3
	c-0.8,0.5,4.7,12.1,6.3,13.4c0.4,0.3,1.3,2.8,2.2,5.6s2.2,6.5,3.1,8.2c0.9,1.7,1.4,3.1,1.1,3.1c-0.3,0,0.2,1.4,1,3.1
	s1.4,3.3,1.2,3.5c-0.2,0.2-2-0.2-3.8-1c-4.5-1.9-19-4.6-24.5-4.6h-4.4l2.4-4.8c5.6-11,7.3-24,5.6-43.2l-1.2-13.9l-4.8-6.4
	c-4.6-6.2-10.4-11-17.9-15.2c-1.9-1.1-3.7-2.2-4-2.6c-1.6-2-25.5-3.1-31.3-1.5c-2.6,0.7-5,1.6-5.3,1.9c-1.4,1.4,4.1,1.8,9.2,0.7
	c6.3-1.3,11.8-0.8,21.4,2.1c9.2,2.7,16.1,7,21.6,13.5c8.8,10.2,8.9,12.1,0.3,3.4c-9.1-9.2-10.9-10.4-21.4-14.3
	c-5.5-2.1-8.5-2.5-16.2-2.5c-9.5,0-16.3,1.7-16.3,4.1c0,0.7,0.7,0.9,1.6,0.5c0.9-0.3,5.5-0.9,10.3-1.2c6.6-0.5,10-0.2,14.4,1
	c7.7,2.2,14.8,6.1,13.6,7.3c-1.5,1.5,0.8,5.5,4.4,7.8c4.3,2.8,9,11.1,11.6,20.6c1.3,4.5,1.1,16.2-0.3,22.4
	c-1.3,5.5-6.5,14.9-12,21.9c-5.8,7.3-6.5,8.6-4,8.2c2.5-0.4,9.4-7.7,13.1-14c6.1-10.3,7.7-16.7,7.6-29.1
	c-0.1-11.7-2.2-19.3-7.4-26.7c-2.8-4-7.9-8.7-9.6-8.7c-0.7,0-1.2-0.5-1.2-1.1c0-1.5,3.7-0.2,8.5,2.9c4.7,3.1,11.2,12.3,12.2,17
	c0.5,2.3,0.3,3.2-0.4,2.7c-0.8-0.5-0.8,0.3-0.1,2.6c1.6,5.5,1.2,19.6-0.9,26.8c-2.3,7.8-7,17.3-10.6,21.5c-2.7,3.1-3.5,5.5-1.4,3.8
	c2-1.6,10.2-3.3,15.4-3.2c7.3,0.1,19.9,3.5,27.5,7.5C256.8,280.5,258.7,281.1,259.6,281.1z M239.6,238.1c-0.3,0-0.5-0.2-0.5-0.5
	c0-0.3,0.2-0.5,0.5-0.5c0.3,0,0.5,0.2,0.5,0.5C240.1,237.9,239.9,238.1,239.6,238.1z"/>
<path class="st0" d="M233.1,305.6c-15.9-1.5-19.8-1.6-25-0.5c-4.6,1-2.8,1.1,11,1c8.9-0.1,14.2,0.5,23.2,2.4
	c6.4,1.4,12.5,2.9,13.5,3.4c1,0.5,3.7,1.8,6,3c2.3,1.2,4.7,2.2,5.3,2.2c1.9,0,0-2-3.9-3.9C254.5,308.7,247.4,306.9,233.1,305.6z"/>
<path class="st0" d="M171.4,300.4c-0.9-0.4-4.9-2.8-8.8-5.3c-6.6-4.4-12.5-10-17-16.4c-1.1-1.5-2.3-2.5-2.7-2.1
	c-0.9,0.9,1.2,6.8,2.8,8c0.7,0.5,2.2,2.6,3.2,4.5c1,1.9,2.7,4,3.8,4.5c1,0.6,3.7,2.2,5.9,3.6c3.7,2.3,12,5.9,13.8,5.9
	C173.9,303.1,173.1,301.1,171.4,300.4z M152.6,293.1c-0.3,0-0.5-0.2-0.5-0.5s0.2-0.5,0.5-0.5c0.3,0,0.5,0.2,0.5,0.5
	S152.9,293.1,152.6,293.1z"/>
<path class="st0" d="M149.6,329.1c0.3,0.5,1.5,1,2.5,1c1,0,2.2-0.5,2.5-1c0.4-0.6-0.7-1-2.5-1C150.3,328.1,149.3,328.5,149.6,329.1z
	"/>
<path class="st0" d="M167,121.1c-11.3,0.4-15.1,1.1-13.7,2.4c0.2,0.2,6,0.7,12.7,1c10.1,0.5,12.7,0.3,14.7-1
	c2.7-1.8,13-1.3,26.9,1.2c10.5,1.9,11.6,1.9,11-0.5c-0.4-1.4-1.8-2.1-5.2-2.6c-2.6-0.4-6-1.1-7.7-1.6c-1.6-0.5-6.4-1.1-10.5-1.4
	c-4.1-0.2-10.4-0.7-14-1.1c-6.5-0.7-6.5-0.7-4,1.2C179.6,120.6,179.6,120.6,167,121.1z"/>
<path class="st0" d="M313.9,161.1c1.2,0,2.2-0.4,2.2-1c0-1.3-1.1-1.3-3,0C311.9,160.9,312.1,161.1,313.9,161.1z"/>
<path class="st0" d="M297.8,105.1c0.8,0,1.2-0.5,0.9-1c-0.3-0.5-1.3-1-2.1-1s-1.2,0.5-0.9,1C296,104.7,296.9,105.1,297.8,105.1z"/>
<path class="st0" d="M271.5,306.6c-4.6-4.3-17.1-11.5-20-11.5c-0.8,0-1.4-1-1.4-2.4c0-8.2-6.3-13.8-17.7-15.5
	c-8-1.2-13.5-1.3-20.4-0.1c-2.5,0.4-5.9,1.5-7.5,2.3l-2.9,1.5l2.6,0.7c1.4,0.4,4.3,0.2,6.4-0.4c4.3-1.2,21.5-0.6,26.2,1
	c3.3,1.1,9.3,7,9.3,9.3c0,1.4-2.9,5.7-3,4.4c0-0.4-0.9,0.1-2,1.2c-1.8,1.8-2.9,1.9-13.2,1.4c-15.5-0.8-30.8-0.6-40.3,0.7
	c-8.8,1.2-9,1.3-8,3c0.6,0.9,4.4,1,15.8,0.4c17.6-0.9,15.6-0.9,31.8,0c13.2,0.8,15,0.4,19.4-3.6c1.9-1.7,2.4-1.8,6.1-0.5
	c6.3,2.2,13.5,6.1,18.3,10C277.2,313.3,277.5,312.2,271.5,306.6z"/>
<path class="st0" d="M310.4,158.1c2.6,0,4.8-1.1,4.2-2.1c-0.8-1.2-1.6-1.1-3.9,0.6C309.1,157.9,309,158.1,310.4,158.1z"/>
<path class="st0" d="M268,44.8c-6.3,7.3-11.6,27.3-10.4,39.5l0.6,6.7l-5.2,7.5c-4.6,6.6-6.1,8-12.3,11.2c-3.9,2-8.5,4.5-10.3,5.6
	c-2.3,1.4-5.8,2.1-12.3,2.6c-9.1,0.6-9.1,0.6-5.8,2.1c1.8,0.8,6.3,1.5,9.8,1.6c5.6,0.1,7.3-0.3,12-3.1c3-1.8,8.1-4.4,11.2-6
	c4.2-2,6.4-3.9,8.5-7.2c1.5-2.4,4.1-6,5.6-8c2.7-3.4,2.8-3.8,2.1-11.6c-0.7-8.4,0.3-15.9,3.4-25c1.8-5.4,3-7.5,4.3-7.5
	c0.5,0,2.6,3.8,4.9,8.4c2.2,4.6,4.7,8.9,5.5,9.6c0.8,0.7,1.5,1.7,1.5,2.3s1.1,2.5,2.5,4.3c1.4,1.8,2.1,3.6,1.8,4
	c-0.4,0.4-0.2,0.5,0.5,0.1c0.9-0.5,0.8-1.8-0.6-5.4c-2.8-7.1-12.2-24.6-13.8-25.5c-0.7-0.4-1.3-1.3-1.3-1.9c0-0.6,1.4,0.2,3.1,1.8
	c2.6,2.5,13.8,23.4,15.4,28.8c0.7,2.3,2.6,1.2,2.6-1.5c0-1.9,0.2-1.8,2.5,0.8c1.4,1.6,2.5,3.2,2.5,3.5c0,0.3,0.7,0.6,1.5,0.6
	s1.5-0.3,1.4-0.6c-0.3-2.7-11.9-21.5-20-32.4C274.1,43.1,270.8,41.6,268,44.8z M282.6,74.1c0.3,0,0.5,0.2,0.5,0.5
	c0,0.3-0.2,0.5-0.5,0.5c-0.3,0-0.5-0.2-0.5-0.5C282.1,74.4,282.4,74.1,282.6,74.1z M288.4,70.2c0.2,0.2,0.9,1.3,1.8,2.4
	c1.4,1.9,1.3,1.9-0.3,0.6c-1-0.8-1.8-1.8-1.8-2.4C288.1,70.3,288.3,70,288.4,70.2z"/>
<path class="st0" d="M248.8,112.8c-1,1-0.8,4.3,0.3,4.3c0.5,0,1-1.1,1-2.5C250.1,112,249.9,111.7,248.8,112.8z"/>
<path class="st0" d="M252.5,112.1c-0.2,0-0.4,0.9-0.4,2c0,1.1,0.4,2,0.9,2c0.5,0,0.7-0.9,0.4-2C253.1,113,252.7,112.1,252.5,112.1z"
	/>
<path class="st0" d="M254.1,65.8c0-3.1-0.5-3.4-1.4-1c-0.4,0.9-0.2,2.1,0.4,2.7C253.8,68.2,254.1,67.7,254.1,65.8z"/>
<path class="st0" d="M131.1,133.3c0,1.4,7.9,0.8,15.3-1.2c4-1.1,9.5-2.3,12.2-2.8c2.8-0.4,4.9-1.2,4.8-1.8c-0.4-1.5-10.1-1.5-16.3,0
	C138.8,129.7,131.1,132.4,131.1,133.3z"/>
<path class="st0" d="M234.8,236.9c0.3-1,0.2-2.3,0-3s-0.5,0.1-0.5,1.8C234.4,237.3,234.6,237.8,234.8,236.9z"/>
<path class="st0" d="M173.8,296.8c-1-0.7-3.1-2.5-4.5-4c-1.4-1.6-4-3.4-5.6-4.2c-3.2-1.4-8.6-6.2-12.3-10.9
	c-1.2-1.6-2.2-2.5-2.2-2.1c0,0.4-0.7,0.2-1.5-0.5c-1.3-1.1-1.4-0.8-0.5,1.7c2.2,6.3,20.8,21.4,26.2,21.2
	C175.5,298,175.6,298,173.8,296.8z"/>
</svg>
