<?xml version="1.0" encoding="utf-8"?>
<!-- Generator: Adobe Illustrator 26.5.0, SVG Export Plug-In . SVG Version: 6.00 Build 0)  -->
<svg version="1.1" id="svg" xmlns="http://www.w3.org/2000/svg" xmlns:xlink="http://www.w3.org/1999/xlink" x="0px" y="0px"
	 viewBox="0 0 690.7 443" style="enable-background:new 0 0 690.7 443;" xml:space="preserve">
<style type="text/css">
	.st0{fill:#FFFFFF;}
</style>
<path class="st0" d="M494.4,250.3c-0.4-9.6-0.9-12.5-2.9-16.6c-1.3-2.7-3.3-5.5-4.5-6.3c-1.8-1.2-2.3-1.1-3.7,0.4
	c-4.1,4.5-5.7,10.5-5.7,21.1c0,9.1,0.3,11,2.6,15.9c1.5,3.1,2.9,5.1,3.3,4.5c0.5-0.7,1.7-0.8,3.9-0.2c1.8,0.5,3.9,0.7,4.7,0.4
	C494.3,268.7,495,263.1,494.4,250.3z M490.5,264.3c-1,2.5-5.5,1.1-8-2.4c-2.9-4.1-3.3-19.8-0.5-24c2-3.1,3.9-3.4,6.1-1.2
	c0.8,0.8,1.9,3.6,2.3,6.2C491.3,248.6,491.4,262,490.5,264.3z"/>
<path class="st0" d="M392.7,354.1c0-1.1-2.5-1.2-5-0.3c-5.6,2.2-16.2,14.4-17.3,20c-0.9,4.7,1,4.1,3.2-1c2-4.7,14.9-17.8,17.5-17.8
	C391.9,355.1,392.7,354.7,392.7,354.1z"/>
<path class="st0" d="M410,374.7c0.1-1.4,0.4-2.5,0.7-2.5c0.7,0,3.9-6.7,3.9-8.2c0-0.6,1.8-3.4,3.9-6.2c2.1-2.8,4.9-7.6,6.2-10.6
	s3.1-6.5,4.2-7.6c1.1-1.2,1.8-3.2,1.6-4.6c-0.3-2.3-0.5-2.2-5.1,2.5c-4.6,4.7-6.4,7.3-3.2,4.8c2.5-2.1,1.7-0.1-4.5,11.1
	c-6.5,11.6-8.8,16.6-12.7,27.3l-2.5,6.9l2.7,6c3.3,7.4,3.2,15.9-0.3,20.7c-2.6,3.5-2.6,3.7-0.7,4.4c2.7,1,6.5-7.1,6.5-14.1
	c0-5.7,0.1-6,2.1-5.5c1.9,0.5,1.8,0.2-0.7-2.2l-2.8-2.8l2.3-1.2c1.8-1,2-1.3,0.8-1.8c-0.8-0.3-1.9-0.1-2.4,0.4
	c-0.6,0.6-1.6,0.2-2.8-1c-1.7-1.9-1.7-2.2,0.4-7.5C408.9,379.7,409.9,376.1,410,374.7z"/>
<path class="st0" d="M512.9,262.9c-1.8,0.2-3.2,0.8-3.2,1.3c0,1.5,5.4,1.1,7.6-0.5C519.3,262.1,519.2,262.1,512.9,262.9z"/>
<path class="st0" d="M515.2,247.1c-2.4,0-4.7-0.5-5.1-1c-0.3-0.6,0.4-1,1.7-1c3.9,0,6.8-1.1,6.8-2.6c0-1.6-2.6-1.9-3.5-0.4
	c-0.3,0.5-1.9,1-3.4,1c-3,0-4-1.7-4.1-7.5c-0.1-4.7-2.4-12.4-4.3-14.2c-0.9-0.9-1.7-1.4-1.7-1c0,0.4,0.9,4,1.9,8
	c1.1,4,2.2,10.8,2.6,15.2c0.4,4.4,1,7.3,1.5,6.6c0.5-0.9,1-0.9,1.5-0.1c0.9,1.5,7.9,1.4,9.4-0.1
	C520.6,247.8,519.8,247.1,515.2,247.1z"/>
<path class="st0" d="M389.2,362.1c-0.9,1.7-2,3-2.5,3c-1.3,0-8,6-8,7.2c0,0.6,0.6,0.5,1.4-0.2c0.8-0.7,3.6-2,6.2-3
	c3.2-1.2,4.8-2.4,4.9-3.7c0.1-1,0.5-2.9,0.9-4.1C393.2,358,391,358.6,389.2,362.1z"/>
<path class="st0" d="M379.7,356.4c0-1,2-4,4.5-6.8c4.1-4.5,5.3-6.5,4.1-6.5c-0.2,0-3,2.4-6,5.2c-4.5,4.2-5.4,5.7-4.9,7.5
	C378,358.5,379.7,358.9,379.7,356.4z"/>
<path class="st0" d="M304.5,317.7c1-0.6,5.2,3,5.2,4.4c0,0.5,0.9,1.2,2,1.5c1.1,0.3,2,1.2,2,1.9s0.7,1.9,1.7,2.7
	c0.9,0.8,2.3,2.8,3,4.6c0.7,1.8,2,3.2,2.8,3.2c1.9,0,1.9-0.3-0.7-5.3c-1.2-2.3-6.7-8.8-12.2-14.4c-5.5-5.6-11.8-12.8-13.9-16
	c-2.1-3.2-3.8-5-3.8-4.2c0,0.9,1.4,4.1,3,7.2c1.7,3.1,3,6.4,3,7.5s2,4.2,4.5,7.1c4.4,5.2,5.5,5.8,3.5,2.1
	C304.1,319.1,304,318,304.5,317.7z"/>
<path class="st0" d="M354.7,329.5c-2.6,4.1-3.4,17.2-1.2,18.5c0.7,0.4,1.2,1.4,1.1,2.2c-0.1,0.8-0.1,3-0.1,4.9
	c0.1,2.7,0.4,3.1,1.1,2c1.3-2,1.3-7.7-0.1-8.6c-1.5-0.9-0.9-14,0.8-18.4C358.2,325.6,357.4,325.3,354.7,329.5z"/>
<path class="st0" d="M679.4,343.5c-1.1-1.1-16.5-1.5-17.2-0.5c-0.4,0.7,2.4,1.1,8.6,1.1C675.8,344.1,679.7,343.9,679.4,343.5z"/>
<path class="st0" d="M409.9,324.2c0.7-0.5,2.8-2.3,4.7-3.9c1.9-1.6,4.4-3.4,5.5-3.9c2.2-1.2,6.1-7.2,4.7-7.2c-0.5,0-1.2,0.6-1.5,1.3
	c-0.8,2.2-10.3,6.5-17,7.8c-6.9,1.3-15.1,4.9-12.9,5.7c1.3,0.5,3.3-0.1,15.4-3.9c6.9-2.2,8.3-2.3,4.5-0.2c-3.7,2-10.9,4.2-17.3,5.4
	c-3.7,0.6-6.2,1.9-9,4.5c-2.1,2-4.2,3.6-4.6,3.6c-0.4,0-0.8,0.5-0.8,1c0,0.6-1.5,2.3-3.3,3.9c-1.8,1.6-4.6,5.5-6.1,8.7
	c-1.5,3.2-3.4,7-4.2,8.5c-0.8,1.5-1.4,3.8-1.4,5.2c0,1.4-0.5,2.6-1,2.6s-1,1.1-1,2.4c0,3.1-1.9,8.7-3.6,10.7c-1.8,2.1-1.8,5,0,4.3
	c1.7-0.6,4.6-7.4,8-18.4c3.5-11.4,8.8-20.1,16.2-26.6c6.6-5.8,10.8-7.9,18.5-9.4C406.5,325.6,409.2,324.7,409.9,324.2z"/>
<path class="st0" d="M396,332.1c-1.2,0-4.3,1.6-7.1,3.7c-4.9,3.6-9.7,9.3-8.8,10.2c0.3,0.3,2.5-1.8,4.9-4.6c2.4-2.8,6.4-6,8.7-7.2
	C396.9,332.8,397.5,332.1,396,332.1z"/>
<path class="st0" d="M543.3,380c-0.9,1-1.6,2.4-1.6,3.2c0,0.8,0.5,0.4,1-0.9c1.1-2.7,3.4-1.9,2.6,0.9c-0.6,2.4,0.7,3.3,2.3,1.4
	c1-1.2,0.8-2-0.8-4C545,378.3,544.8,378.3,543.3,380z"/>
<path class="st0" d="M649.8,370.8c-6.4-0.3-15.7-0.9-20.7-1.3c-6.3-0.5-8.7-0.3-8,0.4c0.5,0.6,6.6,1.5,13.5,2
	c6.9,0.5,13.6,1.4,15,1.9s4.5,1,7,1.1c3.8,0.1,4.6-0.2,4.7-1.7C661.5,371.6,660.4,371.3,649.8,370.8z"/>
<path class="st0" d="M646.7,399.1c10.8,0,15.9-0.3,15.5-1c-0.8-1.3-30.3-1.1-31.1,0.2C630.8,398.7,637.8,399.1,646.7,399.1z"/>
<path class="st0" d="M556,324.9c-3.1,2.5-4.9,6.2-3,6.2c1.7,0,3.2-1.7,4.6-5.3C558.8,322.7,558.8,322.7,556,324.9z"/>
<path class="st0" d="M640.2,375.1c-6.5-1.3-44.1-2.4-44.8-1.2c-0.7,1.1,22.6,2.4,39.2,2.2C642.4,375.9,643.4,375.7,640.2,375.1z"/>
<path class="st0" d="M512.2,329.1c0.3-0.5-0.2-2.3-1.1-3.9c-1.5-2.5-1.6-3.3-0.4-5.4c1-1.8,1-2.9,0.2-4.3c-1-1.7-1.1-1.6-1.1,0.7
	c0,1.4-0.5,3-1.1,3.6c-0.7,0.7-0.6,2.2,0.4,5c0.8,2.1,1.7,5.1,2.1,6.6c0.3,1.5,1.1,2.8,1.6,2.8c0.7,0,0.6-0.7-0.1-2
	C512.1,331,511.8,329.7,512.2,329.1z"/>
<path class="st0" d="M652.9,386.1c5,0,6.8-0.3,5.8-1c-2-1.3-13-1.3-13,0C645.7,385.7,648.7,386.1,652.9,386.1z"/>
<path class="st0" d="M664.9,330.8c-9.8-0.9-41.5-0.8-43.1,0.2c-2.5,1.6,1.7,2.1,16.9,2.1c9.3,0,14.9,0.4,14.9,1c0,0.5,0.9,1,2,1
	s2-0.5,2-1c0-0.6,3-1,7-1c3.8,0,7-0.4,7-0.9C671.7,331.8,668.6,331.1,664.9,330.8z"/>
<path class="st0" d="M637.7,323.4c0-1.5-26.5-1.8-27.5-0.3c-1.1,1.8,1.6,2.2,14.5,1.9C634.2,324.7,637.7,324.3,637.7,323.4z"/>
<path class="st0" d="M514.3,390.8c-1.6,1.6-0.4,2.4,2.4,1.8c2.3-0.5,3.4-0.2,4.5,1.2c1.4,1.9,1.9,0.7,0.9-2.1
	C521.4,390.1,515.7,389.4,514.3,390.8z"/>
<path class="st0" d="M634.2,342.9c-3.3-0.2-8.2,0-11,0.3c-3.1,0.4-0.3,0.6,7.5,0.6C643.4,343.9,645,343.5,634.2,342.9z"/>
<path class="st0" d="M538.7,375c0,2.1,0.5,3.1,1.6,3.1c1.1,0,1.5-0.8,1.2-2.7C541,371.6,538.7,371.2,538.7,375z"/>
<path class="st0" d="M529.1,393.1c-0.8,0-1.7,0.6-1.9,1.2c-0.2,0.7-0.7,3-1,5.1c-0.8,4.5,1,4.2,2-0.3c0.4-1.6,1.1-3.2,1.6-3.5
	C531.2,394.7,530.8,393.1,529.1,393.1z"/>
<path class="st0" d="M639.6,316.1c21.9,0,33-0.3,33-0.9c0-1.1-66.2-1.5-67.3-0.4c-1,1-0.8,2.5,0.3,1.8
	C606.2,316.3,621.5,316.1,639.6,316.1z"/>
<path class="st0" d="M480.7,305.1c0.5-0.8,1-2.5,1-3.8c0-1.2,1.1-4.5,2.4-7.2c2.2-4.6,2.2-6.6-0.2-3.7c-2.5,3.2-4.2,8-4.2,12
	C479.7,305.5,479.9,306.2,480.7,305.1z"/>
<path class="st0" d="M482.7,335.9c0,0.8,0.6,1.2,1.2,0.9c2.1-0.7,6.5,2.1,8.4,5.3c1,1.7,2.1,3,2.6,3c0.4,0,0.8,0.9,0.8,2
	c0,2.5,1.5,2.6,3,0.2c1-1.6,1.1-1.6,2.6,0.2c1.1,1.5,1.8,1.7,2.7,0.8c0.9-0.9,0-3.6-3.5-11.2c-4.2-9.1-4.7-10.7-4.7-17.4
	c0-5.3,0.7-9.2,2.4-14.1c2.5-6.8,3.4-8.5,8.2-14.3c2.4-2.9,2.5-3.2,0.7-3.2c-1,0-2.9,0.7-4.1,1.6c-3,2.1-6.5,9.3-9.2,18.9
	c-3,10.6-2.5,16.9,2,26.1c1.9,3.8,3.6,7.4,3.8,8s-1.5-0.9-4-3.1c-5.4-5.1-11.2-8.4-9.3-5.2c0.5,0.7,0.3,0.9-0.5,0.4
	c-0.7-0.4-1-1-0.7-1.3c0.3-0.3-0.2-1.7-1.2-3.2c-1.3-2-1.7-4.4-1.5-10.5c0.1-4.4,0.7-8.4,1.2-9s1-1.8,1-2.8c0-1,1.8-5.2,4-9.4
	c2.2-4.2,4-7.7,4-8c0-0.2-0.7-0.4-1.5-0.4c-4,0-10.7,17.3-12,30.5c-0.5,4.8-0.2,6.8,1.5,10C481.7,332.8,482.7,335.2,482.7,335.9z"/>
<path class="st0" d="M620.4,243.9c0.7-0.5,1.2-1.4,1.2-2c0-0.6-13.4-0.8-37.6-0.4c-27.2,0.4-38,0.3-39-0.5c-0.7-0.6-1.4-2.4-1.4-4
	c0-3.6-2.5-9.8-3.9-9.8c-0.6,0-1.1,0.4-1.1,0.9s0.7,2.2,1.5,3.8c0.8,1.6,1.5,4.9,1.6,7.4c0.1,4.3,1.7,10.4,1.9,6.9
	c0.1-1.3,1-1.4,5.8-0.9C557.8,246.2,618.9,245.1,620.4,243.9z"/>
<ellipse class="st0" cx="649.7" cy="368.1" rx="13" ry="1"/>
<path class="st0" d="M568.9,222.6c18.3-0.4,33.5-0.9,33.8-1.2c0.3-0.3-14.2-0.3-32.2,0c-22,0.3-33,0.1-33.8-0.6
	c-0.7-0.7-1-0.5-1,0.7C535.7,223.2,537.4,223.3,568.9,222.6z"/>
<path class="st0" d="M496.2,291.1c-0.2,0-1,0.8-1.8,1.8c-2.2,2.6-5.7,10.3-6.4,14.3c-0.4,1.9-1.1,4-1.5,4.6c-0.5,0.6-1.1,4.2-1.4,8
	c-0.6,6.8-0.5,6.9,3.1,10.9l3.6,4l-0.6-3c-2.2-11.5-1.5-21.3,2.2-31C495.2,295.8,496.6,291.1,496.2,291.1z"/>
<path class="st0" d="M538.4,246.8c-0.3,0.4-0.3,3,0,5.6c0.8,6.7,4.3,6.1,4.3-0.7C542.7,249.3,539.2,245.4,538.4,246.8z"/>
<path class="st0" d="M620.7,258.3c0-1.7-1.5-1.9-24.2-2.5c-31.7-0.9-40.2-1.7-45.5-4.4c-4.8-2.5-5.3-2.6-5.3-1.2c0,0.5,0.8,1,1.8,1
	c1.7,0,1.7,0.1,0,1c-1.2,0.7-1.8,2.3-1.8,5.1v4.1l19.2-0.7c10.6-0.4,27.5-0.7,37.5-0.7C619.5,260.1,620.7,260,620.7,258.3z
	 M564.9,258.1c-7.7,0-14.9,0.3-15.9,0.6c-1.3,0.5-1.5,0.3-0.8-0.4c0.5-0.6,3.7-1.3,7-1.5c6.2-0.4,22.7,0.2,23.4,0.9
	C578.8,258,572.7,258.1,564.9,258.1z"/>
<path class="st0" d="M685.3,424.2c-1.2-0.8-3.7-1.5-5.6-1.5c-2.4,0-3.5-0.5-3.5-1.5c0-0.8-1.1-1.7-2.5-1.9c-1.4-0.2-2.9-0.9-3.3-1.5
	c-0.4-0.6-0.5,0.2-0.1,1.7l0.7,2.9l-82.4-0.7c-96.8-0.9-185.3-0.9-188,0c-2.3,0.7-2.4-0.3-0.2-2.7c2.2-2.4,2.9-12.3,1.2-16.3
	c-1.2-2.8-1.3-2.6-1.9,5.2c-0.6,8.4-1,9.3-6.3,12.3c-1.6,0.9-1.8,0.5-1.8-4.8l-0.1-5.8L390,415c-1.4,5-1.3,5.4,0.5,7
	c1.9,1.7,1.8,1.8-3,4c-2.7,1.2-5.7,2.2-6.7,2.1c-1-0.1-3.5-0.1-5.7,0.1l-4,0.3l4.5,0.7c3.8,0.6,3.1,0.7-4.7,1.1
	c-5.1,0.2-10.3,0.1-11.5-0.2c-1.3-0.4,0.7-0.7,4.7-0.8c8.6-0.1,8-1.1-1.1-1.7c-5.7-0.4-7.3-0.9-9.7-3.2c-2.6-2.5-3.4-2.7-11.2-2.6
	c-4.6,0.1-8.4-0.3-8.4-0.7c0-0.5,1.5-2.2,3.4-3.9c1.9-1.7,3.7-4.3,4.1-5.7c0.4-1.4,1.5-3.7,2.6-5.1c1.1-1.4,1.9-3.5,1.9-4.9
	c0-3.6,3.7-10.1,7.8-14c3.9-3.5,5.7-4.2,6.4-2.1c0.3,0.9,1.2,0.7,3.3-0.7c4.1-2.7,24.2-2.9,29.3-0.3c1.9,1,3.6,1.5,3.9,1.3
	c0.9-0.9-6.2-4.5-11-5.6c-6.3-1.5-18.7-0.8-21.7,1.3c-1.5,1-3.5,1.4-5.9,1.1c-3.4-0.5-4.1-0.1-7.7,3.9c-2.2,2.4-4.3,4.2-4.8,4.1
	s-0.6,0.1-0.3,0.6c0.5,0.8-0.3,4.2-2.1,9.1c-0.3,0.8-0.9-0.5-1.4-3c-0.6-3.2-1.8-5.3-4.1-7.4c-1.8-1.6-2.7-2.6-2-2.2
	c2.8,1.5,0.9-1.1-2.8-3.9c-2.8-2.1-4.1-4-4.5-6.5c-1.3-7.5-10.2-29.3-11.7-28.4c-0.5,0.3-0.9,0-1-0.5c-0.1-0.6-0.2-1.4-0.2-1.9
	c-0.1-0.5-0.9-1.6-1.9-2.6c-1-1-1.8-2.4-1.8-3.1c0-2.9-2.4-6.5-4.7-7.1c-1.3-0.3-2.2-0.8-1.9-1.1c0.9-0.9-4.9-5.1-8.9-6.2
	c-2.2-0.7-5.8-1-8-0.9l-4,0.3l6,2c6.5,2.1,17.8,9.4,19.5,12.6c0.8,1.4-0.9,0.8-5.8-2.4c-7.7-5-11.7-6.6-11-4.6
	c0.2,0.7,1.6,1.6,3.1,2c3,0.8,13,8.7,16.1,12.7l2.1,2.7l-2.2-1.9c-3.7-3.2-2.5-0.7,2.1,4.4c3.5,3.9,5,6.9,8,16.1
	c3.3,10.1,4.2,11.8,7.9,15c6.1,5.3,4.3,5.5-2.6,0.3c-3.2-2.4-7.3-4.7-9.2-5c-6.3-1.2-17.7,0-22.8,2.4c-5.3,2.5-5.7,4-0.6,2.2
	c1.8-0.6,8-1.1,13.8-1.1c13,0,17.5,1.8,28.4,11c3.2,2.7,2.8,16.9-0.5,21l-2,2.5l0.7-2.5c0.4-1.4,1.1-4.2,1.7-6.2
	c1.5-5.2,0.2-10.3-3.3-14.1l-3-3.2l2.1,3.6c3,5.1,2.9,15.8,0,20.6c-1.2,1.9-2.6,3.2-3.2,3c-0.6-0.2-1.4-3.4-1.7-7.3
	c-0.6-8.4-4.8-17.4-9.9-21.3c-3.5-2.7-3.4-2,0.4,3.4c6.4,9,7.4,30.5,1.4,30.5c-1,0-1.8,0.6-1.7,1.2c0.2,0.8-1.1,1.4-3.2,1.6
	c-1.9,0.2-4.1,0.8-4.8,1.4c-1.5,1.3-18.2,2.3-20.9,1.3c-1-0.4-10.1-0.9-20.3-1.1c-27.7-0.6-115.1-0.7-115.6-0.2
	c-0.7,0.7,23.9,1.6,74.1,2.8c24.2,0.6,51.7,1.3,61.2,1.6c12.5,0.4,18.5,0.2,22-0.7c5.6-1.5,40.1-1.4,44,0.1c3.6,1.4,24.1,1.3,29.1,0
	c3-0.8,17.2-1.2,46.2-1.3c23,0,42.4-0.4,43-0.8c2-1.2-31.7-2.2-57-1.6c-19.5,0.4-23.2,0.3-21.7-0.8c1-0.7,4.5-1.6,7.8-2
	c8.4-1,279.2,0.4,280.3,1.4c0.5,0.5,0.6,2.2,0.2,3.8c-0.5,2.2-1.7,3.5-4.3,4.7c-3.4,1.6-7.1,1.7-47.2,1.1
	c-34.5-0.5-198-0.7-261.5-0.3c-6.6,0-15.1-0.2-19-0.6c-12.9-1.3-37.7-1.2-42.5,0.2c-3.3,0.9-8.3,1.1-19,0.5
	c-8-0.4-73.8-0.7-146.3-0.5c-119.1,0.2-132.1,0.1-134.2-1.4c-3.8-2.5-2.9-3.5,3.3-3.3c12,0.3,75.8-1.5,77.2-2.3
	c1.6-0.9-9.3-1.7-32.9-2.5c-15-0.5-36.3,0.5-46.5,2.2c-3.6,0.6-3.9,0.5-2.7-0.9c1.3-1.5,5.3-2.2,18.7-3.3c3.3-0.3,6.1-0.9,6.3-1.4
	c0.2-0.5,1.6-0.5,3.3,0c1.7,0.5,7.4,0.9,12.7,0.9c5.3,0,13.3,0.2,17.7,0.5s10.1,0,12.6-0.6c3.5-0.8,6.4-0.8,12,0.2
	c4.1,0.7,11.7,1.3,16.9,1.3c5.2,0,35.8-0.4,68-0.8c43.3-0.6,64.8-0.4,82.7,0.5c13.3,0.7,25,1,26,0.6c1.6-0.6,1.5-0.9-1.2-2.3
	c-3.2-1.7-30.6-3.8-35.6-2.7c-1.9,0.4-2.8,0.1-3.2-1.1c-0.5-1.3-1.5-1.5-5.4-0.9c-2.6,0.4-5.5,1.1-6.4,1.5c-0.9,0.5-5.4,0.6-9.9,0.2
	c-9.8-0.8-8.5-1.6,5.3-3.4c8.4-1.1,10.3-1,15.5,0.4c7.6,2.1,14.8,1.4,15.6-1.6c0.6-2.3-2.2-7.7-3.9-7.7c-1.8,0-7.4-3.1-7.4-4.1
	c0-0.5,0.5-0.9,1-0.9c2.3,0,0.6-1.7-4.1-3.9c-7.1-3.3-15.7-13.5-21.1-25c-1.1-2.4-2.9-4.6-3.9-4.9c-1.5-0.4-1.8-1.4-1.7-6.1
	c0.1-3.1-0.3-6.6-0.9-7.7c-4.4-8.2-6.6-29.2-3.8-36c1.4-3.4,6.1-10.3,7.9-11.6c0.5-0.3,0.6-1.6,0.2-2.8c-0.5-1.5,0.2-3.6,2.5-7.1
	c1.8-2.7,3.6-5,4-5c1.8,0,2.2,6.7,0.5,9.2c-1.8,2.8-3.4,14.4-1.8,13.4c0.5-0.3,1.3-2.1,1.6-3.9c0.4-1.8,1.7-4.8,2.9-6.8
	c1.6-2.5,2.1-4.3,1.7-6.5c-0.3-1.6-1.1-2.9-1.6-2.8c-2,0.4,0.2-10.8,3.4-17.7c2-4.2,6.4-10,7.7-10c0.3,0,0.5,1.5,0.5,3.4
	s0.6,4.9,1.4,6.8c1.4,3.2,1.4,3,1.4-6.1c-0.1-12.4,0.9-17.7,4-21.8c2.2-2.9,7.2-6.8,6-4.6c-0.3,0.5-0.1,1.8,0.4,2.8
	c0.8,1.9,0.9,1.8,0.5-0.2c-0.4-2.1,4.3-9.5,5.9-9.3c0.3,0.1,4-3.1,8.2-7c7.9-7.4,10.3-8.5,5.9-2.8c-1.4,1.9-2.9,4.8-3.2,6.6
	c-1,4.9,1.6,4,4.8-1.6c3.3-5.8,9.1-12.8,17.6-21c3.6-3.4,6.2-6.2,5.8-6.2c-0.8,0-10.9,5.3-15.6,8.3c-9.2,5.7-19.4,14.4-29.7,25.1
	c-6.2,6.4-11.2,11.3-11.2,10.7c0-1.1,22.2-23.8,28-28.7c5-4.2,14.7-10.5,20.3-13.3c8.3-4.1,2.7-5.8-7.3-2.2
	c-16,5.6-26.2,11.6-26.7,15.7c-0.4,3.2-5.3,12.9-8.3,16.4c-1.6,1.9-1.3,0.9,1-4c1.7-3.6,4-8.3,5.2-10.4l2.1-3.9l-2.2,0.6
	c-3.2,0.8-2.6-0.4,1.6-3.2c10-6.7,26.3-14,31.1-14c1.8,0,3.2-0.6,3.6-1.6c0.9-2.3-0.3-3.2-1.8-1.2c-0.9,1.2-1.6,1.3-2.8,0.6
	c-1.9-1.2-15.5,1.5-22.3,4.4c-10.4,4.4-10.5,4.4-10.5,3.2c0-1.7,16.5-7.1,28-9.2c6.6-1.2,7.7-1.6,6.9-2.5c-0.5-0.5-17.1,2.4-28.9,5
	c-3.6,0.8-8.4,1.7-10.8,2.1c-5,0.8-5.3,1.8-1.3,4.2c1.6,1,2.7,2.1,2.4,2.4c-0.3,0.3,0.1,1.4,1.1,2.3c1.1,1.1,1.5,2.5,1.1,3.8
	c-0.4,1.2-0.7,2.8-0.8,3.7c-0.1,0.9-0.9,3.1-1.8,5c-3,6.3-4.9,11-4.9,12.4c0,0.8-1.5,5-3.4,9.5c-1.9,4.4-3,7.8-2.5,7.5
	c0.5-0.3,0.9,0.1,0.9,0.9c0,3.8-3.6,9-12,17.2c-5.1,4.9-10.3,10.8-11.8,13c-3.6,5.6-7.2,13.2-7.2,15.2c0,1-0.7,3.1-1.6,4.7
	c-1.2,2.3-1.5,6.2-1.5,18c0.1,8.3,0.5,16.9,0.9,19.3l0.8,4.2l-6.1-0.1c-7.9-0.1-16.6-1.4-14.6-2.2c0.8-0.3,2.8-0.9,4.3-1.2
	c3.5-0.8,4.5-3.1,2.3-5.5c-1.6-1.7-1.5-2.1,0.9-5.6c1.4-2.1,2.8-4.9,3.2-6.2c0.9-3.7-0.1-10.3-2.4-15l-2.1-4.3l2.3-0.6
	c3.8-1,6.7-4.7,5.9-7.8c-0.4-1.4-1.1-2.6-1.7-2.6c-1.2,0-0.7-2.3,2.2-10.5c3.3-9.1,3.8-23.7,1.2-34.5c-1.1-4.7-3-10.6-4.1-13.2
	l-2-4.8h-96.2c-4.5,0.3-9.1,0.1-13.6-0.4c-0.3,0-0.5-0.1-0.7-0.1c-2.6,0.3-8.4,0.5-15.1,0.5H56.8c-0.7,0.2-1.5,0.2-2.3,0
	c-0.7-0.2-1.3-0.3-2-0.3c-0.3,0-0.6,0.1-0.8,0.1c-0.1,0-0.1,0.1-0.2,0c0,0,0,0,0,0c-0.3,0-0.6,0-0.9,0c-1.1,0-2.2-0.3-3.3-0.5
	c-0.7,0-1.3-0.1-2-0.2c-0.1,0.4-0.3,0.6-0.6,0.7c-0.7,0.2-2.7,1.7-4.4,3.2c-2.8,2.5-3.1,3.4-3.2,8.4c0,3.1-0.4,5.9-0.8,6.2
	c-0.4,0.4-0.7-0.2-0.7-1.2c0-1.1-0.3-1.5-0.8-0.9c-0.4,0.5-0.5,7.6-0.1,15.8c0.5,11.8,1,15.2,2.3,16.5c1.5,1.5,1.6,0.9,1.7-8.3
	c0-12.7,2.4-30.9,4.5-34c2-3.1,4.1-3.2,2.2-0.2c-3.2,5.2-4.7,34.4-2.2,45.9c1.7,8,1.9,8.4,5.6,10.3c2.6,1.4,3.1,1.3,4.9-0.2
	c1.7-1.4,2-2.9,2-8.4c0-8.8-0.9-12.9-2.8-12.9c-1.3,0-1.4,1.3-0.8,8.5c0.6,7.4,0.5,8.5-0.9,8.5c-0.9,0-2.3-1.7-3.3-3.8
	c-2.4-5.5-3.1-40.2-0.9-45.6l1.5-3.7h7.2c6.9,0,7.1,0.1,5.6,1.8c-0.9,1-1.7,2.3-1.7,2.9c0,0.6-1.8,0.9-4.5,0.8
	c-6.2-0.4-7.5,1.6-7.5,11.8c0,4.5,0.4,7.8,1,7.8c0.6,0,1-3.6,1-8.7c0-6.3,0.3-8.4,1.1-7.6c0.7,0.7,2.1,0.8,4.2,0.2
	c1.7-0.5,3.4-0.6,3.8-0.2c0.4,0.4,0.5,5.1,0.1,10.5c-0.7,12.4-2.7,12.7-3.1,0.5c-0.2-6.4-0.7-8.7-1.8-9.1c-1.1-0.4-1.5,0.4-1.5,3.8
	c0,2.4-0.3,7-0.6,10.4l-0.6,6l4-0.2c4.2-0.2,4.4,0,3.1,6.4c-0.5,2.4,1.2,20,2,20c0.4,0,1.3-0.4,2-0.9c1.1-0.7,1.1-2.6-0.1-11
	c-0.8-5.7-1-10.5-0.5-11c0.5-0.5,1.1-6.6,1.5-13.5c0.3-7.4,1-12.6,1.6-12.6c0.7,0,0.7,4.6,0.3,13.2c-0.9,16.2-0.9,18.5,0.5,27.1
	c0.7,4.4,1.8,7.4,3,8.5c4.3,3.7,2.8,4-20.4,4c-32.1-0.1-32.6,0-34.4,2.8c-1.3,2-1.4,2.6-0.2,4.1c0.8,1,1.9,2.1,2.6,2.5
	c2.5,1.6,4.3,7.2,4.3,13.4c0,7.4-3.2,14.9-7.6,17.8c-2.2,1.5-2.6,2.3-2.1,4.9c0.3,1.7,0.8,3.9,1.2,4.9c0.6,1.4,0.1,1.8-2.3,1.8
	c-3.2,0-8.3,3.4-8.2,5.3c0.1,0.7,0.3,0.7,0.6-0.2c0.4-0.9,0.9-0.6,1.7,1c0.7,1.3,1.9,2.2,2.9,2c0.9-0.2,1.7,0.2,1.7,0.8
	c0,0.6-0.7,1-1.5,1c-1.8,0-3.1,2.3-4,7.5c-0.4,2.2-1.3,4.9-2,6c-0.9,1.5-1.3,6-1.2,16.2c0.1,7.8,0.4,13.5,0.7,12.7
	c0.3-0.9,1.1,0.5,1.8,3.2c1.1,4.1,1.1,4.8-0.3,5.6c-1.1,0.6-1.4,1.7-0.9,3.6c0.9,3.5,2,4.2,7,4.2c5,0,6.6-1.5,1.7-1.6
	c-2.2,0-4.2-0.9-5.7-2.4l-2.2-2.3l2.5,0.7c1.4,0.4,4.4,0.9,6.8,1.3c2.3,0.3,4.5,1,4.8,1.4c0.3,0.5,1,0.9,1.5,0.9
	c0.6,0,0.7-0.5,0.4-1c-0.5-0.7,20.3-0.9,67.9-0.7c37.7,0.2,68.3,0,68-0.5c-0.3-0.5,8.9-0.8,20.5-0.8c13.9,0,21.9-0.4,23.6-1.2
	c3.1-1.4,2.7-3.5-0.6-2.9c-3.4,0.6-184,1.2-186.5,0.6c-2.6-0.6-4.7-5.5-6.4-15.3c-1.4-7.9-0.5-16.5,2.9-26.9
	c1.7-5.1,1.7-5.1,6.7-5.8c2.8-0.3,23.5-0.4,46-0.2c22.5,0.2,62.1,0.5,87.8,0.5c51,0.1,49.7-0.1,46.7,5.6l-1.3,2.4h-41.8
	c-26.8,0-42,0.4-42.4,1c-0.6,1,36.7,1.6,67.8,1c9.6-0.2,15.8,0.1,15.8,0.7c0,0.9-35.9,2.3-60.7,2.3c-7.4,0-11.4,0.4-11.9,1.2
	c-0.5,0.9,8.1,1,35.4,0.5c37.2-0.7,50.1,0.5,18.4,1.7c-16.4,0.6-28.1,2.1-29.8,3.9c-1.1,1.1,3.1,0.9,6.3-0.3
	c4.1-1.6,41.3-2.5,41.3-1.1c0,0.8-5.3,1.1-18.4,1.1c-10.1,0-19.2,0.3-20.2,0.8c-1,0.4,7.3,1,18.4,1.2c26,0.6,27.1,2.3,2,3l-18.3,0.5
	l18,0.2c17.1,0.2,23.4,1.1,19.2,2.8c-1.9,0.7-35.9-0.1-50.9-1.2c-6.2-0.5-8.8-0.3-8.8,0.5c0,1.4-1.9,1.3,31.9,2
	c21.4,0.5,28.5,0.9,28.8,1.9c0.3,1-4.1,1.3-19.9,1.4c-13.6,0.1-19,0.4-16.3,0.9c2.2,0.5,10.1,0.9,17.6,0.9
	c14.9,0.1,19.5,0.6,20.2,2.5c0.3,0.9-0.7,1-4.2,0.4c-2.6-0.4-20.2-0.8-39.2-0.9c-30.1-0.1-34-0.3-30.5-1.5c3.6-1.2,2.4-1.3-13.2-1.4
	c-9.5,0-17.2,0.3-17.2,0.8c0,0.5,5.3,1.1,11.8,1.5c6.5,0.4,13.5,1.1,15.8,1.6s20.3,1.3,40.2,1.6c23.6,0.5,36,1.1,35.6,1.7
	c-0.4,0.7-19.2,0.7-55,0.3c-33.2-0.4-54.3-0.4-54.3,0.2c0,1.6,19.3,2.3,66.6,2.2c25.3,0,46.7,0.2,47.5,0.5c1.9,0.7,16.4-2.2,20-4.1
	c2.9-1.5,6.8-1.9,6.8-0.7c0,1-9.3,4.2-15.3,5.3c-6.2,1.1-8.7,1.9-8.6,2.8c0.8,5.4-13.2,8-34.6,6.3c-10.1-0.8-12.3-0.7-13.6,0.5
	c-1.3,1.1-6.8,1.7-24,2.5c-27.3,1.3-27.6,1.2-33.5-0.8c-3.9-1.3-8.7-1.6-27.8-1.3c-12.7,0.2-26,0.3-29.7,0.3c-3.7,0-6.5,0.4-6.2,0.8
	c0.3,0.4-2.1,0.8-5.3,0.8c-10.1,0-19.5,1.8-22,4.2c-2.7,2.5-3.2,9.2-0.9,12.4c1.4,1.9,5.8,1.9,307.7,2.1
	c204.9,0.1,306.5,0.5,306.9,1.2c0.4,0.6,6.4,0.9,16.1,0.7c8.5-0.2,14.1,0,12.5,0.4c-2.6,0.7-2.4,0.8,1.8,0.9
	c2.6,0.1,4.6-0.3,4.3-0.7c-0.3-0.5,5.6-1.2,13-1.5c16.5-0.8,18.6-1.9,20.2-10C687.4,426.1,687.3,425.6,685.3,424.2z M347.5,428.1
	c-2.9,0-9.8,0.3-15.3,0.6c-9.2,0.5-9.8,0.4-8.1-1c1.5-1.2,4.6-1.6,14.7-1.6c7.4,0,13,0.4,13.4,1
	C352.5,427.7,350.8,428.1,347.5,428.1z M260.4,225.4c0.7-0.2,1-0.8,0.7-1.3c-0.6-0.9,6.3-6,8-5.9c0.6,0-1.1,2.1-3.8,4.6
	c-2.6,2.5-5.1,4.3-5.5,3.8C259.5,226.2,259.7,225.7,260.4,225.4z M237.2,402.1c1.1-0.5,1.4-0.9,0.8-0.9c-1.8-0.1-1.6-2.1,0.2-2.1
	c0.8,0,1.7,0.5,2.1,1c0.3,0.5,1.5,1,2.6,1c1.1,0,1.7,0.5,1.4,1c-0.3,0.5-2.5,1-4.8,0.9C236.1,403,235.6,402.8,237.2,402.1z
	 M212.2,307.6c1-2.8,2.6-7.5,3.7-10.5c1.3-3.8,4-8,8.6-13.2c7.2-8.2,9.4-9.8,6.1-4.3c-1.1,1.9-2.2,4.9-2.4,6.6c-0.4,2.9-4.8,9-6.6,9
	c-0.4,0-0.3-1.4,0.2-3.1s0.6-2.9,0.3-2.5c-1,1-5.3,12-5.3,13.7c0,0.8-0.6,2.6-1.3,4c-0.7,1.4-1.9,4.4-2.7,6.8
	c-0.8,2.3-1.8,4.2-2.3,4.2C209.2,318.1,209.9,314.1,212.2,307.6z M178.9,351.9c-5.6,0-10-0.4-9.7-0.9c0.3-0.5,2.1-0.9,3.9-0.9
	c1.8,0,3.5-0.4,3.7-0.8c0.4-1.1,5.9-3.9,7.7-4c1.1-0.1,1,0.4-0.4,1.8c-1.7,1.9-1.7,2,1.6,3.4C189,351.9,188.7,351.9,178.9,351.9z
	 M194.2,322.5c0,7.9-2.7,12.1-8.8,13.7c-2.3,0.6-5.3,1.4-6.7,1.8c-1.4,0.4-2.9,1.7-3.5,2.9c-0.6,1.4-1.9,2.2-3.3,2.2
	c-2.3,0-2.3,0,0.6-3c3.1-3.1,3.6-4.8,4.8-17.3c0.4-3.7,1-6.8,1.5-6.8c0.5,0,1.2,0,1.5,0.1s0.9-0.3,1.2-0.9c0.6-0.9,5.7-3,7.7-3.2
	c0.6,0,2,0.9,3,2C193.7,315.8,194.2,317.8,194.2,322.5z M176.3,238.1c10.2,0,16.3,0.4,16.3,1c0,0.5-0.4,1-0.8,1
	c-1.3,0-2,25.6-1.2,43c0.6,12.9-1,14.6-2.7,2.8c-0.6-4.6-1.2-8.8-1.2-9.5c0-0.7-0.8-1.2-1.7-1.2c-1.4,0-1.6,1.2-1.2,8.8
	c0.3,7.3,0.1,8.8-1.1,8.8c-1.1,0-1.9-2.3-3-8.9c-1-5.6-2-9.1-2.9-9.4c-1.2-0.4-1.3,1.3-0.7,10.2c0.6,9,0.4,10.6-0.8,10.6
	c-1.4,0-2-1.2-1.6-3.4c0.1-0.5-0.5-3.2-1.3-6c-0.8-2.8-1.2-6.3-0.9-7.7c0.4-1.9,0-2.8-1.2-3.3c-3-1.1-3.5,0.3-3.5,9.3v8.8l3.8,2.5
	c3.6,2.4,3.8,2.4,5.7,0.6c2.5-2.4,3.2-2.3,4.6,0.3l1.1,2.1l2.2-2.1c2.2-2.1,2.3-2.1,4-0.2c1.8,1.9,1.8,1.9,3.9,0
	c2-1.9,2.1-2.9,2.1-18.3c0-9-0.4-15.8-0.8-15.2c-0.4,0.6-0.5-4.3-0.1-10.9c0.4-6.6,1-12.4,1.5-13c0.5-0.6,0.9-0.1,0.9,1.1
	c0,1.1,0.8,3.8,1.7,5.9c2.6,5.9,2.5,35.3-0.1,44.4c-1.1,3.6-2.3,7-2.8,7.6c-0.5,0.6-3.6,1.3-7.1,1.6c-3.4,0.3-8.9,1.5-12.2,2.6
	c-5.6,2-6,2-7.9,0.4c-1.3-1.2-3.8-1.8-7.6-1.9c-18-0.6-61.3-1.6-70.9-1.6c-8.1,0-11.4-0.4-11.7-1.3c-0.6-1.5,1.4-3,2.3-1.7
	c0.4,0.5,17.1,1,37.1,1.2c20.1,0.2,38.2,0.5,40.4,0.9c2.7,0.4,3.7,0.2,3.2-0.5c-1-1.5,5.5-0.2,7.5,1.5c0.9,0.8,2.4,1.3,3.5,1.2
	c1.9-0.1,1.9-0.1,0-0.6c-1.9-0.5-4.6-2.6-4.6-3.7c0-0.3-1.1-1.6-2.4-2.9c-1.5-1.5-2.6-4.1-3.1-7.3c-0.4-2.7-1-6.5-1.3-8.4l-0.6-3.5
	l2.1,1.9l2.1,1.9l0-3.9c0-5.8,1-8.4,3.1-8.4c1,0,1.9,0.5,1.9,1.2c0,0.7,0.8,0.5,1.9-0.5c2.1-1.9,3.5-0.9,4.4,2.9
	c0.3,1.1,0.6-1.6,0.7-6c0.2-8.6,1.8-15.1,2.1-8.5l0.1,3.5l1.3-3.5c1.9-5,1.9-6.3-0.2-5.1c-0.9,0.5-4.9,0.7-8.9,0.4l-7.1-0.5
	l-1.1,7.7c-0.6,4.2-1.1,9.4-1.1,11.6c0,2.1-0.3,4.1-0.8,4.4c-0.9,0.6-0.4-23.6,0.6-24.6c0.7-0.8,19-1.7,20.9-1
	c0.7,0.2,0.9,2,0.6,5.2c-0.6,5.1,0.4,16.6,1.4,15.6c0.3-0.3,0.6-4.1,0.5-8.3c-0.1-7.4,0-7.5,0.7-2.5c0.7,4.8,2.7,8.9,3.7,7.9
	c0.2-0.2-0.1-4.1-0.8-8.7c-0.9-5.9-1.5-7.7-2.1-6.4c-0.5,1.2-0.7-0.1-0.5-3.4c0.4-5.2,0-6.1-1.9-4.4c-0.5,0.5-2.9,1.1-5.3,1.4
	c-3.9,0.5-4.3,0.4-3.8-1.4c0.7-2.6-1.9-2.5-3.3,0.1c-0.7,1.3-2.1,2-4.1,2c-1.7,0-2.8-0.4-2.5-0.9c0.8-1.3-2.3-3.6-3.4-2.5
	c-0.5,0.5-1.7,3.8-2.6,7.4c-1.6,6.1-1.6,19.9-0.1,40.7c0.1,1.8-0.2,3.3-0.8,3.5c-1.5,0.4-2.6-9.2-2.8-26.7l-0.2-16H77.7l0,11.2
	c0,8-0.4,11.3-1.3,11.6c-1,0.3-0.9,0.8,0.2,2.2c1.2,1.5,2.7,1.7,9.2,1.3c5.9-0.3,7.8-0.1,7.8,0.8c0,0.7-0.8,1.7-1.8,2.3
	c-1.4,0.8-1.5,1-0.2,1c0.9,0,2.1-0.5,2.8-1.2c1-1,1.2-0.8,1,1.2c-0.3,2.2-0.8,2.5-4.6,2.4c-2.4,0-5-0.8-6.1-1.8
	c-2-1.8-4.2-2.2-4.2-0.7c0,1.8,7.4,6,10.5,6c3.2,0,7.5-2.4,7.5-4.2c0-0.6,1.1-2.1,2.5-3.4c3.3-3.1,3.2-6.4-0.5-9.9l-3-2.8l-1.7,3
	c-1.8,3.2-5.5,4.3-14.1,4.3c-3.2,0-3.4-0.2-2.8-2.2c0.4-1.2,0.9-3.5,1.2-5c0.4-2.4,1-2.8,3.9-2.8c1.9,0,3.4-0.5,3.4-1s1.4-1,3-1
	c2,0,3,0.5,3,1.6c0,0.9,0.4,1.3,0.9,1c0.5-0.3,0.7-1.4,0.4-2.5c-0.4-1.5,0.1-2,2.3-2.2c1.5-0.2,3-1,3.2-1.8c0.4-1.2,0.2-1.3-0.9-0.2
	c-0.9,0.8-4.5,1.2-10.1,1.2c-8.7,0-8.8,0-8.8-2.5v-2.5h68.5l0.2,3.2c0.1,1.8,0.5,6.3,0.8,10l0.6,6.8l-9.1,0.2
	c-5,0.1-9.9,0.2-10.8,0.2c-1.3,0.1-1.8-0.7-1.8-3c-0.1-3.3-1.2-5.7-2.3-5c-0.7,0.4-0.7,2.3-0.3,8.4c0.1,1.8,0.8,2.3,2.9,2.3
	c11,0.2,18.8,1.2,19.6,2.6c0.7,1.3,1,1.3,1.7,0.2c0.7-1.1,0.9-1.1,0.9,0.2c0,0.9-0.4,2-0.9,2.5c-0.5,0.6,0,2.8,1.4,5.6
	c1.5,3.1,1.9,4.8,1.2,5.1c-1.8,0.7-66.6-0.3-72.1-1.1l-5-0.7l-1.4-7.9c-1-6-1.1-8.4-0.2-9.7c0.7-1.1,1.1-6.6,1.1-13.8v-12l39.7-0.3
	c38.8-0.3,39.7-0.3,40.1-2.3c0.2-1.1,1.3-3,2.4-4.2C159.9,238.2,160.7,238.1,176.3,238.1z M164.2,257.6c0-2.2,0.5-4.9,0.9-6
	c0.7-1.5,1-1,1.5,2.6l0.6,4.5l0.8-3.2c1.2-4.9,2.6-3.9,2.6,1.8v5.1l-3.2-0.3C164.3,261.6,164.2,261.4,164.2,257.6z M63.4,241.1
	l0.4-3h46.4c28,0,46.4,0.4,46.4,0.9c0,0.5-0.9,1.2-2,1.6c-1.1,0.3-2,1.1-2,1.7c0,0.7-5.8,1-16.2,1c-8.9,0-25.9,0.1-37.6,0.2
	c-16.7,0.2-21.5-0.1-21.9-1.1c-0.7-1.8-2.3-1.6-3.7,0.3c-1.1,1.5-1.3,1.5-2.9-0.1c-1.6-1.6-1.9-1.6-3.5-0.1
	C64.1,244.9,63,244.5,63.4,241.1z M72.3,249.3c-0.3,1.7-0.6,7.8-0.6,13.5c0,6.2-0.4,10.4-1,10.4c-0.6,0-1-5.2-1-13.5
	c0-11.8,0.2-13.5,1.6-13.5C72.6,246.1,72.8,246.8,72.3,249.3z M66.7,273.4c0-0.8,1.9-0.1,2.8,1c0.6,0.7,1.6,4.3,2.2,8.1
	c0.6,3.7,1.7,8.7,2.5,11c1.9,5.3,1.8,5.9-0.2,5.5c-1.1-0.2-2.1-2.2-3-5.8C69.7,287.4,66.7,273.8,66.7,273.4z M19.4,305.7
	c-2.3,0.6-2.8,0.4-2.8-1.4c0-1.9,0.7-2.1,7.8-2.4c8-0.3,54.6,0,99.8,0.7c29.4,0.4,40.1,1.2,43,3.1c1.7,1.1,3.3,0.9,10-1
	c10-2.9,22.2-4.2,20.6-2.2c-0.6,0.7-4.1,1.6-7.8,1.9c-3.7,0.3-9.1,1.5-12,2.6c-6.2,2.4-10.3,2.6-14.1,0.6c-2.2-1.1-9.7-1.4-38.2-1.5
	c-19.5,0-47.7-0.6-62.6-1.2C37.2,304,25.6,304.1,19.4,305.7z M13.9,344.9c0.2-1.1,1.6-2.8,3.3-3.7c4.9-2.7,7.8-9.7,7.9-18.9
	c0.1-5.5-0.4-8.4-1.5-10.2l-1.6-2.5l56.6,0.3c31.1,0.2,60.2,0.7,64.6,1.1c5.8,0.6-1.6,0.9-27.5,1.1c-29.5,0.2-49,1.1-44.5,2
	c2.4,0.5,70.9,0,79.3-0.6c7.5-0.5,9.2-0.4,9.3,0.8c0,1.1-3.6,1.4-19.8,1.4c-20.3,0-37.9,0.8-38.8,1.7c-0.3,0.3,13.1,0.4,29.8,0.2
	c18.1-0.2,29.3,0,27.8,0.5c-2.4,0.8-2.4,0.9-0.2,1c2.3,0.1,3.2,2.1,1,2.1c-0.8,0-0.8,0.3,0.2,1c3.2,2.1-1.6,2.6-23.6,2.3
	c-12.5-0.2-22.3,0-22,0.4c0.7,0.7,1.4,0.8,28.4,1.1l18.3,0.2l-0.3,2.2c-0.3,2.1-0.8,2.2-6.8,2.2c-3.6,0-12.3-0.3-19.5-0.7
	c-12-0.6-12.6-0.5-8,0.7c2.9,0.8,10.9,1.4,19.3,1.4c8.8,0.1,14.2,0.5,14.2,1.1c0,1.3-6.5,1.3-32.5-0.1c-17.6-0.9-21.1-1.3-22.2-2.8
	c-1.2-1.5-1.3-1.5-1.3,0.5c0,1.8,0.7,2.3,4.2,2.7c7.1,0.9,31.6,2.1,42,2.1c8.2,0,9.5,0.2,8,1.3c-1.4,1-14.6,1.2-67.4,0.6
	c-43.4-0.5-65.8-0.4-66.2,0.3c-0.8,1.4,36.7,2.3,91,2.3c47,0,45.1,0.2,47.3-5.5c1.4-3.8,1.2-15.6-0.4-18.6l-1.4-2.6l5.1,0.5
	c6.1,0.5,7.7,1.8,6.9,5.5c-0.5,2.4-1,2.8-3.9,2.8c-2.3,0-3.4,0.5-3.4,1.5c0,1.8,4.1,2,5.8,0.3c0.9-0.9,1.2-0.3,1.2,2.8
	c0,5.2-2.3,9.7-6.5,12.9l-3.3,2.5L99,342.2c-35.1,0-66.8-0.3-70.4-0.6c-4.7-0.4-7.3-0.2-9.3,0.9l-2.8,1.5l2.4,0.6
	c1.3,0.3,36.3,0.7,77.8,0.8c78.1,0.2,80.2,0.1,85-3.8c1.7-1.4,5.2-1.7,6.3-0.6c0.4,0.4-2.4,2-6.1,3.7l-6.7,3.1l-68.5,0.3
	c-37.7,0.2-74,0-80.8-0.3C14.2,347,13.6,346.8,13.9,344.9z M149,351.9c-4,0.2-10.7,0.2-15,0c-4.3-0.2-1-0.3,7.2-0.3
	C149.4,351.5,152.9,351.7,149,351.9z M150.3,357.6c-33.2,0.3-39.1,0.6-41.2,2c-3.2,2.1-5.2,2.1-3.5,0.1c1.6-1.9,6-1.8-51.2-1.9
	c-26.8-0.1-49-0.5-49.5-0.9c-1.3-1.3,1.8-2.6,6-2.7c2.1,0,4.5-0.7,5.3-1.5s2.9-1.5,4.7-1.5l3.2,0l-4,2l-4,2l4-0.6
	c5.3-0.8,161.3-0.6,173.3,0.2c6.8,0.5,10,0.3,11.8-0.7c2.1-1.1,2.7-1.1,4.1,0.3c0.9,0.9,1.4,1.9,1.1,2.2c-0.3,0.3-3.5,0.6-7.1,0.8
	c-5.7,0.2-6.3,0.4-4.4,1.4c2.1,1.1,2.1,1.2,0.2,1.9c-1.2,0.5-2.1,0.3-2.3-0.4C196,357.6,188.3,357.2,150.3,357.6z M201.7,376.3
	c-3.3,0.2-6.1,0.3-6.1,0.1c0-1.2,3.3-7.9,5.1-10.4c1.9-2.7,2.6-3,6.8-2.7l4.6,0.3l0.3,7.3c0.2,4.6-0.1,7.9-0.9,8.8
	c-1.3,1.6-15.9,2.1-15.9,0.5c0-0.5,3.2-1.2,7.1-1.6C211.8,377.8,210.8,375.7,201.7,376.3z M203.4,382.9c6.9-0.3,7.8-0.1,8.1,1.5
	c0.2,1,0.2,2,0,2.1c-0.2,0.2-3.8,0.5-8.1,0.7c-7.5,0.4-7.8,0.3-7.8-1.8C195.7,383.4,196.1,383.2,203.4,382.9z M195.7,392.3
	c0-1.5,2.4-2,10.2-2.1c3.9-0.1,6.8,0.3,6.8,0.9c0,0.5-1.1,1-2.4,1c-1.3,0-5.1,0.3-8.5,0.6C197.7,393.2,195.7,393.1,195.7,392.3z
	 M213.5,404.1c-1.8,0-5,0.5-7.1,1.1c-6.3,1.7-7.5,0.7-10.1-8.6c-0.5-1.9,0-2,8.2-2.2c6.5-0.1,8,0,5.7,0.7c-1.6,0.5-5.2,1.3-8,1.8
	c-4.2,0.8-3.7,0.8,3.2,0.4c10.6-0.7,11.2,1.3,0.8,2.2c-10.5,1-9.6,2.8,1.1,2.4c6.3-0.2,8.8,0,9.1,0.9
	C216.7,403.7,215.7,404.1,213.5,404.1z M219.1,397.7c-2.4-2.4-2.5-3-2.5-14.5c0-6.6,0.4-12,0.9-12c0.5,0,1.4,2.1,2.1,4.7
	c1.5,5.9,6.7,14.5,11.9,19.8l4,4l-6.9,0.3C222.3,400.1,221.3,399.9,219.1,397.7z M201,417.3c2.1-1.3,4-2.1,4.3-1.8
	c0.3,0.3,2.2-0.2,4.2-1c13.2-5.6,34.1-9.8,35.7-7.3c0.4,0.6-0.9,1-3.2,1c-2.1,0-5.2,0.7-6.8,1.4c-2.8,1.3-2.3,1.4,7.1,1.5
	c8.4,0.1,10.4,0.4,11.8,1.9c2.9,3.2,2.4,3.2-19,0.2c-7.4-1.1-9-1-16.9,1c-4.8,1.2-10.5,3.1-12.5,4.2c-2.1,1.1-4.8,1.8-6.1,1.6
	C197.4,419.7,197.5,419.4,201,417.3z"/>
<path class="st0" d="M682.6,338.1c-1.2,0-1.7-0.9-1.8-3.1c0-1.7-0.7-3.8-1.4-4.6c-2-2.4-1.8-19.1,0.3-22.8c0.9-1.6,2.3-4.1,3-5.5
	c0.7-1.4,2.1-3.1,3-3.8c3.8-2.8,4.8-4.5,4.8-8.2c0-2.1-0.5-4.2-1.1-4.5c-0.6-0.4-14.9-0.9-31.8-1.2c-16.9-0.3-32.5-0.6-34.7-0.7
	c-2.2-0.1-6.2-0.3-8.8-0.4c-2.6-0.1-4.6-0.6-4.2-1.1c0.3-0.5-13-0.7-33.2-0.4c-27.3,0.4-33.5,0.3-32.6-0.7c0.9-1,9.9-1.3,38.4-1.6
	c34.3-0.3,37.3-0.2,38.5,1.4c1.1,1.5,1.3,1.5,1.8,0.2c1.9-5.9,2.7-38.1,1.2-51.9l-0.9-8.4l2.2,1.4c2.8,1.7,6.1,7.9,6.1,11.7
	c0,1.6,0.7,5.1,1.5,7.8c0.8,2.7,1.5,6.3,1.5,8c0,1.7,0.6,3.6,1.2,4.2c0.9,0.9,0.8,1.2-0.4,1.2c-1.2,0-1.9,1.5-2.6,5.2
	c-0.9,4.7-1,4-1.1-7.2c-0.1-9.4-0.7-13.9-2.1-18l-1.9-5.5l0.5,5.5c1.2,13.1,1.2,23.1,0.1,31.5c-0.7,5-1.5,9.5-1.8,10
	c-0.9,1.5,1,5.7,2.2,5c0.6-0.4,0.8-1.9,0.5-3.3c-0.3-1.5,0.1-4,1-5.7c1.5-3,1.5-3,1,2.2c-0.3,2.9-0.1,5.5,0.4,5.8
	c0.5,0.3,4.7,0.6,9.4,0.7c7.6,0.2,8.8,0,11-2.1c1.4-1.3,2.7-3.9,2.9-6c0.3-2,1-7,1.7-11.2c2-12.5-0.7-42.2-4.2-45.6
	c-0.9-0.9-4-2.1-6.9-2.8l-4.6-1c-0.2,0-0.5,0.1-0.7,0.1c-2,0.7-4,1.3-6.1,1.8c-0.1,0.2-0.3,0.3-0.5,0.3c-0.2,0-0.3,0-0.5-0.1
	c-6.7,1.5-13.7,2-19.8,1.5c-3.1-0.2-10.5,0.2-15.6-1.2l-7.5,0l0-0.8c-0.2,0-0.5,0.1-0.7,0.1c-1,0-1.8-0.2-2.4-0.6
	c-2.6,0.8-13.7,0.9-51,0.9c-59.6,0-54.5-0.8-59.1,9.5c-5.1,11.3-6.5,25.8-3.9,39.5c1.4,7.5,5.3,17.5,6.8,17.5c0.5,0,0.9,0.3,0.9,0.8
	c0,0.4-3.8,0.8-8.4,0.8c-6.9,0-8.8,0.4-10.6,2l-2.1,1.9l-4.4-5.1c-2.4-2.8-7.6-7.7-11.6-11c-7.1-5.8-12.9-13.2-12.9-16.5
	c0-3-6.8-25.4-8.6-28.4c-1.6-2.7-3.7-15.6-2.7-16.6c0.5-0.5,6.8,2.1,14,5.7c11.4,5.6,14,7.4,19.2,13c5,5.3,6,6.9,5.4,8.9
	c-0.4,1.5-0.2,2.5,0.5,2.5c2.4,0,0.9-5.1-2.9-9.8c-4-5.1-14.6-13.3-18.8-14.6c-1.2-0.4-2.2-1.1-2.2-1.6s-0.6-0.9-1.2-0.9
	c-0.7,0-2.6-0.7-4.2-1.6c-6-3.2-11.5-4.6-13-3.4c-1,0.9-3,0.7-8.2-0.9c-9-2.7-21.9-5.1-26.8-5.1c-2.2,0-5.5-0.4-7.2-0.9
	c-2.1-0.6-3-0.6-2.7,0c0.4,0.6-0.4,0.7-2,0.3c-1.9-0.5-3-0.2-4.1,1.2c-0.8,1.1-1.4,1.3-1.4,0.6c0-0.7-1.3-1.2-3.1-1.2
	c-1.7,0-2.8,0.4-2.5,0.9c0.9,1.5,6.7,2.2,8.9,1c1.6-0.8,2.2-0.8,2.5,0c0.2,0.6,0.8,1.1,1.4,1.1c0.5,0,0.7-0.5,0.4-1
	c-0.8-1.3-0.5-1.3,9,0.4c9.9,1.8,18,4.6,25.2,8.7c4.8,2.7,5.8,3,8,2c1.4-0.6,2.8-0.9,3.1-0.6c0.3,0.3-0.2,0.8-1.1,1.1
	c-2,0.8-2.1,3-0.3,4.1c3.3,1.9,12,30.2,9.6,31.1c-0.5,0.2-0.5,1.5,0,3c1.5,4.7,3,18,3,27.7c0,8.2-0.4,10.1-3,16.1
	c-1.7,3.7-3.3,6.5-3.6,6.2c-0.3-0.3,0.2-2,1.1-3.7s1.4-3.4,1.2-3.6c-0.2-0.2-1.2,1.3-2.2,3.3c-3,6.3-5.5,9.3-10.6,12.5
	c-2.7,1.6-4.9,3.1-4.9,3.2s1.6,0.1,3.5,0.1c4.7-0.2,12.2-6.5,15.7-13.4c3.5-6.8,4.1-7.4,3.3-2.8c-0.5,2.8-0.1,5.3,1.5,9.8
	c3.7,10,2.3,15.6-6.7,26.9c-2.6,3.3-2.4,3.2,3.4-1.3c3.7-2.9,6.4-5.9,6.9-7.5c0.7-2.6,0.8-2.5,3.1,2.3c2.4,5.2,3.5,3.5,1.3-2.2
	c-0.6-1.5-1.7-6.6-2.4-11.3c-0.7-4.7-1.6-9.6-2-11l-0.6-2.5l2.2,2.8c1.2,1.5,2.6,2.8,3.1,2.8c0.5,0,0.1-1.2-0.9-2.8
	c-1.8-2.6-4.1-18.4-4.8-32.7c-0.2-3.4-0.8-5.4-2-6.2c-1-0.7-1.5-1.6-1.1-1.9c0.6-0.6,5.9,4,17.3,15.1c6.3,6.1,13.4,16.2,13.4,18.9
	c0,0.8,0.9,4.1,1.9,7.3c2.6,7.8,3.4,19.7,2.1,31.8c-0.9,8.3-1.6,10.8-4,14.8c-1.6,2.6-3,5-3,5.2c0,0.2,1,0.3,2.1,0.2
	c1.3-0.1,3.1-1.7,4.5-3.9c1.9-3,3-3.8,5.4-3.8c5.6,0,11.1,4.3,13.3,10.5c0.5,1.5-0.2,1.1-2.7-1.3c-3.7-3.6-10-6.1-9.1-3.6
	c0.3,0.8,1.3,1.4,2.2,1.4c0.9,0,3.9,2.3,6.6,5l5,5l0.4,9c0.4,9.4-0.9,14.9-3.5,14.9c-0.8,0-1.4,0.4-1.4,0.9c0,0.5-1.8,2.9-4,5.4
	c-2.2,2.5-3.7,4.7-3.5,5c0.3,0.3-1.7,1.9-4.3,3.5c-9.5,5.8-38.1,9.6-43.9,5.8c-2.9-1.9-5.4-1.9-5.4,0c0,0.9,0.9,1.5,2.3,1.5
	c1.3,0,2.8,0.5,3.4,1.1c0.6,0.6,2.5,1.1,4.2,1.2c1.7,0,3.1,0.5,3.1,1s0.6,0.6,1.2,0.1c1.2-0.7,6.7-1.5,21.2-2.9
	c3.5-0.3,8.5-1.8,12.1-3.5c6.9-3.3,8.6-3.5,10.3-1.5c2,2.5,0.2,3.7-4.4,3c-5.2-0.8-6.9,1-2.3,2.4c5.2,1.6,12.7,1.2,14.7-0.7
	c1.6-1.6,1.6-1.9-0.2-5.5c-2.3-4.5-3.4-4.2-1.8,0.4c1.4,4.1,1.4,4.9-0.2,4.9c-0.8,0-2.2-2.1-3.1-4.6c-1.5-4-1.6-4.9-0.4-7.2
	c1.9-3.7,3.1-4.3,5-2.5c0.9,0.8,2.5,1.3,3.5,1.1c1.6-0.4,1.6-0.6-0.4-1.2c-1.2-0.4-2.2-0.8-2.2-0.9s0.9-2.8,2-6
	c1.3-3.8,2-8.4,2-13.4c0-5.8,0.5-8.5,2-11.1c5.7-9.9,6.1-11,4.6-11c-0.8,0-2.3,1.5-3.2,3.2l-1.7,3.2l-0.8-4.5c-0.8-4.5-3.6-8-6.4-8
	c-2.1,0-1.7,2.3,0.6,3.8c1.5,0.9,2,2.3,2,5.5c0,2.4,0.6,4.9,1.2,5.6c1,1.1,1,1.2-0.2,0.9c-0.9-0.3-1.7-2.1-2-4.4
	c-0.3-2.2-1.7-5.5-3.2-7.5c-1.5-2-2.8-4.1-2.8-4.7c0-0.6-1.2-1.2-2.8-1.2c-5.7,0-10.2-1.2-10.2-2.7c0-1.2,0.9-1.4,4.2-0.9
	c10.8,1.6,11.8,1.6,11.8,0.2c0-1.5-1.3-2.1-7.5-3c-6.8-1.1-7-1.4-7.1-16.5c-0.1-7.5-0.6-15.1-1.3-17.1c-2.1-6.3-2.3-11.7-0.6-14.1
	c2-2.9,2-5.9,0-5.1c-0.8,0.3-1.5,1.4-1.5,2.5c0,2.3-1.5,2.5-2.4,0.4c-0.3-0.9,0.3-2.1,1.8-3c4.3-2.8,162.4-1.7,207.6,1.4
	c9.5,0.7,11.7,0.6,12.6-0.6c0.9-1.2,1.2-1.2,2.3,0.1c0.7,0.8,1.1,2.4,0.9,3.3c-0.5,2.8-14.4,3.1-21.2,0.4c-4.7-1.9-8.4-2-53.6-2.6
	c-26.7-0.4-49.8-0.6-51.5-0.6s-13.1,0.3-25.5,0.7l-22.5,0.6l-3.2,3c-9,8.6-12.9,26-8.3,36.7c3.5,8.2,6,10.1,14.6,11.4
	c6.8,0.9,7.7,0.9,11.1-1.1l3.8-2.1l5.6,2.1l5.6,2.1l6.1-2.1c3.4-1.2,8.5-2.1,11.3-2.1c5.7,0,18.9,2.5,21.9,4.1
	c1.2,0.7,9.3,0.7,24.1,0c12.2-0.5,34.2-0.9,48.7-0.8c27.3,0.2,31.5,0.8,30.8,4.3c-0.5,2.2-84.1,2-107.2-0.2
	c-8.8-0.9-18.9-1.3-22.5-1c-11.5,1-43.5,2.3-44.5,1.7c-0.5-0.3-0.1-0.8,1-1.3c1.5-0.6,1.2-0.8-1.3-0.8c-3.8-0.1-4.3,1.8-1.4,5.4
	c1.2,1.5,2.3,2,3.1,1.5c0.7-0.4,10.4-0.8,21.4-0.8c11.1,0,21.9-0.4,24.1-0.9c2.2-0.5,8.7-0.5,14.5-0.1c5.8,0.4,29,1,51.5,1.3
	c46.9,0.7,57.3,1.2,53.5,2.8c-3.4,1.4-103.2,2.8-127,1.8c-4.9-0.2-9.6,0.1-11.2,0.8c-4,1.7-12.8,2.7-12.8,1.4c0-0.6-0.7-1.3-1.6-1.6
	c-1-0.4-1.3-0.2-0.9,0.5c0.5,0.8,0.1,0.8-1.4,0c-4.7-2.5-15.2-0.6-18.3,3.3c-5.8,7.3-7.6,7.9-4.3,1.4c1.6-3.2,1.3-5.9-0.7-5.9
	c-0.9,0-0.9,0.4,0,1.4c0.8,1,0.8,1.6,0.1,2.1c-2.3,1.4-7.2,14-6.6,17c0.3,1.7-0.1,5.2-0.9,7.9c-0.8,2.7-1.5,6.7-1.5,8.9
	c0,4.7,5.6,16.8,8.1,17.4c0.9,0.2,2.3,1.6,3,2.9c2.3,4.3,6.4,5.7,13.3,4.7c3.3-0.5,25.7-0.9,49.7-0.9c40.8,0,43.8,0.1,45.7,1.8
	c1.2,1.1,2.3,1.4,2.6,0.8c0.3-0.5,0.2-1.3-0.4-1.6c-1.3-0.8-1.3-2.5,0-2.5c0.6,0,1.5,1.1,2.2,2.5c0.8,1.9,1.4,2.2,1.9,1.2
	c0.8-1.5,16.3-1.7,22.9-0.4c3,0.6,3.1,0.5,1.1-0.3c-1.3-0.6-2.2-1.3-1.9-1.6c2.1-2.1,36.7-0.6,41,1.7c1.5,0.8,1.8,0.5,1.8-2
	c0-2.4-0.5-3-2.8-3.4c-1.5-0.3-36.8-0.5-78.4-0.6c-53.5-0.1-77.2,0.2-81,1.1c-11.2,2.4-13.4,1.2-19.3-10.6c-3.6-7-3.7-7.5-3.3-16.2
	c0.5-10.1,1.8-14.2,6.6-20.3c5.6-7.1,14-10.1,18.6-6.6c2.7,2,14.2,1.9,19.1-0.1c3-1.2,5.5-1.4,10.9-0.9c11.4,1.1,87.2,1.6,85.5,0.5
	c-0.9-0.6,6.3-0.8,19.8-0.7c17.3,0.2,21.2,0,21.2-1.1c0-0.8,0.8-1.2,1.8-1c1.1,0.2,1.8,1.3,1.8,2.8v2.5l-16,0.5
	c-12.6,0.4-70.6,0.3-117-0.3c-3.3,0-9,0.7-12.7,1.6c-6.3,1.6-6.9,1.6-11,0c-5.6-2.2-12.7-2.2-16.1,0.1c-7.1,4.6-11.6,17.2-10.3,28.9
	c0.6,5.9,1.1,6.9,5,10.8c8.2,8.2,8.3,8.3,10.2,6.7c1.4-1.2,11.2-1.4,57.3-1.4c30.6,0,60.8,0.3,67.1,0.6c6.3,0.3,9.9,0.4,8,0.2
	c-1.9-0.2-4-0.9-4.5-1.4c-0.7-0.7,5.5-0.8,18.3-0.5c16.3,0.5,19.6,0.8,21.8,2.3c2,1.4,2.4,2.5,2.2,5c-0.3,3.5,0.9,4.4,2,1.5
	c0.4-1,1-2,1.4-2.3c0.4-0.3,0.1-2-0.6-3.8c-1.5-3.5-6.2-6.2-11.2-6.2c-4.9-0.1-6.2-2-6.9-10.1c-1.2-13.2-0.8-18.1,2.1-24.2
	c1.5-3.3,2.1-3.6,7.2-4.2c3-0.4,6.1-1.3,6.9-2.1c2.4-2.4,1.8-6.9-1.2-9.2l-2.6-2.1h2.5c3,0,4.5-1.6,5.4-5.9c0.5-2.5,0.2-3.7-1.7-5.7
	C685.3,339.2,683.6,338.1,682.6,338.1z M631.3,221.1c1-1,14.2-2.8,16.1-2.1c0.7,0.2,1.5,1.6,1.8,3.1c0.3,1.5,1.2,5,2,7.8
	c1.7,6.2,1.9,31.9,0.3,39.3c-1.3,5.9-3.7,8-9.2,8c-3.6,0-3.8-0.1-3.2-2.8c0.3-1.5,1-3.9,1.4-5.2c0.5-1.4,1.1-4.6,1.5-7.2
	c0.3-2.6,1-4.8,1.5-4.8c1.9,0,3,2.9,2.5,6.6l-0.5,3.9l1.6-3.4c2.2-4.9,2-7-0.9-7.7l-2.5-0.6l0-13.1c0-7.2-0.5-13.8-1-14.6
	c-0.7-1.1-1-0.4-1,2.7c0,2.3-0.4,4.5-1,4.8c-1.6,1-4,6.5-3.1,7c0.5,0.3,1.1,0.1,1.5-0.5c3.2-5.1,3.2,8.7,0,24
	c-1.8,8.8-3.6,12.2-5.5,10.4c-1.3-1.3,0.6-15.5,2.2-16.5c2-1.2,2.2-12.1,0.4-15.7c-0.9-1.7-1.6-4.4-1.6-6s-1-5.9-2.1-9.6
	C631.3,224.7,630.8,221.6,631.3,221.1z M502.9,280.3c-0.7,0.7-5.1,1.4-10.2,1.6c-7.8,0.4-9,0.2-9-1.2c0-1,0.9-1.7,2.2-1.7
	c2.2-0.1,2.2-0.1-0.2-0.8c-5.3-1.5-3-3.8,3.2-3.2c1,0.1,1.8-0.3,1.8-0.9c0-0.6-0.5-1.1-1.1-1.1c-0.6,0-0.7-0.5-0.3-1.2
	c0.5-0.8-0.4-1-3.3-0.5c-3.2,0.5-4.4,0.3-5.8-1.3c-2.2-2.5-5.5-14.2-5.5-19.7c0-5.7,2.4-16.8,4.9-22.6c2.2-5.1,3.7-5.7,8.1-3.2
	c3.5,2,4.3,1.8,3-0.5c-0.6-1.1-2.3-2.5-3.8-3.1c-2.1-0.8-2.4-1.2-1.2-1.9c3-1.9,5.7-1.1,6.8,2c0.6,1.7,1.7,4.5,2.4,6.2
	c1.8,4.6,1.8,46.8,0,49c-1.1,1.3-0.9,1.6,1,2.1c1.2,0.3,3.6,0.6,5.2,0.6C503.4,279.1,503.8,279.4,502.9,280.3z M506.4,274.9
	c-0.2-0.7,0.3-4.3,1.1-8l1.5-6.8h4.2c2.3,0,4.5-0.5,4.8-1c0.4-0.6-1.3-1-4.4-1c-3.7,0-5.3-0.5-6-1.8c-0.9-1.5-1-1.3-1.1,1.2
	c-0.1,6-3.5,18-5,18c-1.1,0-1.4-1.1-1.3-4c1.8-35.7,1.7-37.9-2.3-50.8c-0.5-1.6,0.5-1.8,11.5-1.8c11.1,0,12,0.1,12.6,2
	c0.3,1.1,1.2,2,1.8,2.1c0.7,0,2.5,0.2,4.2,0.2c2.8,0.1,3,0.5,3.7,5.2c1.3,9.3,2.1,38.9,1.1,42.5c-0.5,2-1.7,3.6-2.6,3.8
	c-1.4,0.3-1.5-0.1-0.7-2.3c1.1-2.9,1.4-39.3,0.4-44.4c-0.3-1.7-1-3.1-1.4-3.1c-1.6,0-1.8,3-0.4,7.6c2,6.6,1.9,7.6-0.8,7.3
	c-2-0.3-2.4-1.2-3.3-7.6c-1.5-9.8-3-11.2-10.8-10.4c-3.6,0.4-6.1,1.2-6.4,2c-0.4,1.1,0.7,1.2,5.6,0.7c4.4-0.5,6.2-0.4,6.8,0.6
	c0.4,0.7,1.1,4.7,1.5,8.8c0.4,4.2,1.1,10.6,1.5,14.3c0.9,8-1.2,24.2-3.3,26.3C517.1,276.5,507.1,276.7,506.4,274.9z M525.2,244.1
	c-0.5-2.5-0.4-3.1,0.6-2.8c1,0.3,1.4,3.5,1.7,12.9c0.3,12.8-0.9,20.4-3.4,21.3c-1,0.4-1.4-0.3-1.4-2.5c0-1.7,0.4-2.8,0.9-2.5
	C524.7,271.3,526.1,248.4,525.2,244.1z M536.6,281.6c-0.8,0.8-18.9-0.7-18.9-1.5c0-2,16.3-2.1,18.2-0.1
	C536.5,280.6,536.8,281.3,536.6,281.6z M536.2,259.3c-1-25.3-2.2-36.4-4-37.4c-0.9-0.5-1.6-1.3-1.6-1.8c0-1.2,83.8-1.2,86.5,0
	c1.4,0.6,1.5,0.9,0.5,1c-1,0.1-0.9,0.4,0.5,0.9c1.6,0.6,2.2,2.3,3.2,9.2c2.2,15.6,1.1,39.8-1.9,43.7c-0.8,1-9.9,1.2-39.6,1.2
	c-21.2,0-39.6-0.3-40.8-0.6C537,275,536.8,274.2,536.2,259.3z M621.7,293.4c23.4,0,41.4,0.3,40,0.7c-3.5,1-56.9,1.1-71,0.2
	C582.7,293.7,592.3,293.4,621.7,293.4z M659.7,303.1c0,4.4-0.2,4.8-2,4.3c-1.6-0.4-2-1.4-2-4.8c0-4,1.3-5.9,3.2-4.8
	C659.3,298.1,659.7,300.4,659.7,303.1z M639.7,302.1c-0.5,0-1-0.4-1-0.9c0-0.5-2.1-0.8-4.7-0.5c-2.6,0.2-5.6-0.1-6.8-0.8
	c-2-1.1-2-1.2,0.9-1.8c4-0.9,9-1,10.9-0.3C640.8,298.4,641.3,302.1,639.7,302.1z M634.9,339c-23.5,0.1-44.6,0.5-46.9,0.8
	c-2.9,0.4-6.2-0.1-11-1.7c-7.4-2.4-10.4-4.8-10.4-8.6c0-3.9-1.9-2.7-2.2,1.4l-0.3,3.8l-7.5,0.5c-4.1,0.3-9.3,1.3-11.5,2.3
	c-3.8,1.6-4.2,1.6-9.4-0.3l-5.4-2l-4.4,2.2c-5.3,2.7-7.8,1.7-7.7-3.1c0-4.1-1.3-4-1.7,0.1c-0.2,2.5-0.8,3.3-2.6,3.6
	c-3.4,0.5-6.7-2.1-9.2-7.3c-1.9-3.9-2.2-5.9-1.9-13.9c0.3-8.5,0.6-9.7,3.3-13.1c2.7-3.5,3-3.7,3.7-1.8c0.8,2.3,2.9,4,2.9,2.4
	c0-0.5-0.5-2.2-1-3.7c-0.8-2.2-0.7-3.1,0.7-4.6c2.2-2.4,3.7-2.4,2.9,0.1c-0.3,1.1-0.2,2.7,0.2,3.5c0.7,1.2,1.2,0.8,2.6-2.1
	c1.3-2.8,2.1-3.5,3.4-2.9c4.1,1.7,12.6,2.2,43.2,2.3c20.3,0.1,32.6,0.5,32.8,1.1c0.2,0.5,4.4,1,9.5,1.1c5,0,11,0.7,13.2,1.4
	c3.7,1.2,3,1.3-10.3,1.4c-9.3,0.1-14.1,0.5-13.7,1.1c0.4,0.6,9.3,1,23.6,1h22.9v-3.5c0-4.7,2-4.5,2.2,0.2l0.2,3.8l0.5-3.5l0.5-3.5
	l0.7,4.5l0.7,4.5l0.1-4.8c0.2-5.7,2.2-5.5,2.2,0.2c0,2.7,0.4,3.8,1.5,3.8c0.8,0,1.5-0.9,1.5-2c0-2.5,0.5-1.9,1.3,1.3l0.6,2.5
	l-34.7-0.3c-19.1-0.1-35.2-0.5-35.9-0.7c-0.6-0.2-1.4-1.5-1.6-2.7c-0.4-2.1-0.5-2.1-0.6,0.4c-0.1,1.5,0.3,3,0.9,3.3
	c0.6,0.3,16.6,0.8,35.8,1.1c19.1,0.2,39.1,0.7,44.5,0.9c10.7,0.6,13.4-0.9,3.8-2l-6-0.7v-5c0-6.1,1.9-5.6,2.2,0.5l0.1,4.2l0.7-4.5
	c0.7-4.5,1.6-4.1,2.2,0.9c0.5,4.3,2.8,3.7,2.8-0.8c0-4.4,0-4.4,2.4-3.5c1.1,0.4,1.4,1.4,0.9,3.7c-0.6,3-0.5,3,1,1.5
	c0.9-0.9,1.7-2.3,1.7-3.1c0-0.8,1-1.7,2.2-2.1c4.8-1.3,5.1-0.6,1.5,3.2c-3.3,3.4-3.8,4.6-4.7,11.2c-0.5,4.1-1,7.8-1,8.2
	c0,0.4-5.7,0.8-12.5,1c-16.6,0.4-16.2,2.2,0.5,2.4l12.5,0.2l0.5,4.3c0.3,2.4,1.3,5.5,2.2,6.9l1.7,2.6L634.9,339z M646.2,404.6
	c-0.5-0.2,3.8-0.4,9.7-0.4c5.9,0,10.9,0.3,11.2,0.8C667.5,405.7,648.5,405.4,646.2,404.6z M666.1,368.7c-0.9,2.1-2,5.7-2.4,7.9
	c-0.4,2.2-1.2,3.9-1.8,3.8c-1.9-0.4-51.6-0.2-54.8,0.2c-1.7,0.2-3.4,0.4-3.9,0.4c-0.5,0-0.6,0.3-0.3,0.7c0.3,0.3,13.7,0.7,29.8,0.9
	c16,0.2,29.3,0.5,29.5,0.7c0.2,0.2,0.5,1.9,0.7,3.8l0.3,3.5l-34.2-0.1c-18.8,0-34.2,0.2-34.2,0.6c0,1.4,8.3,2,37.8,2.7
	c16.7,0.3,30.4,0.9,30.6,1.2c0.2,0.3,0.6,1.9,1,3.5l0.7,2.9l-31.3-0.6c-17.2-0.3-39.3-0.9-49-1.2c-10.7-0.4-17.8-0.2-17.8,0.3
	c0,0.8,37.9,2.7,70,3.5c3.6,0.1-12.2,0.5-35,0.9c-22.8,0.4-46.9,0.9-53.5,1.1c-6.6,0.2-13.5,0.1-15.3-0.3c-2.1-0.5-4.7-0.1-7.3,0.9
	c-3.9,1.5-4.1,1.5-6.5-0.8c-1.6-1.5-2.4-3.1-2-4.3c0.3-1.1,0.1-1.5-0.4-1c-0.5,0.5-1,2.1-1.2,3.6l-0.3,2.7l-3.8-1.8
	c-2.1-1-3.8-1.6-3.8-1.3c0,0.3-0.9-0.3-2-1.3c-1.1-1-2.7-4.1-3.5-6.8c-3.4-11.5-0.5-22.7,7.3-27.9c2.2-1.5,3.8-1.7,9.7-1.1
	c3.8,0.4,9.7,0.5,13,0.3c14-0.8,47.4-0.4,65,0.7c13,0.9,21.3,1,26.5,0.3c4.1-0.5,15.7-1.3,25.8-1.7l18.3-0.7L666.1,368.7z"/>
<path class="st0" d="M469.3,298.3c0.5,0.3,1.9-1.4,3.1-3.8c2-4,2.1-4.4,0.4-4.4c-1,0-2.7,1.2-3.8,2.8c-2.9,4-3.7,9.3-1.8,12
	c0.9,1.2,2,2.2,2.6,2.2c1,0,0.8-1.7-0.8-6.9C468.7,298.8,468.7,298,469.3,298.3z"/>
<path class="st0" d="M474.7,306.6c1,0,1.7-1.5,2.1-4.6c0.4-2.5,1.4-6,2.3-7.7c0.9-1.7,1.6-3.4,1.6-3.7c0-1.4-2-0.3-3.9,2.1
	c-2.3,2.9-4.4,9.5-3.9,12.2C473,305.9,473.8,306.6,474.7,306.6z"/>
<path class="st0" d="M485.9,400.1c-2.2-1-4.3-1.6-4.6-1.3c-0.3,0.3,0.5,1.4,1.8,2.4c1.3,1,2.7,3,3,4.5c0.4,1.4,0.9,2.4,1.2,2.1
	c0.3-0.3,1.4,0.4,2.4,1.6c1,1.2,1.9,1.8,1.9,1.3c0-0.5,0.7-0.3,1.5,0.4c2,1.6,1.9,1.4-0.9-4.3C490.5,403.1,489,401.5,485.9,400.1z"
	/>
<path class="st0" d="M197.7,373.6c0,1.6,3.4,2,8.9,0.9c5.2-1,3.5-2.4-2.9-2.4C199,372.1,197.7,372.5,197.7,373.6z"/>
<path class="st0" d="M170.9,317.6c0.1-0.5-1.5-1.1-3.5-1.2c-2.5-0.1-3.7,0.2-3.4,1C164.4,318.9,170.6,319,170.9,317.6z"/>
<path class="st0" d="M644.9,225.6c3.4,0.2,3.7,0,2.4-1.3c-0.8-0.8-3.9-1.6-6.8-1.9l-5.3-0.4l2.9,1.7
	C639.7,224.6,642.8,225.5,644.9,225.6z"/>
<path class="st0" d="M646.9,240.4c-0.7-0.2-1.2,0.2-1.2,0.9c0.3,4.9,2.8,15.1,3.3,13.8C650.1,252.7,648.3,240.9,646.9,240.4z"/>
<path class="st0" d="M636.3,226.8c-1,1-0.8,4.1,0.4,4.9c1.7,1,3.2-1.1,2.4-3.5C638.5,226.1,637.5,225.6,636.3,226.8z"/>
<path class="st0" d="M134.2,321.9c7.4-0.3,7.1-0.4-4-0.8l-12-0.4l15-0.6l15-0.6l-19.2-0.2c-11.1-0.1-19.3,0.2-19.3,0.7
	C109.7,321.3,124.2,322.4,134.2,321.9z"/>
<path class="st0" d="M182.5,320.6c-1.2,1.9-2.1,12.8-1,12.1c0.6-0.4,1.3-2.1,1.7-4C183.9,324.9,183.5,319.2,182.5,320.6z"/>
<path class="st0" d="M113.5,274.9c-0.2-1.7-1.1-2.3-3.6-2.6c-1.8-0.2-3.2,0.1-3.2,0.5c0,0.4,0.9,1.9,1.9,3.2
	C110.8,279,114,278.3,113.5,274.9z"/>
<path class="st0" d="M180.3,256.1c-0.3,0-0.6,0.8-0.6,1.8c0,1-0.5,2.3-1.2,3c-1.4,1.4-1.2,8.2,0.3,9.6c0.6,0.6,1,0.4,1-0.5
	c0-0.8,0.3-4.3,0.6-7.7C180.6,258.9,180.6,256.1,180.3,256.1z"/>
<path class="st0" d="M140.7,266.6c5.8,0,8.5-0.4,8.7-1.2c0.3-0.9-1.9-1.2-8.8-1.2c-6.9,0-9.1,0.3-8.7,1.2
	C132.2,266.2,134.9,266.6,140.7,266.6z"/>
<path class="st0" d="M122.7,271c-0.5-4.5-0.9-5.4-2.7-5.6c-1.2-0.2-2.5,0.2-2.9,0.9c-0.9,1.4,1.4,8.6,3.2,10.1
	C122.5,278.1,123.2,276.5,122.7,271z"/>
<path class="st0" d="M401.6,67.6c0.5,0.3,3.8-1,7.4-2.9c5.4-2.9,7.9-3.5,14.4-3.9c4.3-0.3,9.4-1.2,11.3-2l3.4-1.5l-5.5,0.5
	c-3,0.3-7.3,0.7-9.5,1l-4,0.5l3-1.6c1.7-0.9,5.4-2.5,8.2-3.6c5.5-2.1,7.7-3.9,4.6-3.8c-1,0-5.4,1.3-9.8,2.9c-11.7,4.2-15.6,6-15.1,7
	c0.3,0.5-1.5,1.6-3.9,2.5C402,64.2,399.8,66.5,401.6,67.6z"/>
<path class="st0" d="M366.7,329.4c0,2.3,2.4,1.1,4-1.9c0.8-1.5,2.2-2.4,3.6-2.4c1.6,0,4.2-2.5,9.6-9.3c9.2-11.7,11.5-16.4,12.4-25.5
	c0.6-6.9,0.1-9.8-1-5c-0.3,1.2-1,4.4-1.5,7.1c-1.8,8.3-5.4,13.8-16.4,24.8C371.4,323.1,366.7,328.6,366.7,329.4z"/>
<path class="st0" d="M371.6,264.6c2.8-2.8,6.1-10.9,6.1-15c0-6.4-1.5-5.5-2.9,1.8c-0.7,3.4-1.8,7.5-2.6,9.1
	C370.4,263.7,370.2,266,371.6,264.6z"/>
<path class="st0" d="M423.7,329c1.9-0.6,7.2-10.4,6.8-12.6c-0.2-1.2-1-0.3-2.1,2.7c-1,2.4-2.7,5.8-3.9,7.4
	C423.2,328.2,422.9,329.2,423.7,329z"/>
<path class="st0" d="M401.6,284.6c-0.1-5.3-1.2-9.5-2.1-7.9c-0.3,0.5-0.3,4.2,0,8.3C400,293.1,401.7,292.9,401.6,284.6z"/>
<path class="st0" d="M395.7,305.3c0,0.5-2.1,3.6-4.6,6.9s-4.4,6.2-4.2,6.3c0.2,0.1,4.6-4,9.9-9.2c5.2-5.2,8.5-8.9,7.3-8.3
	c-1.2,0.6-2.5,1.6-2.8,2.1s-1.1,1-1.6,1s0.6-2,2.6-4.4c2-2.4,3.6-5,3.6-5.8c0-0.8,0.4-1.9,1-2.4c3.7-3.7,1.2-19-3.7-23.6l-2.5-2.3
	l2,4c4.3,8.5,5.1,18.5,1.7,21.9c-0.7,0.7-1.5,2.2-1.9,3.3c-0.4,1.2-2,3.8-3.6,5.8C397,302.7,395.7,304.8,395.7,305.3z"/>
<path class="st0" d="M398.7,314.1c2.8-3.3,5.6-5.7,6.1-5.4c0.5,0.3,1.2-0.1,1.5-1c0.3-0.9,1-1.3,1.5-1c0.5,0.3,2-0.2,3.3-1.1
	c2.7-1.8,8.1-8.3,7.4-9c-0.2-0.2-1.4,0.9-2.6,2.5c-1.2,1.6-4.7,4.1-7.7,5.5c-5.1,2.4-23.5,17.6-23.5,19.5
	C384.7,326.2,394,319.5,398.7,314.1z"/>
<path class="st0" d="M352.5,255.4c-3,6.1-5.4,10.5-6.8,12.2c-1.4,1.7-3.5,2.1-2.5,0.5c0.3-0.5,0.4-1,0.1-1c-0.9,0-6.6,10.4-6.6,11.9
	c0,0.8,2.8-1.5,6.2-5c6.1-6.3,11.1-14.1,12.8-19.9C357,249.6,354.9,250.4,352.5,255.4z"/>
<path class="st0" d="M360.2,252.1c-0.8,0-1.9,1.6-2.6,3.5c-1.5,4.5-5.6,11.9-7.5,13.5c-0.8,0.7-1.5,1.6-1.5,2.2c0,1.3,6-3,9.2-6.6
	c3-3.4,3.5-5.2,1.5-5.8c-0.9-0.3-1-0.8-0.2-1.8C361.2,254.5,361.7,252.1,360.2,252.1z"/>
<path class="st0" d="M379.9,265.8c3.9-3,7.5-8.9,8-13.2c0.5-4.4-1.9-4-2.7,0.5c-1.1,6.5-3.1,7-2.7,0.6c0.2-3.4-0.2-6.4-1.2-8.2
	c-1.4-2.8-1.5-2.6-1.4,4.6c0.2,9.3-1.2,12.2-10.2,20.9l-6.6,6.4l4.9-2.7c2.7-1.5,5.6-3.5,6.5-4.4
	C375.5,269.3,377.9,267.3,379.9,265.8z"/>
<path class="st0" d="M363.9,299.9c1.5-2.3,3.7-5.5,4.9-7c2.6-3.3,2.1-4.6-0.5-1.4c-1,1.2-2.8,3.8-4,5.7c-1.6,2.6-2.2,3.1-2.5,1.8
	c-0.5-2.4-2.2-2.2-2.2,0.2c0,1.1-0.3,2.6-0.6,3.5C357.8,305.9,361.3,304,363.9,299.9z"/>
<path class="st0" d="M358.8,278.2c0.4,1.1,7.8-8.2,7.8-9.8c0-0.6,0.9-3,2-5.4c2-4.3,2.7-13.3,1.2-14.2c-0.4-0.3-1.3,2.3-2,5.8
	c-0.7,3.4-3,9.9-5.3,14.5C360.4,273.5,358.7,277.6,358.8,278.2z"/>
<path class="st0" d="M423.6,268.7c0-3.7-0.2-3.9-1.2-2.1c-1.1,1.8-1.3,1.6-1.8-2.5c-0.3-2.5-0.4-0.5-0.2,4.5c0.3,5.7,0,9.5-0.7,10.5
	c-0.9,1.2-1,0.6-0.6-2.4c0.3-2.1,0.3-3.6,0-3.4c-0.8,0.8-4.6,14.9-4.2,15.3c0.6,0.6,6.3-8.7,7.6-12.5
	C423.1,274.4,423.6,271,423.6,268.7z"/>
<path class="st0" d="M344.3,231.7c-1.6,0.4-3.9,0.2-5.2-0.4c-1.3-0.6-2.4-0.7-2.4-0.2c0,1.8-3.3,2.1-5.1,0.5
	c-1.5-1.3-2.1-1.4-3.3-0.4c-1.2,1-1.9,0.9-3.7-0.4c-1.2-0.9-3.5-1.6-5.1-1.6c-1.6,0-3.1-0.7-3.4-1.5c-0.3-0.8-1.4-1.5-2.4-1.5
	c-1,0-4.1-1.3-6.9-3s-5-2.6-5-2.1c0,1.3,7.2,7,8.9,7c0.8,0,2.4,0.8,3.5,1.9c2.3,2,13.7,4.8,15.5,3.7c0.6-0.4,1.1-0.2,1.1,0.4
	c0,1.4,13.8,0.6,15.3-0.9c0.6-0.6,2.3-1.1,3.9-1.1c3.6,0,3.6-1.8,0-2.6c-1.5-0.4-3.3-1.1-4-1.7c-0.7-0.6-1.6-0.7-1.9-0.4
	c-0.4,0.4,0.2,1.3,1.3,2.1C347.1,230.9,347,231,344.3,231.7z"/>
<path class="st0" d="M335.2,348.8c1,0,1.5-1.1,1.6-3.1l0.1-3.1l1.1,3.6c0.6,2,1.9,4.7,2.9,6l1.8,2.4l-0.6-3.5
	c-0.6-3.7-4.4-16-4.9-16c-0.2,0-0.8,1.9-1.4,4.2C333.7,347.9,333.6,348.8,335.2,348.8z"/>
<path class="st0" d="M346.6,352.3c1-1.6,3.1-0.7,3.1,1.3c0,0.7,0.7,2.6,1.5,4.2l1.5,2.9l0-3c0-1.7-0.9-5.8-1.9-9.2
	c-3.3-10.4-1-17.5,9.3-29.2c9-10.3,14.6-22.2,16.4-34.7c0.2-1.7,0-3.4-0.5-3.7c-0.6-0.3-1.3,2-1.7,5.6c-0.5,4.6-1.8,8.3-5.1,14.3
	c-2.4,4.5-5.1,8.7-5.9,9.4c-1.9,1.6-11.9,15.8-12.9,18.5C347.1,336.5,344.1,356.2,346.6,352.3z"/>
<path class="st0" d="M278.1,104.5c2-0.9,3.6-2.1,3.6-2.5c0-1.1-0.9-0.9-4.2,0.8c-1.5,0.8-3.2,2.3-3.8,3.4c-0.6,1.1-2.1,1.9-3.5,1.9
	c-1.4,0-3.8,1.3-5.5,2.9c-3,2.9-3,2.9-0.8,3.5c1.5,0.4,3-0.1,4.3-1.3c1.1-1,3.2-2.2,4.7-2.5c2-0.5,2.5-1.1,2.1-2.5
	C274.6,106.7,275.4,105.8,278.1,104.5z"/>
<path class="st0" d="M366.5,317.9c-2.3,2.7-7.1,11.4-6.5,11.9c0.3,0.3,2-1.9,3.8-4.8c3.3-5.2,5.1-8.8,4.5-8.8
	C368.1,316.1,367.3,316.9,366.5,317.9z"/>
<path class="st0" d="M343.7,328.3c0-1,1.5-3.8,3.4-6.2c5.4-7.1,7.4-11.9,7.4-17.4c0-2.8,0.3-6.1,0.7-7.4c0.6-1.7,0.4-2.3-0.5-1.9
	c-0.7,0.2-1.8,2.3-2.5,4.6c-0.7,2.3-0.8,3.9-0.3,3.6c0.5-0.3,0.9,0.9,0.9,2.8c0,2.2-1.6,5.8-4.8,10.7l-4.7,7.4l-0.6-3.9
	c-0.3-2.2-0.7-3.2-0.8-2.4c-0.1,0.9-0.8,0.3-1.8-1.5c-2.5-4.8-22.4-24.3-22.3-21.8c0,1.2,2.8,4.3,7.3,8.1c2.1,1.8,3.5,3.2,3.1,3.2
	c-0.4,0-0.1,0.7,0.6,1.5c0.7,0.8,1.6,1.3,2,1c2.1-1.3,11,14.1,11,19.1c0,1.3,0.5,2.4,1,2.4S343.7,329.3,343.7,328.3z"/>
<path class="st0" d="M416.6,244.6c-0.7-0.4,0,1.4,1.6,4.1c4.4,7.7,5.4,9.1,5.4,7.3C423.7,254.3,418.4,245.7,416.6,244.6z"/>
<path class="st0" d="M338.1,332.4c0.8,5.3,2.5,7.5,1.9,2.5c-0.8-7-2.5-13.3-5.1-17.9c-2.5-4.5-5.3-8-5.3-6.4c0,1,2.2,5,3,5.6
	C333.9,317,337.4,327.4,338.1,332.4z"/>
<path class="st0" d="M279.3,271.6c2.7,1.8,3,1.1,0.9-2.5c-0.8-1.4-1.5-4.3-1.5-6.5s-0.5-4.9-0.9-6c-0.6-1.5-0.9-1.1-1.5,2.3
	C275.3,265.1,276.4,269.7,279.3,271.6z"/>
<path class="st0" d="M334.7,338c0-3.8-3.3-10.3-7.1-14c-4.4-4.3-5.5-3.5-1.6,1.4c3.5,4.4,5.1,7.9,6.3,13.5
	C333,342.8,334.7,342.2,334.7,338z"/>
<path class="st0" d="M331.1,344.5c-1.5-10.5-5.6-17.5-17-28.8c-2.8-2.8-6.7-7.1-8.7-9.5c-2.7-3.3-3.5-3.9-3.1-2.2
	c0.3,1.3,3.8,5.8,7.7,10c10.3,11.1,13.2,15.8,18,29.4C330.5,350,332,350.5,331.1,344.5z"/>
<path class="st0" d="M373.4,307.1c-3,4.3-3.7,6.8-0.9,3.4c1-1.2,2.7-2.4,3.9-2.8c5.6-1.8,16-18.6,15.4-25.1
	c-0.1-1.1,0.1-1.4,0.4-0.7c0.6,1.3,2.4,0.7,2.4-0.8c0-1.3-2.7-1.2-3.5,0.1c-0.3,0.6-1,0.8-1.4,0.5c-0.9-0.6-2.4,2.9-4,9.2
	c-1.3,5.3-5.9,12.3-8,12.3C376.9,303.2,374.9,304.9,373.4,307.1z"/>
<path class="st0" d="M232.2,57.6c1.1,0.9,2.9,1.8,4,2.1c2.6,0.6,22.9,2.2,23.3,1.9c0.2-0.1-0.7-0.8-2-1.5c-1.3-0.7-6.8-1.6-12.3-2
	c-5.5-0.4-11.1-1-12.5-1.4C230.2,56,230.2,56,232.2,57.6z"/>
<path class="st0" d="M248.2,67.6c5.5,0.2,11.5,0.7,13.3,1.1c2.7,0.6,3.2,0.5,2.7-0.8c-1.3-3.4-11.6-5.1-23.6-3.8
	C228.9,65.3,232.6,67,248.2,67.6z"/>
<path class="st0" d="M249,78.9c6.9-0.2,11.7-0.7,11.7-1.3c0-1.2-12.9-1.5-18.3-0.5C235,78.5,237.5,79.2,249,78.9z"/>
<path class="st0" d="M239.6,73c4.4,1.3,11.8,1.5,12.5,0.3c0.3-0.4,2.7-0.7,5.3-0.6c5.5,0.2,7.6-0.6,4.7-1.7
	c-2.7-1.1-25.2-1.1-25.8,0C236,71.5,237.4,72.4,239.6,73z"/>
<path class="st0" d="M243.5,54.1c1.2,0,5.9,1.3,10.5,2.9c7,2.4,8.5,2.7,9.6,1.5c0.7-0.8,1.1-1.9,0.8-2.6c-0.3-0.8-0.5-0.9-0.6-0.1
	c-0.1,0.8-2.6,0.3-7.3-1.3c-9.7-3.3-26.8-5.5-26.8-3.5C229.7,51.8,239.8,54.1,243.5,54.1z"/>
<path class="st0" d="M254.8,43.1c-0.6,0-3.4-1.1-6-2.5c-9.3-4.7-19.1-7.8-19.1-6.1c0,1.6,22.4,11.5,26,11.5c1.6,0,3,0.5,3,1.1
	c0,1.4-7.7,0.5-13.5-1.6c-4.2-1.5-15.5-2.1-15.5-0.8c0,0.4,3.7,1.5,8.2,2.5c4.5,0.9,10.7,2.4,13.7,3.3c8.6,2.5,13,2.8,13,1.1
	C264.7,50.1,256.6,43.1,254.8,43.1z"/>
<path class="st0" d="M266.3,119.6c3.2,0.6,4,0.3,6.4-2.1c2.2-2.2,2.5-3.1,1.5-3.9c-0.9-0.8-2-0.5-4.2,1.2c-1.6,1.3-4,2.4-5.2,2.4
	C261.3,117.1,262.3,118.8,266.3,119.6z"/>
<path class="st0" d="M279,72.9c-0.7,0.5,0.6,2.3,3.8,5.1c5.4,4.8,6.5,3.7,2.6-2.3C283.2,72.2,281.3,71.4,279,72.9z"/>
<path class="st0" d="M276.7,75.9c0,0.7-0.5,1-1,0.7c-0.5-0.3-1-0.1-1,0.4c0,0.6-0.7,1.1-1.6,1.1c-1,0-0.1,1,2,2.5
	c4.1,2.8,6.6,3.2,6.6,1.1C281.7,79.9,276.7,74.2,276.7,75.9z"/>
<path class="st0" d="M259.2,90.2c-0.7-0.6-1.5-0.8-1.8-0.4c-0.3,0.3,0.7,1.7,2.2,3c2.1,1.8,3.4,2.2,5,1.6c2.1-0.8,2.1-0.8-0.5-3.3
	c-1.9-1.7-2.8-2.1-3.1-1.2C260.6,90.8,260.1,90.9,259.2,90.2z"/>
<path class="st0" d="M264.2,87.1c-0.6,1,5.1,5,7.2,5c2.3,0,1.3-2-2-4C265.7,85.9,265,85.7,264.2,87.1z"/>
<path class="st0" d="M323.5,309.1c1.3,0,1.3-0.2,0.3-0.9c-0.7-0.5-2.6-3.3-4.1-6.4c-3.6-7.1-7.9-12.7-9.7-12.7c-1.1,0-1,0.7,0.7,3
	c1.2,1.6,2.6,3.3,3.2,3.6c0.6,0.4,1.8,2.3,2.7,4.3C319.2,305.8,321.8,309.1,323.5,309.1z"/>
<path class="st0" d="M317.6,146.8c0.2-6.6-7.3-19.8-11.9-21c-1.1-0.3-2-0.3-2-0.1c0,0.2,1.2,1.8,2.6,3.4c1.5,1.6,3.1,3.8,3.8,4.9
	c3.8,6.6,6,11,6.7,13.7C317.4,150.6,317.5,150.6,317.6,146.8z"/>
<path class="st0" d="M282.3,258.8c-2.5,2.5,2.7,21,7.5,26.6c2.8,3.2,2.7,3.1-0.7-3.7c-2.5-5-3.8-9.3-4.5-14.9
	C283.6,258.4,283.4,257.7,282.3,258.8z"/>
<path class="st0" d="M299.9,287.7c1.2,0.4,3.9,2.3,6,4.3c4.1,3.9,4.9,3.6,1.8-0.7c-4.3-6-11.9-20.1-12.3-22.8l-0.4-2.8l-0.2,3
	c-0.1,2.3-0.4,2.7-1.1,1.5c-0.8-1.3-1-1.2-1,0.3c0,2.8,2.8,7.8,6.8,11.9c2,2.1,3.3,4,2.9,4.4s-2.9-1.5-5.5-4.3
	c-3.8-3.9-5.2-6.4-6.7-11.7c-2.1-7.4-4.1-9-3-2.5C288.5,277,294.4,286,299.9,287.7z"/>
<path class="st0" d="M326.4,292.8c0.2-0.2-1.2-1.5-3-2.9c-3-2.3-6.7-8.6-12-20.7c-1.5-3.4-1.5-3.4-2.2-0.9c-0.5,1.8,0.1,3.7,2.1,6.7
	c1.5,2.3,2.9,5.1,3.1,6.2c0.3,1.8,0.1,1.9-1.9,0.8c-4.4-2.3-9.7-7.1-9.1-8.1c0.4-0.7,0.2-0.8-0.7-0.2c-0.9,0.6-1.2,0.4-0.7-0.7
	c0.6-1.6-1.7-5.7-2.6-4.8c-0.8,0.8,2,8,3.9,10.1c1,1.1,3.2,2.6,4.8,3.4s4.4,2.8,6.1,4.4C317.2,288.8,325.6,293.5,326.4,292.8z"/>
<path class="st0" d="M307.1,304c1.8,2,4.4,5,5.8,6.6c1.4,1.6,3.4,3,4.6,3.1c2.9,0.2,2.8-1.3-0.1-1.7c-1.5-0.2-3.6-2.5-6.4-6.8
	c-5.2-8.1-8.2-12-9.4-12c-0.5,0-0.2,1.6,0.6,3.6C303.1,298.7,305.3,302,307.1,304z"/>
<path class="st0" d="M352.7,280.9c0-0.8,1.4-3.3,3-5.6c1.7-2.3,2.9-4.3,2.8-4.4c-0.1-0.1,1-1.9,2.5-3.8c1.5-2,2.7-4.3,2.7-5.1
	c0-0.8,0.7-3.2,1.6-5.3c0.9-2,1.4-4.6,1.2-5.6c-0.2-1.4-0.8-1-2.6,2.1c-1.7,3-2.1,4.9-1.7,7.3c0.5,2.8,0.1,3.8-2.5,6.6
	c-1.7,1.8-3.1,3.6-3.1,3.9c0,0.4-1.4,2.2-3,4.1c-1.6,1.9-3,4.1-3,4.8c0,0.7-1.8,3.9-4,7c-2.4,3.4-4.3,7.5-4.8,10.2l-0.8,4.5l-1.9-5
	c-1-2.8-2.5-5.9-3.2-7c-2-3.1-1.7-13.8,0.5-16.6c1-1.3,2.4-3.4,3-4.6c1-1.9,0.9-2.1-0.4-1.6c-1.9,0.7-6.8,8.8-7.1,11.8
	c-0.1,1.2-0.3,2.8-0.4,3.6c-0.3,2.6-1.8-3.3-2-8c-0.1-3.5-0.4-4-1-2.5c-1.6,3.6-1,8,1.5,12.5c4.9,8.6,11.5,23.1,12,26.3
	c0.5,3.2,0.5,3.2-1.5-0.7c-1.1-2.2-2.7-4.6-3.4-5.5c-0.7-0.9-3.7-6.4-6.6-12.3c-4.8-9.7-5.2-11.2-4.9-16.3c0.4-6.6-0.6-7.2-2.3-1.5
	c-1,3.3-1.4,3.8-2,2.2c-0.7-1.7-0.7-1.8-0.8-0.1c-0.1,2.8,3.8,10.9,7,14.2c1.6,1.7,3.3,4.2,3.8,5.6l1,2.6l-4.7-2.5l-4.7-2.5l3.7,3.3
	c2,1.8,5.4,4.7,7.4,6.3c2,1.6,4.6,4.9,5.7,7.2s2.4,4.3,2.8,4.3c1.5,0,5.9-14.7,5.9-19.5c0-4.9-1.8-0.9-2.6,5.8
	c-0.8,7.2-2.4,8.5-2.4,1.9c0-6.2,1.5-10.5,5.7-16.3C351.2,284.5,352.7,281.7,352.7,280.9z"/>
<path class="st0" d="M307.6,194.1c1.2-0.7,0.9-0.9-1.6-1c-1.8,0-3.4-0.6-3.7-1.5c-0.8-2.1-2.9-1.9-2.5,0.2
	C300.2,193.9,305.4,195.4,307.6,194.1z"/>
<path class="st0" d="M383.9,205.6c-1.5-0.3-3.3-0.8-3.9-1c-0.6-0.2-1.6,0.2-2.2,0.8c-0.8,0.8,1.1,2.3,7.1,5.5
	c4.5,2.4,9.1,5.2,10.2,6.2c1.1,1,4,2.9,6.5,4.3c2.5,1.4,5.3,3.5,6.4,4.6c1,1.1,2.3,1.8,2.9,1.4c0.6-0.3,0.7-0.2,0.4,0.4
	c-0.3,0.5,1.6,3.2,4.3,5.9c2.7,2.7,5,4.3,5,3.6c0-0.7-1.2-4.6-2.6-8.7c-2-5.7-3.5-8.1-6.2-10.2c-5.3-4.1-18.6-10.2-22.6-10.4
	c-1.9-0.1-3.2-0.5-3-0.9C386.5,206.6,385.5,205.9,383.9,205.6z"/>
<path class="st0" d="M239,119.8c-3.2,3.1-4.3,4.6-2.5,3.2c1.8-1.3,5.4-3.9,7.9-5.6c3.4-2.4,4-3.2,2.5-3.2
	C245.7,114.1,242.2,116.7,239,119.8z"/>
<path class="st0" d="M400.7,249.1c-0.1-3.9-0.8-6.8-2.5-9.8c-4-7-14.2-18.7-21.9-25c-6.2-5.1-7.9-6-11.9-6.3c-2.6-0.2-4.7-0.2-4.7,0
	c0,1,3.7,3.1,5.5,3.1c1.8,0.1,6.9,3,5.2,3c-0.4,0-0.2,0.9,0.3,2c0.6,1.1,1.6,2,2.3,2c0.8,0,0.7-0.4-0.3-1c-0.8-0.5-1-1-0.5-1
	c1.3,0,21.1,19,19.8,19c-0.6,0-2.2-1-3.7-2.1c-1.5-1.2-2.9-1.9-3.3-1.5c-1.1,1.1,0.6,3.5,3.5,4.8c1.8,0.8,2.7,1.7,2.2,2.4
	c-0.5,0.6-1,5.8-1.3,11.6c-0.4,9.9-0.6,10.9-3.7,15.2c-1.8,2.6-3.6,4.7-4.2,4.7s-1,0.7-1,1.5s0.5,1.5,1,1.5c0.6,0,2,2.1,3.1,4.8
	c1.1,2.6,2.3,4.2,2.5,3.6c0.2-0.7-0.5-3.1-1.6-5.5l-2-4.3l2.7-3c4.7-5.2,5.3-7.3,5-18.3c-0.2-7.8,0-10.1,0.9-9.7
	c0.8,0.3,1.2-0.4,1.2-1.7c0-1.9,0.2-2,1.4-0.7c2.6,2.7,4.5,10.2,3.7,14.5c-0.9,5.1-6.3,13.8-10.2,16.6c-1.6,1.2-2.7,2.4-2.4,2.7
	c0.3,0.3,2.7-1,5.2-2.8c3-2.1,4.8-2.9,5.1-2.2c0.8,2.5,2.2,1.1,1.6-1.7c-0.5-2.3,0.3-4.2,3.5-9.2c6.4-9.8,5.8-14-3.4-26.5
	c-3-4.1-5-7.5-4.5-7.5c0.6,0,1.3,0.7,1.6,1.5c0.3,0.8,1.2,1.5,1.9,1.5s1.6,0.9,2,2c0.4,1.1,1.1,1.8,1.6,1.4c2.3-1.4,4.3,1.4,4.5,6.2
	c0.1,3.5,1.2,6.7,3.9,11.4c2,3.6,4.4,8.1,5.2,10c0.9,2,1.7,2.9,2,2.2c0.3-0.7-0.2-2.8-1.1-4.7c-0.9-1.9-1.6-3.6-1.6-4
	s-1-2.7-2.1-5.3c-1.2-2.6-2.8-6.2-3.6-8.1c-3-6.9-0.1-4.8,11,7.7c5.2,5.9,6.5,4.8,1.9-1.5c-3.5-4.9-18.9-20.3-20.2-20.3
	c-0.5,0-3.1-1.5-5.7-3.2c-2.6-1.8-5.7-3.7-6.7-4.3c-9.9-5.6-15.6-8.2-18.5-8.8c-1.9-0.3-2.8-0.3-2,0c0.8,0.4,1.7,0.9,2,1.3
	c0.3,0.4,1.6,1.4,3,2.4c5.3,3.6,23.3,22.5,26.6,27.8c3.5,5.7,4.3,11,2.4,15.4C401,254.1,400.8,253.1,400.7,249.1z"/>
<path class="st0" d="M283.5,227.6c-6.2,8-8.3,12.1-6.8,13.1c1.1,0.7,5.9-3.3,5.9-4.9c0-0.8,5.4-8,8.5-11.3c0.6-0.6,2.5-2.7,4.2-4.7
	c2.1-2.4,3.8-3.4,4.8-3.1c0.8,0.3,1.5,1,1.5,1.5c0,1.7,9.9,0.5,25.6-3.1c4.4-1,6.1-0.9,13,1c5.6,1.5,10.6,2.2,16.9,2.1
	c8.8-0.1,10.5,0.5,10.5,3.5c0,0.7-0.7,1.2-1.6,1.2c-0.9,0-3.1,0.7-5,1.6c-2,0.9-5,1.4-7.4,1.2c-3.3-0.3-3.8-0.2-2.7,1
	c2.3,2.3,6.9,2.4,11.1,0.2c2.2-1.1,5-2,6.2-2c1.7,0,2.1-0.4,1.6-1.6c-0.5-1.3-0.2-1.5,1.8-0.9c2.4,0.7,2.4,0.7-0.3-1.6
	c-1.5-1.3-3.1-3.3-3.7-4.5c-1-2-1.7-2.1-8.3-1.7c-12.2,0.8-24-4.4-25.3-11.2c-0.5-2.6,0-3.7,3-6.9c2-2.1,3.6-4.7,3.6-5.7
	c0-1,0.8-2.1,1.8-2.4c6.5-2,8.1-3.3,7.6-6.1c-0.2-1.5-0.7-6.9-1.1-11.8c-0.6-8.4-0.8-9.2-3.5-11.4c-3.5-2.9-4.5-2.3-2,1
	c1.1,1.4,2.2,5,2.5,8.4c0.4,3.3,0.9,7,1.3,8.3c0.5,2,0.3,2.3-1.8,1.9c-13.9-2.7-16.6-2.9-21.4-1.3c-2.6,0.9-5.2,1.6-5.8,1.6
	c-1.2,0-0.1-11.3,1.4-14.3c1.7-3.3,5-6.7,6.6-6.7c1.9,0,1.6-1.1-1.1-3.9c-2.5-2.7-4.6-10.4-4.6-16.9c0-2.4-1-5.4-2.9-8.3
	c-3-4.8-5.1-6.7-5.1-4.8c0,0.6,0.8,2.3,1.8,3.8c2.2,3.2,5.2,13.5,5.2,17.9c0,1.7-1,5.2-2.2,7.7c-2.2,4.6-1.7,7.5,0.7,4.2
	c0.8-1,1.5-2.4,1.7-2.9c0.2-0.6,0.9-0.7,1.6-0.3c0.9,0.6,0.7,1.4-0.7,3.4c-1,1.5-2.6,4.7-3.4,7.2c-1.7,4.9-2.6,18.7-1.4,20.7
	c0.4,0.7,2.3,1.9,4.2,2.8c1.9,0.9,3.5,2,3.5,2.5c0,0.5,1.5,2.6,3.4,4.6c5.2,5.8,5.4,7.7,1.4,11.7c-4.2,4.2-14.5,7.6-22.9,7.6
	c-6.2,0-8-1.6-3-2.6c1.6-0.3,3.2-1.2,3.5-2c0.3-0.8,1.2-1.4,2-1.4c0.8,0,1.8-0.5,2.1-1.1c1.2-1.9-7.1-0.4-10.2,1.8
	C296.1,212.7,290,219.3,283.5,227.6z M330.7,195.1c-1.3-0.7-2.2-2.5-2.7-5.1c-0.7-4.3-2.8-6.2-6.1-5.3c-2.7,0.7-4.1-1.6-1.9-3.2
	c2-1.5,23.4-1.2,26.1,0.3c2.2,1.2,0.2,3-4,3.4c-2.1,0.2-3.1,0.9-3.3,2.3c-1.1,7.6-3.2,8.4-3.3,1.2c-0.1-3.8-0.2-4-1.1-1.7
	c-0.6,1.4-0.8,3.7-0.5,5.2C334.7,195.6,333.4,196.6,330.7,195.1z"/>
<path class="st0" d="M357.5,347.7c0.5-0.3,1.2-2,1.5-3.8s2.7-7.4,5.1-12.4c3.9-8.1,5.5-10.1,13.4-17.4c4.9-4.5,9.2-8.8,9.5-9.6
	c0.7-1.9,0.4-1.7-2.5,1.4c-1.4,1.5-4.2,4-6.3,5.6c-5.1,3.8-15.5,17.1-17.8,22.7c-1,2.5-2.3,5.3-2.8,6.2
	C356.4,342.5,356.4,348.4,357.5,347.7z"/>
<path class="st0" d="M295.6,421.8c0-0.5,0.6-0.4,1.4,0.3c1.2,1,1.2,0.6,0-2.6c-0.7-2.1-1.4-4.8-1.4-6s-0.5-2.2-1-2.2s-1,1.9-1,4.2
	c0,2.3,0.5,4.9,1,5.8C295.2,422,295.6,422.2,295.6,421.8z"/>
<path class="st0" d="M678.8,431.3l3.4-2.2l-13.5,0c-7.4,0-17.8-0.2-23-0.5c-24.3-1.2-33.8-1.4-34.5-0.7c-0.4,0.4-30.5,0.7-66.9,0.7
	c-42.3,0-66.8,0.4-67.8,1c-1.1,0.7,22.5,1,72.5,1.1c44.3,0.1,84.7,0.6,100.3,1.4C675.4,433.5,675.4,433.5,678.8,431.3z"/>
<path class="st0" d="M110.5,428.5c-5.9,0.6-11,1.5-11.4,1.9c-0.4,0.4,11.3,0.8,25.9,0.8c23.9,0,29.1-0.5,25.9-2.3
	C148.9,427.7,120.1,427.4,110.5,428.5z"/>
<path class="st0" d="M404.7,367.8c0,1.3,5-4.1,5.6-6.1c0.4-1.2,1.7-4.2,2.9-6.8c2.8-5.8,2.4-6.1-1.2-0.6c-2.4,3.6-2.8,3.9-3.5,2.2
	c-0.6-1.3-0.7-0.9-0.4,1.2c0.3,2-0.2,4.2-1.5,6.3C405.5,365.7,404.7,367.5,404.7,367.8z"/>
<path class="st0" d="M439.7,235.7c-8.1-6.8-13.9-10.9-12.6-8.8c0.4,0.7,3.3,3.1,6.5,5.4c3.1,2.3,8.1,6.4,11,9.2
	c2.9,2.8,4.7,4.1,4,2.8C447.8,243.1,443.8,239.2,439.7,235.7z"/>
<path class="st0" d="M363,395.7c1.6-2,4.3-4.6,6-5.6l3.1-1.9l-2.6,0c-1.8,0-4,1.4-7.2,4.9c-5,5.4-6.2,9.2-5.5,17
	c0.4,3.8,1.2,5.5,3.7,7.9c1.8,1.7,3.5,3.1,3.9,3.1c0.4,0,0.1-0.5-0.5-1.2c-0.8-0.8-1.2-4.5-1.2-10.2c0-9.8-1.1-10.7-2.2-1.8
	c-0.7,5.6-0.7,5.6-0.5-1.4C360.2,400.4,360.6,398.9,363,395.7z"/>
<path class="st0" d="M368.7,423.8c0,0.8,0.9,1.4,2,1.4c2,0,2-0.1-0.2-4.2c-1.7-3.1-2.4-6.5-2.8-12.8l-0.5-8.5l-1.2,4.7
	c-1.9,7-1.6,12.6,0.8,15.5C367.8,421.3,368.7,423,368.7,423.8z"/>
<path class="st0" d="M384.7,421.2c1.1,0.7,1.7-0.3,2.6-4.3c2-8.7,1.8-10.3-1.4-9c-0.7,0.3-1.2,1.5-1.2,2.7c0,1.8,0.2,1.9,1,0.7
	c1.5-2.3,1.2,0-0.7,4.8C383.6,419.7,383.5,420.4,384.7,421.2z"/>
<path class="st0" d="M376.7,425.1c2.1,0,2.8-0.7,3.8-3.9c0.6-2.1,1.2-6.4,1.2-9.6c0-3.2,0.7-8.4,1.6-11.7c1.7-6.6,1.5-11.1-0.3-6.8
	c-4.4,10.6-5.3,14-5.3,20.8c0,7.9-1,9-3.6,4c-1.2-2.3-1.5-4.7-1.1-8.5c0.6-6-0.9-8.3-1.9-2.9c-0.8,4.1-0.1,9.6,1.7,14.8
	C373.9,424.4,374.6,425.1,376.7,425.1z"/>
<path class="st0" d="M11.8,383.6c-1.4,5.4-1.4,9.5-0.2,11.5c1.4,2.2,1.7,1.2,2.4-7.7C14.6,378.4,13.6,376.5,11.8,383.6z"/>
<path class="st0" d="M302.8,391.1c-0.5,0-1.5,1.2-2.2,2.8c-1.6,3.4-2.4,20.2-1.2,26.2l0.9,4.5l1.4-3.1c0.8-1.7,2-2.9,2.6-2.7
	c1.7,0.6,1.6-0.8-0.4-4.7c-1.8-3.5-2.4-15.4-1.1-20.2C303.4,392.4,303.3,391.1,302.8,391.1z"/>
<path class="st0" d="M96.8,367.9c0.5-0.8,4.8-0.8,15.2,0.1c8,0.6,29.6,1.2,48.1,1.2c27.9,0,33.6-0.2,33.6-1.4c0-1.2-10-1.4-62.2-1.4
	c-34.2,0-68.4-0.3-75.9-0.7c-9.7-0.5-13.8-0.4-14.3,0.4c-0.5,0.8,0.6,1.1,3.6,0.9c9.4-0.4,37.9,0.4,44.4,1.2
	C94,368.7,96.3,368.7,96.8,367.9z"/>
<path class="st0" d="M315.7,417.5c-0.6-2.1-1.1-4.4-1.1-5c0-0.6-0.8-1.7-1.7-2.5c-1.5-1.2-1.6-1.2-0.5,0.8c0.6,1.2,1.2,3.6,1.2,5.4
	c0,4.7,2.4,7,5.6,5.5c2.4-1.1,2.5-1.4,1.9-7.5c-0.6-6.6-1.9-10.1-3.6-10.1c-0.5,0-1,0.8-1,1.7c0,0.9,0.5,4.3,1.2,7.5
	c0.9,4.3,0.9,6.1,0.1,6.9C317.1,421.1,316.5,420.4,315.7,417.5z"/>
<path class="st0" d="M306.3,419.4c-0.6,0.2-0.7,0.9-0.3,1.5c0.6,0.9,1.1,0.8,2.2-0.3c1.1-1.1,1.3-2.7,0.8-6.6
	c-0.4-3.4-0.3-5.4,0.4-5.8c1.2-0.7,0.5-5.1-0.9-5.1c-0.4,0-1.1,2.5-1.5,5.5c-0.4,3-0.5,6.6-0.2,8C307.2,418,306.9,419.2,306.3,419.4
	z"/>
<path class="st0" d="M356.8,390.3c-0.8-0.3-0.6-0.8,0.6-1.7c1-0.7,1.5-1.6,1.2-1.9c-0.3-0.3-2.3,1.2-4.3,3.4
	c-4.1,4.4-7.9,13.9-7,17.4c0.7,2.6,8.2,11.1,9.1,10.2c0.3-0.3-0.2-1.9-1.2-3.4c-2.8-4.3-2.5-16.5,0.6-20.6
	C357.3,391.7,357.6,390.6,356.8,390.3z M352,404.4c-0.7,8-1.7,9.1-2.8,3.3c-0.6-3.1,1.9-12.4,3-11.3
	C352.5,396.6,352.4,400.2,352,404.4z"/>
<path class="st0" d="M415.1,403.1c0.8,0,2,0.9,2.6,2s2,2,3.1,2c1.7,0,1.5-0.5-1.4-3c-3.7-3.3-4.2-3.5-5.2-2
	C413.8,402.7,414.2,403.1,415.1,403.1z"/>
<path class="st0" d="M309.7,364.1c-0.9,0-2.1-0.4-2.6-0.9c-0.5-0.5-3.4-1.4-6.3-2c-4.7-1-5.6-0.9-7.2,0.5c-1,0.9-1.9,2.9-1.9,4.5
	c0,2.3,0.5,2.9,2.8,3.4c1.5,0.3,3.4,0.8,4.2,1.1c2.7,1,7.3,1.1,9.4,0.3c1.7-0.6,0.8-1.2-4.6-2.8c-3.7-1.1-7.7-1.8-8.9-1.5
	c-1.9,0.5-2.2,0.3-1.6-1.1c0.4-1,0.7-1.9,0.7-2c0-0.9,11.1,1.9,13.9,3.6c2.7,1.6,3.3,1.7,2.8,0.4c-1.6-4.1,2.1-0.8,10.1,9.2
	c1.2,1.5,2,2,1.6,1c-0.3-1-1-1.8-1.5-1.8c-0.5,0-0.9-1.2-0.9-2.6c0-3.2-11.8-21-15.7-23.9c-3.9-2.8-7.3-4.5-7.3-3.7
	c0,0.4,2.2,2.3,4.8,4.3C306.9,354.4,312.7,364.1,309.7,364.1z"/>
<path class="st0" d="M450.6,229.3c-5.4-5-7.9-6.6-20.1-13.1c-7.5-4-8.8-4.5-8.8-3.7c0,0.2,4.4,2.8,9.8,5.6c5.4,2.9,13,7.9,17,11.2
	C456.8,236.2,458,236.2,450.6,229.3z"/>
<path class="st0" d="M475.9,372.8c-0.5-0.3-1.2,0.3-1.5,1.4c-0.3,1.1,0.1,3.9,0.8,6.2l1.3,4.3l0.1-4.3c0-2.6-0.3-4.1-0.9-3.7
	c-1.3,0.8-1.3-0.8,0.1-2.2C476.4,373.8,476.5,373.1,475.9,372.8z"/>
<path class="st0" d="M480.8,381l0.1,7.6l1.4-4.5c3-9.6-3.2-22.1-11-22l-3.1,0l3.4,1.7c1.9,0.9,4.7,3.4,6.2,5.6
	C480.3,373,480.7,374.3,480.8,381z"/>
<path class="st0" d="M465.7,401.2c-1.9,1.2-6,2.9-9,3.9c-5.1,1.6-5.3,1.8-2.8,2.5c2,0.5,4.6-0.2,9.9-2.6c3.9-1.8,6.7-3.5,6-3.7
	c-0.6-0.2-0.9-0.8-0.6-1.3C470,398.7,469.6,398.9,465.7,401.2z"/>
<path class="st0" d="M459.5,328c-0.5-0.8-0.9,1.4-0.9,5.5c0,3.7-0.5,8.8-1.1,11.2c-1.5,5.9-0.7,7.7,1.4,3.2
	c2.2-4.5,4.9-23.8,4.1-28.6c-1.3-7.6-3.9-14.2-6.8-17.2c-3.6-3.6-12.6-8.4-12.6-6.6c0,0.2,2.6,2,5.8,3.9c7.3,4.5,9.9,9,11.2,19.1
	C461.6,326.4,461.2,330.5,459.5,328z"/>
<path class="st0" d="M470.2,376.1c-0.3,0-0.6,1.3-0.6,2.8c0,5-3.1,13.6-5.7,15.9c-4.2,3.6-11.1,6.6-13.9,5.9
	c-3.5-0.9-2.2-2.3,2.8-3.1c3.2-0.5,5.4-1.9,9.2-5.7c3.7-3.6,4.3-4.5,2-3.2c-1.7,1-4,2.8-5.2,4.1c-1.9,2-3,2.2-8.2,1.9
	c-3.3-0.2-6.1,0-6.1,0.5c0,0.5,1.7,0.9,3.8,0.9l3.8,0l-4.2,1.9c-2.3,1.1-4.2,2.2-4.2,2.6c0,0.4,0.6,0.4,1.4,0.1
	c0.8-0.3,2.4,0.3,3.6,1.3c1.7,1.4,2.7,1.7,4.6,1c5.3-2,8.1-4,12.3-8.7c4.1-4.6,4.4-5.4,4.8-11.6
	C470.6,379.1,470.6,376.1,470.2,376.1z"/>
<path class="st0" d="M411.8,327.7c-1.8,0.8-4.7,1.5-6.2,1.5s-2.9,0.5-2.9,1c0,1.6,9.3,0.5,12.3-1.5
	C419.4,325.7,417.6,325.2,411.8,327.7z"/>
<path class="st0" d="M404.7,357.6c0-2.4,0.5-4.7,1-5c1.2-0.7,1.3-2.5,0.2-2.5c-0.4,0-1.5,0.6-2.4,1.3c-2,1.5-2.5,4.1-1.5,8.4
	C403.1,364.3,404.7,363,404.7,357.6z"/>
<path class="st0" d="M434,405.7c-4.3-0.1-9-0.6-10.4-1c-1.8-0.5-1.5-0.1,1,1.2c3,1.7,3.2,2,1.5,2.4c-1.5,0.3-1.3,0.4,0.5,0.4
	c1.4,0,4.2,0.3,6.2,0.8c2.1,0.4,5,0.4,6.5,0c2.5-0.7,2.3-0.9-2.2-1.5l-5-0.6l5.4-0.2C445.5,407.1,443.1,406,434,405.7z"/>
<path class="st0" d="M439.6,280.3c0.7,1.7,2.4,3.5,3.7,4.1c1.3,0.6,2.4,1.5,2.4,2c0,0.6-0.5,0.6-1.3,0.1c-0.7-0.5-0.3,0,1,1.2
	c1.8,1.6,2,2.3,1.1,3.2c-0.9,0.9-0.8,1.2,0.5,1.2c0.9,0,1.7,0.3,1.7,0.8c0,0.9,6.1,4.5,6.6,4c0.2-0.2-1.6-3.1-3.9-6.4
	c-5.5-7.9-19.2-22.3-18.2-19.1c0.4,1.3,1.6,5.5,2.6,9.4c1.7,6.5,1.8,6.6,1.4,2.2C436.8,277.2,437.7,276.1,439.6,280.3z"/>
<path class="st0" d="M433.7,341.9c0.6-1,0.9-4.6,0.7-8c-0.2-3.6-0.6-5.4-0.9-4.3c-0.3,1.1-0.7,4.7-0.7,8
	C432.7,342.2,432.9,343.2,433.7,341.9z"/>
<path class="st0" d="M420.7,372.5c0,2.9,0.1,3,1.5,1.2c0.8-1.1,3.5-5.8,6-10.5c2.5-4.7,5.2-9.7,6-11.1c6.2-11,10-23.8,8.2-27.7
	c-0.6-1.3-1.5-2.3-2-2.3c-0.5,0-0.6,0.5-0.2,1.2c1,1.5,0.6,10.1-0.4,10.8c-0.5,0.3-1.1,1.4-1.4,2.5c-2.4,8.4-9.4,21.7-15.9,30.4
	C421.5,368.3,420.7,370.8,420.7,372.5z"/>
<path class="st0" d="M465.7,357.1c-2,0-3.9,1-5.9,3.2c-3.8,4-3,5.7,1.1,2.3c1.7-1.4,4.3-2.8,5.9-3.1
	C470.3,358.7,469.5,357.1,465.7,357.1z"/>
<path class="st0" d="M459.7,380.8c0-0.6,1-3,2.1-5.4c2.1-4.3,2.2-6.5,0.1-4c-0.6,0.7-1.7,2.8-2.5,4.8c-2.4,5.7-7.6,9.8-15.8,12.5
	l-7.4,2.4l5.8-0.6c5.8-0.6,11.1-2.9,15.4-6.7C458.6,382.7,459.7,381.3,459.7,380.8z"/>
<path class="st0" d="M422.7,401.1c5.6,0,7.4-1.5,2.9-2.4c-1.7-0.3-3.4-0.6-3.7-0.5s-1.6,0.3-2.9,0.6
	C415,399.6,417.5,401.1,422.7,401.1z"/>
<path class="st0" d="M453,336.6c-0.1,5.9-0.9,9.6-3.8,17.7c-2,5.6-4.2,11.1-4.7,12.1c-1.5,2.7-0.5,3,1.9,0.4
	c1.9-2.1,7.1-16.6,7.4-20.5c0.1-0.9,0.4-0.3,0.8,1.3c0.4,1.8,0.7-1.3,0.6-7.4C455.1,328.1,453.2,325,453,336.6z"/>
<path class="st0" d="M416.7,395.1c2.7,0,12.9-2.5,13.8-3.4c0.3-0.3,0.2-0.5-0.4-0.4c-0.5,0.1-3.5,0.5-6.7,1
	C416.8,393.2,412.4,395.1,416.7,395.1z"/>
<path class="st0" d="M448.8,373.6c0.4,0.4,2.6-0.6,5-2.3c2.4-1.7,6.7-3.8,9.6-4.7c2.9-0.9,5-2.1,4.7-2.6c-0.8-1.3-2.5-1.1-5.4,0.6
	c-1.4,0.8-3.4,1.4-4.6,1.5C455.7,366.1,447.8,372.6,448.8,373.6z"/>
<path class="st0" d="M418.7,389.2c0,0.5,3.9,0.9,8.6,0.9c5.5,0,8.3-0.4,7.9-1c-0.3-0.5,0.1-1,1-1c4,0,19.5-8.8,19.5-11.1
	c0-1-4.6-1.2-6.8-0.3c-0.7,0.3-1.7,1.6-2.2,2.9c-0.5,1.4-1.7,2.4-2.9,2.4c-2.7,0-9.1,3.1-8.5,4.2c0.6,0.9-2,1.2-8.3,0.9
	C422.2,386.9,418.7,387.8,418.7,389.2z"/>
<path class="st0" d="M433.6,374.8c0.6-1.5,1.7-4.1,2.6-5.7c1.4-2.8,1.4-4.3,0-2c-0.3,0.6-1,0.8-1.4,0.5c-2-1.2-4.5,6.1-3,8.6
	C432.3,377.2,432.8,376.8,433.6,374.8z"/>
<path class="st0" d="M452.3,321.8c0.6-0.6-8.2-11.7-9.3-11.7c-0.3,0,0.5,1.8,1.8,4C447.3,318.7,451.3,322.8,452.3,321.8z"/>
<path class="st0" d="M430.5,366.5c-0.3-1.3-1.1-0.4-3.1,3.1c-1.5,2.7-2.6,5.4-2.4,6C425.5,377.3,430.9,368.5,430.5,366.5z"/>
<path class="st0" d="M438.1,370.1c-0.7,3.1-0.6,3.3,0.9,2.1c0.9-0.7,1.6-2.3,1.6-3.5c0-1.2,0.9-3,2.1-3.9c1.6-1.4,1.9-2.4,1.4-5
	c-1.4-6.4-1.9-6.9-3-3.2c-0.6,1.9-0.8,3.2-0.4,3c0.4-0.2,0.1,1.2-0.5,3.3C439.5,365,438.6,368.2,438.1,370.1z"/>
<path class="st0" d="M447.2,353.6c2.1-4.5,1.8-14.5-0.5-19.9c-1.1-2.5-2.1-4.6-2.4-4.6c-0.2,0-0.1,1.8,0.3,4c0.4,2.2,1.3,4.7,2,5.5
	c1,1.2,1,2.9,0.1,7.9C445.3,355.1,445.4,357.5,447.2,353.6z"/>
<path class="st0" d="M263.7,344.3c-3.8-3.1-7-4.6-7-3.4c0,0.4,1.9,2.1,4.2,3.8c2.6,1.8,6.9,6.9,11.2,13.2c3.8,5.6,7,10.2,7,10.2
	c0.5,0-0.1-9-0.7-9.6c-0.4-0.4-0.8,0.8-0.8,2.6s-0.3,3-0.6,2.7c-1-1-1.1-9.7-0.2-9.1c1.1,0.7,1,0.3-0.3-3.5
	c-2.4-6.8-3.6,0.1-1.3,7.5c0.3,1-0.3,0.2-1.4-1.9c-1.1-2.1-3.6-8.9-5.6-15.2c-3.6-11.2-4.5-13.3-4.5-9.8c0,1,0.9,4.2,2,7.1
	C268.5,346.5,268,347.9,263.7,344.3z"/>
<path class="st0" d="M443.8,7.1c-3.8-1.1-4.4-1.1-7.6-0.3c-3.2,0.8-10.7,5.3-14.5,8.8c-1.9,1.8-6.2,5.2-9.5,7.8s-9.7,8.1-14.2,12.4
	c-11.8,11.3-15.6,14.1-20.5,15.5c-4.6,1.3-9.7,1.3-38.9,0.3c-13.9-0.5-20.9-0.3-28.2,0.8c-7.4,1.1-10.8,1.2-14.5,0.4
	c-5.9-1.3-14.4-7.1-23.8-16.4c-3.2-3.1-7.1-6.6-9.3-8.4c-0.9-0.3-1.5-0.8-2-1.5c-2.3-1.7-6.3-4.9-9.7-7.7
	c-10.4-8.7-14.2-10.6-22.2-11.5c-4.6-0.5-5.6-0.2-7.7,1.7c-4.2,3.9-5,8.2-4.9,25c0.1,15.8,0.1,15.6,5.9,38.1
	c0.8,3.1,1.4,8.2,1.4,11.5c0,6.4,0.4,8.3,4.6,18.9c3.8,9.7,4,11.9,1.7,15.2c-3,4.3-5.3,9.4-6.3,13.8c-0.5,2.2-1.4,5.9-2.1,8.2
	c-1.3,4.7-0.6,8.9,1.1,6.2c1.5-2.3,1.2,0.8-0.4,6.4c-1.5,5.1-0.6,6.9,2.3,4.3c1.6-1.5,1.7-1.2,1,5.4c-0.4,3.9-1,7.9-1.4,9
	c-0.4,1.1-0.2,2,0.4,2c0.6,0,1.1,1.7,1.1,3.8c0,2.7,0.3,3.3,0.9,2.3c0.8-1.3,1-1.3,1.4,0c3.1,9.7,4.6,12.5,6.3,12.2
	c1-0.1,7.9-1.2,15.3-2.3c9.8-1.5,16.4-1.9,24.2-1.6l10.7,0.5l2.2-3.6c2.8-4.6,4.9-6.4,12.6-10.4c3.4-1.8,6.2-3.6,6.2-4
	c0-0.4-0.2-0.8-0.5-0.8c-1.2,0-8.7,3.8-14.2,7.3c-6,3.7-7.9,5.9-6.8,7.7c0.5,0.8-5.5,0.5-12.9-0.6c-2.4-0.4-3.6-0.2-3.3,0.4
	c1.1,1.8-8.7,0.1-13.6-2.4c-5.3-2.6-6.2-2.9-5.2-1.3c0.4,0.6,2.3,1.8,4.3,2.7l3.6,1.6l-6.2,0.7c-3.4,0.4-6.7,1-7.2,1.3
	c-1.3,0.8-4.7-4.3-5.6-8.5l-0.8-3.5l-0.8,3.5c-0.5,2.4-0.3,4.2,0.7,5.7c1,1.6,1.1,2.4,0.3,2.9c-2.3,1.4-3.8-2.7-3.3-9.5
	c0.4-5.6,0.3-6.1-0.6-3.4c-1.3,4.2-2.3,4.2-1.4,0.1c0.7-3.1,0.6-3.1-1.1-1.4c-1.3,1.3-1.9,1.5-2.2,0.6c-0.2-0.7,0-1.5,0.5-1.9
	c1.6-1,4.4-7.3,5.8-12.6c0.7-2.8,1.6-5.9,2.1-7c0.7-1.8,0.6-1.8-0.9-0.6c-1.4,1.2-1.7,1.2-1.7-0.1c0-3,5.8-9.5,10.1-11.3
	c3.3-1.4,3.9-1.9,2.4-2.3c-2.2-0.5-7.8,2.1-11.3,5.1l-2.2,2l0.9-3.1c0.5-1.7,0.7-3.1,0.4-3.1c-1.5,0,2.1-4.3,4.3-5.1
	c3.9-1.5,2-2.2-2.5-1c-4.6,1.2-9.2,6-9.2,9.6c0,1.5-0.6,2.4-1.5,2.4c-1.9,0-1.9-0.2,0.4-7.5c2.8-9,4.1-11.4,9.3-18
	c2.6-3.3,4.8-6.5,4.8-7.1c0-0.6-2-3.2-4.5-5.7c-5.8-5.9-8-11.2-8.8-21.1l-0.6-8l2.9,6c2.9,6.1,6.6,10.7,11.1,13.7
	c2.5,1.7,2.5,1.7,0.2,1.7c-1.2,0-2.2,0.4-2.2,0.9c0,1.5,7.1,9.2,8.6,9.2c1.8,0,1.8-0.9-0.2-3.1c-0.9-1-1.4-2.5-1.2-3.4
	c0.3-1.5,0.6-1.4,2.7,0.4c2.5,2.1,5.1,2.8,5.1,1.2c0-0.5-0.9-2-2-3.4c-1.6-2-2.6-2.4-5.1-2.1c-2.6,0.4-3,0.2-2.5-1.1
	c0.4-1.1-0.3-2-2.1-3c-3-1.5-8.1-6.6-6.7-6.6c0.5,0,1.9,1,3.2,2.2c2,1.9,2.3,1.9,1.7,0.4c-0.6-1.6-0.4-1.7,1.4-0.7
	c1.1,0.6,4.6,1.1,7.7,1.1c4.5,0,5.6-0.3,5.6-1.6c0-1.4-1-1.6-6.4-1.2c-5.2,0.3-6.3,0.1-5.8-1c0.4-1.1,2-1.3,6.8-0.9
	c5,0.4,6.2,0.2,5.7-0.9c-0.4-1.1,0.2-1.2,2.8-0.7c3.1,0.6,3.3,0.5,1.9-1.1c-1.3-1.6-2.5-1.7-9.9-1.1c-5.3,0.4-9.1,1.2-10.1,2.1
	c-1.5,1.3-1.8,1.3-3.3-0.3c-0.9-1-1.7-2.4-1.7-3c0-0.7-0.8-2.4-1.7-3.9c-4.5-6.9-8.2-21.5-8.9-35.1c-0.8-16.4,1.2-21.4,7.5-18.4
	c1,0.5,3.8,1.8,6.3,3.1c2.5,1.2,6.4,4.1,8.5,6.3c4.2,4.4,3.7,4.3-4.2-0.9c-4.8-3.1-11.4-5.4-11.4-3.9c0,0.4,1.5,1.3,3.2,2.1
	c1.8,0.8,4.8,2.5,6.7,3.9c1.9,1.4,4.4,2.6,5.6,2.6c1.2,0,3,0.7,4.1,1.6c1.1,0.9,1.3,1.2,0.5,0.8c-0.9-0.4-1.2-0.3-0.8,0.3
	c0.9,1.4,4.2,2.2,5.7,1.3c0.9-0.6,0.7-1.1-0.9-1.9c-2.5-1.4-2.9-3.3-0.4-2.4c2.6,1,20.6,19.8,26.9,28.1c5.6,7.4,7.4,11.4,7.4,16.6
	c0,2.4,0.2,2.7,1.5,1.6c2.1-1.7,1.9-6.8-0.4-11.3c-3.2-6.3-12.8-17.5-27.9-32.5c-8.9-8.9-14.9-14.1-15.8-13.8
	c-0.8,0.3-1.7,0-2.1-0.6c-0.4-0.7-0.2-0.8,0.6-0.3c0.8,0.5,1.1,0.4,0.6-0.3c-0.4-0.6-1.3-0.9-2-0.6c-0.7,0.3-2.2-0.5-3.2-1.8
	c-1.9-2.3-1.9-2.3,0.1-0.8c1.9,1.4,1.9,1.4,0.6-0.3c-0.8-1-2-1.6-2.7-1.3c-0.7,0.3-2.5-0.1-3.9-0.9c-2.7-1.4-7.3-0.7-9.9,1.4
	c-2.4,2-3.8,9.8-3.3,18.3c0.9,14.5,3.4,24.3,9.4,37.6c1.3,3,2.3,5.9,2.1,6.5c-0.2,0.6-1.6-1.6-3.1-4.9c-1.5-3.3-3.2-6.8-3.7-7.8
	c-5.2-9.4-8.5-38.5-5.7-50.6c1.7-7.5,4.1-9.1,11.3-7.7c5.1,1,20.5,12.9,36.1,28.1c2.8,2.7,9.1,8.1,14.1,12.2c5,4,11,9.5,13.2,12.1
	c2.3,2.7,4.1,4.1,4.1,3.3c0-1.8-2.6-5.9-4.8-7.7c-2.1-1.7-0.6-2.8,2.1-1.5c1.2,0.6,3.1,1.4,4.2,1.7c1.1,0.3,3.2,1.7,4.8,3.1
	c2.3,2.1,2.8,2.3,2.8,0.8c0-1.3,0.3-1.4,1.1-0.6c0.8,0.8,0.7,2.8-0.5,7.5c-2.1,8.5-2.2,19.8-0.1,19.8c0.8,0,1.5,0.8,1.5,1.8
	c0,1,1.7,5,3.7,9c2.8,5.4,3.9,6.8,4.4,5.5c0.5-1.4,1.1-0.9,2.8,2.5c1.2,2.3,2.6,4.2,3.2,4.2c1.4,0-3.6-9-7.1-12.9
	c-3.6-3.9-7.1-11.6-7.1-15.6c0-1.6,0.5-6.7,1.2-11.1c1.3-8.5,0.3-13.1-2.4-12c-0.7,0.3-2-0.3-2.9-1.4c-1.5-1.8-1.3-1.9,5.1-2.4
	c3.7-0.3,9.1-1,12.1-1.6c6.7-1.2,23.8-1.3,24.5-0.1c0.3,0.5-0.6,1.4-1.9,2.2c-2.6,1.4-2.8,1.9-4.5,9.3c-1.1,4.9,0.1,12.7,1.9,12.7
	c0.4,0,1.3,1.1,1.9,2.5c1.5,3.2-0.3,8.5-2.7,8.5c-1.3,0-2.1,1.7-3.4,7.2c-2.1,8.9-3.4,27.8-2,27.8c1.2,0,2.3-7.9,2.3-16.1
	c0-6.8,2-12.7,6-18.2c3.6-4.9,3.9-8.9,0.7-11.4c-3.7-2.9-3.8-3.8-2.1-11.5c2-9.2,5.3-13.2,9.9-12.2c1.7,0.4,3.5,1,4.1,1.5
	c0.6,0.5,1.7,0.4,2.5-0.1c2-1.3,7-1.2,7,0.1c0,0.6-1.1,3-2.4,5.2c-2.9,5-5.1,11.6-4.2,12.5c0.9,0.9,2.3-1.5,3.6-6
	c0.6-2.1,2.7-5.4,4.6-7.3c3.4-3.4,9.1-7.4,10.5-7.4c0.4,0-1.3,3-3.8,6.7c-2.4,3.7-4.4,7.1-4.4,7.5c0,2,2,0.2,7.4-6.7
	c3.2-4.1,8.8-9.9,12.5-12.9c3.6-2.9,10.7-9.3,15.6-14.1c5-4.8,13.3-12.2,18.5-16.3c5.2-4.2,9.7-7.9,10-8.2c1.2-1.5,4.6-1.9,7.6-1
	c3.1,1,3.3,1.5,4.5,7.9c2.8,15.7-1.9,48.2-8.3,57.4c-3.1,4.5-3,2.5,0.2-4.7c4.1-9.2,6.3-20.3,6.3-32.1c0-15.4-4.1-25-9.3-21.7
	c-1.1,0.7-2.6,1.3-3.3,1.3c-2.1,0-16.6,12.4-30.6,26.2c-10.3,10.1-14.5,15.1-18.3,21.6c-6,10.1-9.2,17.8-7.8,18.7
	c0.5,0.3,1-0.4,1.1-1.7c0.1-1.7,0.2-1.8,0.6-0.6c0.4,1.6,0.6,1.6,2,0.2c0.8-0.8,1.9-1.3,2.3-1c0.4,0.3,1.1-0.2,1.5-1.2
	c0.4-0.9,0.1-2-0.5-2.3c-0.7-0.5-0.3-2.4,1.3-6.1c3.4-7.5,7.4-13.1,12.7-17.4c2.5-2.1,4.4-3.9,4.2-4.2c-0.5-0.7,3.1-3.2,4.6-3.2
	c0.7,0,2.8-1.2,4.7-2.6c1.9-1.5,3.9-2.3,4.6-1.8c0.7,0.4,0.9,0.3,0.6-0.3c-0.3-0.6,1.3-2.4,3.8-4.2c4.7-3.4,6.1-3.9,4.9-1.9
	c-0.5,0.9-0.2,0.8,0.9-0.1c0.9-0.8,1.4-1.7,1.2-2.2c-0.3-0.5,1.8-2.5,4.5-4.6c5.2-3.9,5.4-5.9,0.3-2.6c-3.9,2.5-15.2,11.2-18.6,14.2
	c-1.5,1.4-2.8,2-2.8,1.4s1-1.8,2.2-2.7c1.2-0.8,4.1-3.3,6.4-5.5c6.1-5.8,14.5-11.1,17.6-11.1c4.8,0,6,4.2,6,19.9
	c0,14.3-0.7,17.7-6.4,31.1c-4.4,10.3-3.7,9.8-13,9.7c-7.4-0.1-8.7,0.2-12.3,2.6c-2.2,1.5-4.5,2.7-5.2,2.7c-1.4,0-7.3,5.8-7.3,7.2
	c0,0.6,1.9-0.4,4.2-2.1c2.3-1.7,5-3.1,6-3.1s1.8-0.4,1.8-0.8c0-0.4,1.2-1.5,2.8-2.4c2.6-1.5,10.8-1.6,15.2-0.2c3,1-1.4,2.4-7,2.2
	c-3.1-0.1-6.6,0.4-8,1.2c-1.4,0.8-2.7,1.4-3,1.4c-0.3,0-1.9,1-3.5,2.3c-3.8,2.8-1.2,3,3.3,0.3c1.8-1.1,4-2,4.8-2
	c2.3,0,2.8,2.7,1.1,5.5c-2.6,3.9-1.9,5.1,1.3,2.1c1.9-1.8,2.8-3.6,2.6-5.2c-0.2-1.4,0.3-2.4,1-2.4c0.7,0,2.1-0.3,3.1-0.6
	c1.2-0.4,0.7,0.4-1.2,2c-2.2,1.9-2.4,2.4-1,1.9c1.8-0.6,1.7-0.3-0.5,2.2c-4.5,5.1-5.3,6.4-4,6.4c0.6,0,2.1-1.6,3.2-3.5
	c1.1-1.9,2.5-3.5,3-3.5c1.8,0,0.8,3-2.2,6.5c-3.6,4.1-3.1,6,0.6,2.6c1.4-1.3,2.9-2,3.6-1.5c0.8,0.5,0.3,1.5-1.7,3.1
	c-1.8,1.5-2.3,2.3-1.4,2.3c2.6,0,4.7-2.3,5.5-5.9c0.4-1.9,1.2-3.8,1.7-4.1c0.5-0.3,0.8-1.5,0.5-2.5c-0.4-1.7-0.6-1.6-1.2,0.4
	c-0.4,1.3-1.2,2.1-1.9,1.9c-2.6-0.9-1.5-4.1,3.3-9.4c2.8-3.1,6.2-7.7,7.6-10.2l2.5-4.6l-0.5,9.6c-0.5,10.5-2.1,14.9-7.7,21.4
	c-1.7,1.9-2.8,4.1-2.5,4.8c0.4,0.7,1.2,2.1,1.9,3.2c5.5,9,7,12.2,8.6,18.1c1,3.8,2.2,8.9,2.5,11.4l0.6,4.5l-2-4.4
	c-1.1-2.4-2-5.2-2-6.3c0-2.7-6-10.8-8.8-11.9c-4.6-1.8-5.6-0.8-1.7,1.5c2.2,1.3,4.8,3.7,5.7,5.4c2.3,3.9,4.4,15.6,4.6,25.7
	c0.1,4.4,0.4,8.8,0.7,9.8c0.3,1,0.1,1.8-0.5,1.8c-2.1,0-4.1-10.3-4.1-20.9c0-11.7-0.8-13.5-7.8-17.4c-4.7-2.7-5-1.3-0.4,1.7
	c4.3,2.7,7.3,7.8,7.2,12.3l-0.1,2.8l-1.2-2.6c-1.7-3.7-3.4-5.6-8.1-8.7c-6.5-4.4-6.6-4.4-6.6-2.8c0,0.8,2.2,3,4.9,5
	c5.1,3.7,4.9,3.1,9.2,19.5c1.1,4,2.8,8.2,3.9,9.4c2.5,2.7,2.5,5.6,0,8.8l-2,2.5l0-2.2c0-1.2,0.5-2.2,1.1-2.2c0.7,0,0.6-0.7-0.4-1.8
	c-0.8-1-1.9-3.2-2.2-5c-0.8-3.8-2-4.1-5.2-1.1c-1.8,1.7-2.6,1.9-3.5,1c-1.8-1.8-2.8-1.4-2.7,1.1c0,1.2-0.2,3.3-0.6,4.5
	c-1,3.3,0.5,2.8,5.8-2.2c3.7-3.4,4.9-4.1,5.4-2.9c0.6,1.7-0.1,10.7-1.2,13.9c-0.6,1.6-0.3,1.5,1.4-0.5c2.4-2.9,2.6-2.5,1,1.9
	c-0.8,2.3-1.7,3.1-3.4,3.1c-2.2,0-2.3-0.3-1.8-5.8l0.5-5.8l-1.9,5.3c-1,2.9-2.1,5.5-2.3,5.7c-0.2,0.2-2.4,0.2-4.8-0.2
	c-2.9-0.4-4.5-1.1-4.8-2.3c-0.4-1.5-0.9-1.5-3.7-0.6c-1.8,0.6-5.9,1-9.2,0.7c-3.3-0.2-8.9-0.4-12.5-0.5c-5.4-0.1-6.5-0.4-6.2-1.6
	c0.4-1.5-4.1-4.7-15.2-11.1c-4.3-2.5-10.2-9.5-9-10.7c0.3-0.3,3.6,0.4,7.3,1.6c8.8,2.9,13.6,2.8,20-0.4c7.5-3.7,13.3-12.4,13.3-19.8
	c0-5.6,1.1-7.7,4-8.3c3-0.6,7.7-4.9,6.6-6c-0.4-0.4-1.2-0.2-1.9,0.5c-1.7,1.7-9.4,1.5-13-0.4c-2.2-1.1-5.9-1.7-12.2-1.7
	c-7.8-0.1-9.6,0.2-13.1,2.3c-11.3,6.7-14.8,13.6-15.1,29.2c-0.2,9.4,0,10.9,1.7,12.4c1.9,1.7,1.9,1.6,1.3-2.7
	c-0.6-4.1-0.5-4.3,0.9-2.4c2.8,3.6,5,5.7,10.6,9.5c6.4,4.4,10.7,8.5,11.5,11c0.5,1.6,2.4,1.8,15.3,2.3c13,0.5,28.5,2.3,36.4,4.2
	c2.4,0.6,2.8,0.2,4.8-4.1c1.2-2.6,2.1-5.4,2.1-6.1c0-0.8,0.7-1.7,1.5-2c0.8-0.3,1.5-1.6,1.5-2.9c0-1.3,0.7-2.6,1.5-2.9
	c1.2-0.4,1.3-1.1,0.6-2.4c-0.5-1-1.3-4.1-1.7-6.9c-0.6-4.2-0.4-5.1,1.1-5.7c1.7-0.7,1.7-3.3-0.1-7.9c-0.5-1.3-0.3-1.6,0.9-1.1
	c1.4,0.5,1.6-0.3,1.6-5.9c0-7.6-2.9-17.7-7.1-24.8c-1.6-2.7-2.9-5.8-2.9-6.9c0-1,1.3-4.7,2.9-8.2c3.1-6.8,5.1-15.5,5.1-22.7
	c0-2.5,1.1-8.3,2.4-13.1c5.5-19.7,6.9-45.9,3-55.8C447.7,8.9,446.7,8,443.8,7.1z M232.7,153.8c-1.9,13.7-2.8,16-2.8,7.1
	c0-4.3,0.4-8,0.8-8.2c0.4-0.3,1.1-2.1,1.4-4.1C233.4,141.9,233.8,145.8,232.7,153.8z M229.9,141.4c3-8,3.8-6.3,1.5,3.2
	c-1.1,4.7-2.7,8.7-3.4,9C226.2,154.2,227.1,149,229.9,141.4z M367.9,136.1c1.2,0,1.6-0.4,1.2-1.2c-1-1.5,4.4-5.8,7.4-5.8
	c2,0,2.1,0.2,1,2c-0.7,1.1-2,2.2-2.9,2.5c-2.5,0.8-2.9,4.1-1.4,12c1.3,6.7,3.2,11.4,4.6,11.4c0.7,0,2.8-11.5,3.2-17
	c0.2-3,0.6-3.5,2.7-3.5c3.1,0,3.9,3.1,1.4,5c-2.1,1.5-1.3,3.1,1.1,2.2c0.9-0.3,1.8-1.9,2.2-3.6c0.4-2,1-2.8,2-2.4
	c0.8,0.3,1.4,0.1,1.4-0.4c0-1.4-7.5-3.7-9.5-2.9c-1.2,0.5-1.6,0.2-1.3-1.1c0.4-2.3,4.2-2.8,8.9-1.2c4.6,1.5,6.4,5.2,5.5,11.1
	c-2.8,17.4-20.3,23.9-32.9,12.1c-2.1-2-2.8-3.5-2.8-6.5C359.7,142.9,364.1,136.1,367.9,136.1z"/>
<path class="st0" d="M247.6,212.2c-1.3,0-5.3,1.6-8.8,3.5c-3.5,1.9-7.2,4.2-8.2,5.1c-1,0.9-1.9,1.3-1.9,0.9c0-0.4-0.7-0.2-1.5,0.5
	c-0.8,0.7-1.3,1.6-1,2c0.3,0.4,3.1-0.9,6.2-2.9c3.2-2.1,8.2-4.8,11.2-6C250.3,212.4,250.7,212.1,247.6,212.2z"/>
<path class="st0" d="M210.8,226.5c6.9-5,7.3-5.2,20.4-11.9c11.9-6.1,12.5-6.5,10.4-6.4c-0.8,0-5.2,2-9.9,4.3
	c-15,7.6-25,14-25.8,16.5C205.6,229.8,207.8,228.6,210.8,226.5z"/>
<path class="st0" d="M283.7,192.1c0.5,0,1,0.5,1,1c0,0.6,2.8,1,6.5,1c3.6,0,6.5-0.4,6.5-1c0-1.5-5-2.4-7.9-1.4
	c-1.9,0.7-3.2,0.6-4.7-0.4c-2.7-1.7-14.3-2.3-27.9-1.4c-6,0.4-13.8,1.3-17.2,2.1l-6.2,1.3l4,4.6l4,4.6l-3.4,0.6
	c-3.1,0.5-3,0.6,1.6,1.1c3.2,0.3,7.2-0.1,11-1.2c8.3-2.4,26.3-5.9,30.2-5.9c1.8,0,3.2-0.4,3.2-1s-0.5-1-1-1s-1-0.7-1-1.5
	S283.1,192.1,283.7,192.1z M266.7,195.5c-5.2,1.3-12,3-15,3.9c-5.1,1.5-5.6,1.5-6.8,0c-2.3-3.1-1.4-3.9,4.4-4.2c3.1-0.1,6.3-0.6,7-1
	c0.7-0.4,5.5-0.8,10.6-0.9l9.2-0.1L266.7,195.5z"/>
<path class="st0" d="M236.5,233.4c3.7-3.2,8.1-6.7,9.7-7.8c2.1-1.5,2.4-2.1,1.2-2.1c-0.9,0-1.8,0.3-2,0.7s-3.8,3.5-8,6.9
	s-8,6.7-8.3,7.2C227.8,240.3,230.1,238.8,236.5,233.4z"/>
<path class="st0" d="M231.7,194.6c0-1-4.9-0.1-11.6,2c-6.8,2.2-18.8,7.7-20.8,9.6c-1.7,1.6,0.4,2.3,2.2,0.7c2.2-2,12.5-6.3,22.5-9.5
	C228.2,196.1,231.7,194.8,231.7,194.6z"/>
<path class="st0" d="M227.2,243c-5.9,6.1-3.8,5.9,2.6-0.2c3-2.9,8.2-7.2,11.6-9.5c3.4-2.3,6.4-4.6,6.8-5.2c0.9-1.4,0.4-1.3-2.6,0.8
	C237.2,234.4,230.7,239.4,227.2,243z"/>
<path class="st0" d="M261.3,277.9c-1.7,2.8,1.1,12.7,6.1,21.7c0.6,1.1,1.4,2.8,1.7,3.8c0.3,1,1.1,1.8,1.7,1.8c0.7,0,0.4-1.3-0.8-3.2
	c-2.8-4.7-5.2-11.7-6.7-18.8C262.6,279.5,261.7,277.3,261.3,277.9z"/>
<path class="st0" d="M243.6,396c4.9,2.7,5.3,1.7,1.1-2.4c-1.7-1.6-4.4-5.1-6.1-7.7c-1.7-2.6-3.2-4.8-3.4-4.8s-0.2,1.5,0,3.4
	C235.4,389,238.5,393.1,243.6,396z"/>
<path class="st0" d="M234.6,304.1c-0.5,0-1.4,0.9-1.9,1.9c-2.9,5.3-5.4,22.1-3.2,20.7c0.5-0.3,1.1-3,1.4-5.9c0.3-3,1.3-6.8,2.1-8.4
	C234.9,308.7,235.8,304.1,234.6,304.1z"/>
<path class="st0" d="M249,373.6c-0.7-2.1-4.2-7.6-5.4-8.5c-0.4-0.3-2.3-3.8-4.3-7.8c-3.8-7.6-5.3-9.2-4.2-4.5
	c1,4.2,8.9,19.6,9.4,18.2c0.2-0.7,1.3-0.1,2.8,1.6C249,374.9,249.5,375.1,249,373.6z"/>
<path class="st0" d="M235,316.1c-0.5,0-0.9,3.5-1,7.8c-0.1,6.3,0,7,0.7,3.7c0.4-2.2,1.3-5.3,1.9-6.8c1.3-3.5,1.4-4,0-3.2
	c-0.7,0.4-0.8-0.2-0.4-1.8c0.3-1.4,0.2-2.8-0.4-3.1c-0.6-0.4-0.8,0.2-0.5,1.4C235.7,315.2,235.5,316.1,235,316.1z"/>
<path class="st0" d="M255.2,378.9c0.3-0.3-0.4-2.1-1.5-3.9c-1.1-1.8-2.1-4-2.1-4.7s-0.6-2.8-1.4-4.5s-2-5.6-2.6-8.6
	c-0.7-3-2.5-8.2-4-11.5c-3.2-7-4-12.3-3.1-18.6c0.4-2.5,0.4-5.6,0.1-7c-0.6-2.3-0.6-2.4-1.4-0.5c-0.4,1.1-1,5.4-1.3,9.5
	c-0.4,6.2-0.1,8.6,1.7,13.5c1.2,3.3,3.3,9.4,4.6,13.5c1.3,4.1,4.1,10.9,6.2,15C255,380.3,254.5,379.6,255.2,378.9z"/>
<path class="st0" d="M229,355.7c0.5-0.1,1.9,2.5,3.2,5.6c2.7,6.7,6.9,12.5,8.9,12.5c1.5,0,1.4-0.5-1.5-4.7c-0.9-1.4-3.2-5.2-5-8.5
	c-1.8-3.3-4.8-8.2-6.6-11c-2.3-3.4-3.9-7.5-5.1-13c-1.6-7.4-3.3-11.9-3.3-8.5c0,0.8,1.2,6.2,2.7,11.9
	C224.9,350.4,227.3,355.9,229,355.7z"/>
<path class="st0" d="M246.1,310.7c-2,4.7-1.2,14.6,1.5,18c2.6,3.3,11.3,10.6,11.9,10c0.3-0.3-2-3.2-5-6.4
	c-6.5-6.9-8.8-13.7-6.9-20.7C249,306.4,248.1,305.9,246.1,310.7z"/>
<path class="st0" d="M283.4,393.7c-1.2,2-1.9,12.1-1,14.5c0.8,2.1,1.1,1.2,1.7-5.2C284.9,395.4,284.6,391.8,283.4,393.7z"/>
<path class="st0" d="M265.7,355.1c-5.1-5.5-6.9-8-12.9-17.5c-2.8-4.4-3.2-4.7-3.2-2.4c0,1.4,0.9,3.8,2,5.2c1.1,1.4,2,2.9,2,3.4
	c0,0.9,3.3,5.2,9,11.7c1.9,2.2,2.8,3.6,2,3.2c-0.8-0.5,0.4,0.8,2.8,2.9c2.3,2,4.2,4.2,4.2,4.7s1.1,2.6,2.4,4.5s2.2,4.1,2,4.8
	s0.5,2,1.6,3s2.5,3.6,3.1,5.8c0.9,3.5,0.8,4.2-1.1,6.2c-3,3.2-5.1,10.9-4.4,15.9c0.5,3,1.7,5.2,4.5,8c4.3,4.3,6.6,4.2,2.6-0.1
	c-3.4-3.7-4.8-6.5-4.8-9.9c0-3.2,2.9-9.5,6-13.4l2.1-2.6l-3.9-8.5C277,369.5,272.3,362.3,265.7,355.1z"/>
<path class="st0" d="M226.3,357.1c-1.4-2.3-3.8-9.5-6.5-19.5l-1.1-4l0.4,5c0.6,7.2,3.1,14.5,6.1,18
	C227.2,359,227.5,359.1,226.3,357.1z"/>
<path class="st0" d="M217,318c-0.5,1.1-0.8,1.1-1.4,0.1c-0.5-0.9-1,0-1.5,2.4c-1,5.4-0.1,26.6,1.1,27.5c0.6,0.4,2.3,4.8,3.8,9.7
	c3,10,5.5,16.5,6.8,18c1.1,1.3,0.4-1.1-3.1-9.8c-1.4-3.5-1.5-6-0.1-5.2c1.6,1,1.2-0.4-2.7-9.5c-3.4-8-3.7-9.2-3.8-19
	c0-5.8,0.3-11.6,0.7-13C217.3,317.8,217.4,317.2,217,318z"/>
<path class="st0" d="M256.8,283.2c0.3,7.6,0.7,9.2,2.6,11.1l2.2,2.2l-1-3.4c-1.6-5.6-2.4-19.8-1-18c0.9,1.2,1,1.1,0.6-0.6
	c-0.4-1.4,0.4-3.5,2.4-6.2c1.6-2.3,3.2-5.3,3.5-6.7c0.3-1.4,0.7-3.6,1-4.9c0.3-1.3,1.6-3.5,3-5c2.2-2.4,2.3-2.7,0.6-2.7
	c-2.5,0-3.6,1.6-5.4,7.5l-1.5,5l-0.1-10.6c-0.1-7.5-0.5-10.8-1.4-11.1c-1-0.4-1.1,1.8-0.6,9.6c0.3,5.6,1,10.9,1.4,11.9
	c0.5,1.2,0.1,2.5-1.3,4C257.5,270.3,256.5,273.9,256.8,283.2z"/>
<path class="st0" d="M295.2,323.1c1.6,0.6,2.5,0.6,2.5,0c0-0.6,1.1-0.7,2.5-0.4c3.4,0.8,3.2-0.8-0.4-2.9c-8.1-4.8-17-16.9-18.7-25.6
	c-0.3-1.7-1-3.2-1.5-3.2c-1.1,0-1.2-0.2,1,6.2c2.2,6.4,3.5,8.9,7.4,14.1c1.6,2.1,2.4,3.8,1.8,3.8c-1.5,0-7.4-7.7-10.8-14
	c-1.6-3-3-5.7-3.1-5.9c-0.1-0.2-0.5-0.2-0.8,0.2c-0.3,0.3,0.2,2,1.1,3.7c0.9,1.7,1.4,3.7,1.2,4.3c-0.4,1.1,2.2,5,6,8.9
	c0.9,1,1.4,2,1.1,2.3c-1.1,1.1-17.1-7.7-21.5-11.8c-2.5-2.3-4.7-4.1-4.9-4c-1,0.7-2.4,0.1-1.9-0.7c0.3-0.5-0.3-2.4-1.4-4.2
	c-1.1-1.8-2-4-2-4.8c0-0.8-0.9-3.3-2.1-5.5c-1.7-3.2-2-5.1-1.6-10c0.3-3.3,1.2-7.7,2.1-9.7c1.7-4.1,2-6.8,0.7-6.8
	c-0.4,0-1.8,3-2.9,6.8c-2.3,7.3-3.5,15.2-2.3,15.2c0.4,0,1.5,2.8,2.4,6.1c0.9,3.4,2.4,7.1,3.2,8.2c0.8,1.1,1.5,3.6,1.5,5.5
	c0,4.5,1.8,10.2,4.1,13.2c1.8,2.3,1.8,2.2-0.1-2.1c-2.1-4.7-2.7-10-1.1-10c0.5,0,1.2,0.9,1.5,1.9c1,3.2,16,13.1,19.9,13.1
	c0.8,0,2,0.7,2.6,1.5c0.7,0.8,2.8,1.8,4.6,2.1c4,0.8,5.5,2.4,2.2,2.4c-5.8,0-16.3-4.2-23-9.2c-5.3-4-5.9-3.4-1.3,1.3
	c6.4,6.6,12.5,9.2,21.7,9.1C289.2,322.2,293.8,322.6,295.2,323.1z M287.9,317.2c-1.1-1.8-1-1.9,1.7-1.6c1.6,0.2,3.4,0.7,4,1
	c1.6,1,0.2,2.5-2.3,2.5C290.1,319.1,288.6,318.3,287.9,317.2z"/>
<path class="st0" d="M255,284.1c-0.3-3-0.9-8.4-1.3-12l-0.8-6.5l0,8c0,4.4,0.6,9.8,1.3,12l1.4,4L255,284.1z"/>
<path class="st0" d="M273.3,302.8c0.3-0.3,0.1-1.2-0.4-1.9c-0.6-0.7-1.8-4-2.8-7.3c-2-6.6-4.1-9.9-3.1-5
	C267.7,292.7,272.6,303.5,273.3,302.8z"/>
<path class="st0" d="M266.7,266.2c0,1.7,4.8,11.7,5.9,12.4c1.7,1.1,1.2-0.8-2-7.3C267.6,265.2,266.7,264.1,266.7,266.2z"/>
<path class="st0" d="M274.5,259.6c0-2.8-0.4-5.9-0.8-7c-0.6-1.5-0.9-0.9-0.8,2.5c0,2.5,0.4,5.6,0.8,7
	C274.3,264.1,274.5,263.6,274.5,259.6z"/>
<path class="st0" d="M271.3,340.7c-0.6,3.8,0,6.4,1.4,6.4c1.2,0,1.2-8.7,0-9.4C272.3,337.4,271.7,338.8,271.3,340.7z"/>
<path class="st0" d="M269.9,322.4l-3.8-1l0.4,3.8c0.5,4.8,2.2,6.1,2.2,1.7c0-2.5,0.3-3,1.2-2.1c1.6,1.6,3.8,1.5,3.8-0.2
	C273.7,324,272,322.9,269.9,322.4z"/>
<path class="st0" d="M254.2,328.1c0.8,0.7,1.5,1,1.5,0.7c0-1-5.2-16.7-5.5-16.7c-0.2,0-0.6,0.5-1,1.1
	C247.6,315.6,251,325.5,254.2,328.1z"/>
<path class="st0" d="M288.5,401.4c-0.3-2.5-0.5-2.3-2.1,2.1c-2.1,6.1-2.2,8.4-0.2,12.4c1.5,2.9,5.4,6.6,6.2,5.8
	c0.2-0.2-0.8-2-2.2-4.1c-3.1-4.5-4.3-10-2.6-12C288.3,404.9,288.7,403,288.5,401.4z"/>
<path class="st0" d="M260.3,317.6c-1.2,1.6-1.6,1.2-4.1-4c-1.6-3.2-3.6-8.3-4.5-11.4c-1.4-4.6-1.8-5.2-2.4-3.4c-0.4,1.2-0.3,3,0.3,4
	c0.5,1,1.6,3.6,2.5,5.9c1.9,5.1,6.9,13.7,8.3,14.2c0.6,0.2,1.1-1.2,1.2-3.3C261.6,316.2,261.5,316,260.3,317.6z"/>
<path class="st0" d="M277.7,347.9c0.6-0.2,1-0.7,1-1.1c0-0.4-0.1-1.6-0.1-2.7c0-2.3-1.8-2.7-2.6-0.5
	C275.3,345.6,276.4,348.4,277.7,347.9z"/>
<path class="st0" d="M267.4,158.8c2,1.8,3.8,3.3,4,3.3c0.6,0-0.8-2.3-2.8-4.5c-1.9-2.2-4.7-10.2-5.2-15c-0.3-2.6-0.5-2.7-1.2-1.1
	c-0.5,1.1-0.4,4.3,0.4,7.9C263.6,154.3,264.5,156.2,267.4,158.8z"/>
<path class="st0" d="M388.9,171.4c2.1,0.7,3.4,0.6,5.2-0.7c1.3-0.9,4.1-2,6.2-2.4c2.2-0.5,3.6-1.4,3.5-2.1c-0.2-0.7,0.1-1,0.7-0.7
	c0.9,0.6,7.1-6.1,7.1-7.7c0-1.3-1.6-0.8-3.3,1c-1.6,1.8-5.1,3.6-16.2,8.8C386.2,170.4,386.2,170.4,388.9,171.4z"/>
<path class="st0" d="M406.7,152.5c0-1.3-0.3-1.4-1.5-0.4c-0.8,0.7-1.5,1.8-1.5,2.4c0,0.7-1.7,1.8-3.7,2.6c-5.8,2.3-7.6,3.3-8.1,4.7
	c-1.1,3.2,12-2.3,17.3-7.3c4-3.8,4.1-4.2,1.5-7.5l-2-2.5l1,3.4c0.7,2.3,0.6,3.8-0.1,4.8C408,154.6,406.7,154.5,406.7,152.5z"/>
<path class="st0" d="M334.7,61.5c0,0.9,0.5,1.6,1,1.6c1.3,0,1.3-0.6,0-3.1c-1.2-2.2-1.7-2.3-4.2-0.9c-1.4,0.8-1.8,2.4-1.8,8.4
	c0,4.1,0.4,7.5,1,7.7c0.6,0.2,0.7,2.3,0.1,5.9c-0.5,3.4-0.6,7.2,0,9.5c0.5,2.1,0.9,6.7,0.9,10.1c0,4,0.4,6.2,1.2,6.2
	c0.8,0,1-2.6,0.4-9.8c-1.6-20.6-1.6-35,0-36.3C334.4,60.1,334.7,60.2,334.7,61.5z"/>
<path class="st0" d="M433.2,97.1c1.7-1.4,4.9-11.4,4.2-13.3c-0.2-0.7-1.2,1.3-2.1,4.5c-0.9,3.2-2.1,6-2.6,6.3
	c-0.5,0.3-0.9,1.3-0.9,2.1C431.7,98.1,431.9,98.1,433.2,97.1z"/>
<path class="st0" d="M401.8,180c-3.5,0.9-6.1,1.9-5.7,2.2c0.9,0.9,11.6-1,15.1-2.7l3-1.4l-3,0.1C409.5,178.3,405.3,179.1,401.8,180z
	"/>
<path class="st0" d="M328.1,114.4c0.8,7.1,2.5,8.6,2.5,2.2c0-8.6-5.8-24.1-10.3-27.3c-1.5-1.1-1.8-2.1-1.3-4.6
	c0.3-1.8,0.2-4.3-0.3-5.6l-0.9-2.4l-1.1,2.8c-1.8,4.5-1.3,7.1,1.8,11.1C322.5,95.5,327.3,107.4,328.1,114.4z"/>
<path class="st0" d="M350.7,142.6c-0.6,0.4-1,2.1-1,3.9l0.1,3.2l1.5-4c0.8-2.2,1.9-4.4,2.4-4.9c0.5-0.5,1-1.3,1-1.8
	c0-0.9-2.4-1.1-3.3-0.2c-0.3,0.3-0.4,1.2-0.1,1.9C351.6,141.3,351.3,142.2,350.7,142.6z"/>
<path class="st0" d="M378.3,101.9c-0.3,0.4,0.4,1.8,1.4,3.1c1.4,1.8,1.9,2,1.9,0.7c0-2.6,5.7-2,8.6,0.9c2,2,2.5,2.1,2.2,0.8
	C391.7,103.5,380.1,99,378.3,101.9z"/>
<path class="st0" d="M417.4,143.2c1.4,1.1,1.4,0.9-0.2-0.9c-1-1.2-2.6-2.2-3.5-2.2c-0.9,0-3.3-0.8-5.3-1.9c-2-1-4.1-1.5-4.8-1.2
	c-0.6,0.4,1,1.6,3.9,2.8c3.5,1.4,5.5,3,6.6,5.3c1.5,2.9,1.5,3.7,0.1,10.2c-2,8.9-6.4,14.5-14,18.2c-3,1.4-6.2,2.6-7.2,2.6
	c-1,0-3.4,0.7-5.3,1.5c-3.4,1.4-3.3,1.4,3.5,1c3.9-0.2,9.5-1.2,12.5-2.1c3-0.9,6.9-1.9,8.5-2.2c2.9-0.5,2.9-0.4,1,1
	c-1.9,1.5-1.8,1.5,1.7,1.4c4.5-0.2,4.8-1.5,0.8-3c-4-1.5-3.8-2.7,0.5-2.7c2.6,0,3.3-0.4,2.9-1.4c-0.3-0.8-1.2-1.2-2.1-0.8
	c-1.3,0.5-1.4,0.1-0.9-1.8c0.4-1.3,1-3.7,1.3-5.2c0.4-1.8,1.1-2.6,2-2.3c1.6,0.6,1.6,0.8,0.3-7c-0.6-3.5-1.7-6.8-2.5-7.5
	C415,143.4,415.3,141.6,417.4,143.2z"/>
<path class="st0" d="M347.5,205.9c1.4,2.5,3.1,3.8,3.1,2.2c0-0.7,1.4-0.3,3.6,1c3,1.8,3.5,1.9,3.2,0.5c-0.2-0.9-1.9-2.2-3.8-2.9
	s-4.3-1.6-5.4-2.1C346.6,203.9,346.6,204.1,347.5,205.9z"/>
<path class="st0" d="M351,159.1c-0.9-3-2.2-6.8-3.1-8.4c-2.1-4.2-1.2-12.2,2.1-18.5c1.5-2.9,2.6-6.2,2.4-7.4
	c-0.3-1.8-0.8-1.3-2.5,2.3l-2.1,4.5l-0.2-3.5c-0.2-3-0.4-2.7-1.5,2.5c-2.8,12.4-1.2,23.1,4.8,31.6
	C352.5,164.5,352.5,164.4,351,159.1z"/>
<path class="st0" d="M354.7,99.6c-0.7,0.8-1,2.7-0.9,4.2l0.3,2.8l1.7-3.2c1-1.8,1.7-3.7,1.7-4.2C357.7,97.7,356.1,97.9,354.7,99.6z"
	/>
<path class="st0" d="M252.3,94.3c-0.9-0.2-1.7,0-1.7,0.4c0,1,5.2,6.4,6.2,6.4C258.3,101.1,254,94.6,252.3,94.3z"/>
<path class="st0" d="M304.9,165.9c2.1-2.4,1.7-3.3-0.9-1.9c-7.4,4-18.8,5.6-23.1,3.3c-4.4-2.4-10.3-3-13.9-1.5
	c-3.5,1.4-3.5,1.4-7.2-2.4c-2-2.1-4.4-5-5.4-6.3c-0.9-1.3-1.7-2-1.8-1.5c0,0.5,1.5,3,3.4,5.6c3.8,5.2,8,7.5,12.2,6.7
	c1.5-0.3,3.4-0.1,4.3,0.3c0.9,0.5,5.5,1.3,10.4,1.8C293.1,171.1,301.8,169.4,304.9,165.9z"/>
<path class="st0" d="M303.7,109.6c0.6,3.7,0.7,3.8,1.4,1.5c2.1-7.1-5-11.3-7.5-4.5c-0.7,1.9-1.7,3.2-2.2,2.8c-0.6-0.4-0.8,1-0.4,3.7
	c0.6,4.4,3.8,8.2,8,9.6c2.5,0.8,3.1,0.1,5.3-5.8c1.2-3.2,1.5-5.9,1.1-8.4c-0.9-4.8-1.7-3.8-2.2,2.6c-0.5,6.2-0.9,6.9-3.7,7
	c-2.1,0.1-2.1,0.1,0.3,1.1c1.5,0.6,2,1.2,1.2,1.5c-1.5,0.6-4.4-1.6-3.7-2.7c0.3-0.4-0.2-1.3-1-2c-1.7-1.4-2.1-8-0.5-8
	c0.5,0,1,1.5,1,3.4s0.5,3.7,1.1,4.1c0.7,0.4,0.8-0.5,0.4-2.9c-0.4-2-0.3-4.4,0.1-5.3C302.8,106,303.2,106.6,303.7,109.6z"/>
<path class="st0" d="M316.5,61.8c0.4-2.3-0.5-3.2-4-4l-2.7-0.6l3.2,3.2C315.7,63.2,316.2,63.4,316.5,61.8z"/>
<path class="st0" d="M273.5,86.4l4.4,0.5l-3.3-3.4c-1.8-1.9-4-3.4-4.8-3.4s-1.2,0.3-0.8,0.7s0.1,1.3-0.5,2
	C266.9,84.7,268.3,85.8,273.5,86.4z"/>
<path class="st0" d="M293.8,123.1c-0.5,0-1.2-0.6-1.5-1.4c-0.3-0.7-1.8-1.6-3.4-2s-3.7-0.8-4.8-1.1c-1.1-0.3-3.9,0.2-6.3,1.1
	c-2.4,0.9-4.1,1.8-3.8,2.1c0.3,0.3,4.1,0.5,8.5,0.4c4.4-0.1,8.2,0.2,8.5,0.8c0.3,0.5,2.1,1.2,4,1.6c1.9,0.4,4.7,1.6,6.2,2.8
	c1.5,1.2,2.5,1.7,2,1c-0.4-0.7-2.8-2.6-5.4-4.4c-2.5-1.7-4.3-2.6-3.9-2C294.5,122.6,294.3,123.1,293.8,123.1z"/>
<path class="st0" d="M279.9,148.4c-1.2-1-1.3-1.5-0.4-2.5c1.5-1.5,1.6-5.2,0.1-4.3c-0.6,0.4-0.8,1.3-0.5,2.1
	c0.3,0.8,0.1,1.4-0.5,1.4c-0.6,0-1.4-1-1.9-2.2c-0.9-2.2-0.9-2.2-1,0.3c-0.1,2.5,1.7,5.7,5.3,9.5c1.9,2,1.9,2,1.2-0.5
	C281.8,150.8,280.7,149.1,279.9,148.4z"/>
<path class="st0" d="M282.2,177.9c-1.1-0.8-5.1-2.5-9-3.7c-7.4-2.4-13.6-5.9-17.2-9.7c-3.3-3.5-6.4-11.2-6.6-16.2
	c-0.2-4.7,0.4-5.2,10.3-9.5c2.4-1.1,2.9-1.5,1.5-1.6c-1.1,0-2.7,0.4-3.5,0.9c-0.8,0.5-2.5,1-3.7,1c-1.2,0-3.6,1.3-5.2,2.8
	c-2.7,2.6-3,3.4-3.4,11.7c-0.5,8.3-0.4,8.8,0.9,6.2c1.9-3.6,2.4-3.5,2.4,0.8c0,2.9-0.4,3.5-2.2,3.5c-1.6,0-1.9,0.3-1.1,1.1
	c0.8,0.8,1.7,0.8,3.1,0c2.7-1.4,3.2-1.4,3.2,0.3c0,0.8-1.2,1.9-2.8,2.4c-2.6,1-2.6,1,1.3,1.1c2.2,0,4.4,0.4,4.8,0.8
	c0.4,0.4,1.1,0.8,1.4,0.8c1.8,0.1,7.2,3.6,6.7,4.4c-0.7,1.1,6.7,2.9,14.7,3.7C283.6,179.3,284,179.2,282.2,177.9z"/>
<path class="st0" d="M320.7,76.1c0,3.3,0.4,6.1,0.9,6.1c1.7,0,2-5.5,0.7-14c-1.2-8.3-1.3-8.4-2.5-5.2c-0.8,2.3-0.9,3.9-0.2,5.2
	C320.2,69.2,320.7,72.7,320.7,76.1z"/>
<path class="st0" d="M270.9,182.2c5.6,1.1,9,1.1,8.3,0.1c-0.3-0.5-3.4-1.1-6.9-1.4c-3.8-0.4-8.4-1.6-11.4-3.1
	c-2.8-1.4-5.6-2.6-6.3-2.6c-0.7,0-1-0.7-0.6-1.5c0.4-1.2-0.3-1.5-3.2-1.5c-2.1,0-5.5-0.9-7.7-2c-4.9-2.5-5.7-2.5-2.5,0
	c1.4,1.1,3.1,2,3.9,2c0.8,0,1.1,0.3,0.8,0.6c-0.3,0.3-0.1,1.1,0.6,1.8c1.3,1.2,11.4,4.6,13.9,4.6c0.8,0,2.3,0.9,3.3,2
	c1.8,1.9,5.2,2.9,4.1,1.1C266.9,181.8,268.6,181.8,270.9,182.2z"/>
<path class="st0" d="M307.6,171.1c1.5,0,4.8-6.5,5.6-10.8c1.4-8.2-3.2-21.8-9.1-27.3c-7.5-7-20.3-9.5-30.3-6c-3,1-7.6,2.2-10.2,2.5
	c-4.1,0.5-4.9,0.3-6.2-1.6c-0.8-1.2-1.8-1.9-2.1-1.5c-0.3,0.3,0.3,2,1.5,3.6c1.6,2.3,3.1,3.1,5.9,3.3l3.7,0.3l0.7,5.9
	c1,8.3,3.3,13.8,7.6,17.9c7.3,7.1,15.7,8.6,26.1,4.7c5.4-2,6.3-2.1,7.6-0.8c1.3,1.3,1.3,1.9-0.1,5.1
	C306.4,170.7,306.3,171.1,307.6,171.1z M303.4,156.2c-3.6,3.6-8.4,5.9-12.4,5.9c-3.5,0-12.4-4.6-14.9-7.7
	c-2.6-3.2-5.4-10.1-5.5-13.5c-0.1-4.8,7.4-11.3,12.4-10.6c1.8,0.2,2,0.9,1.6,7c-0.3,6,0.3,9.6,3.5,19.8c0.3,0.9,1.5-1,3.1-4.5
	c1.9-4.3,2.6-7.9,2.7-12.8c0.1-4.3,0.5-6.8,1.2-6.8c0.6,0,3.4,2.2,6.2,4.8c4.9,4.6,5.1,5.1,5.1,9.9
	C306.7,152.3,306.2,153.4,303.4,156.2z"/>
<path class="st0" d="M389.9,73.1c-0.5,0-2.1,2.3-3.6,5.1c-1.7,3.1-2.5,5.8-2.1,7c0.8,2.6,2.1,1.7,2.8-2c0.3-1.6,1.6-3.9,2.9-5.1
	c1.6-1.5,1.9-2.3,1-2.7c-0.7-0.3-1-0.9-0.7-1.4C390.5,73.5,390.4,73.1,389.9,73.1z"/>
<path class="st0" d="M415.1,203.3l7.4,2.2l4-4.2c2.2-2.3,4.2-4.7,4.4-5.4c0.7-2,16.1,3,27.6,8.9c5.7,2.9,10.2,4.8,10,4.2
	c-0.6-1.8-16.5-9.8-24.2-12.3c-12.5-4-29.1-6.7-45-7.2c-8.2-0.3-15.5-0.1-16.2,0.4c-0.7,0.5-1.3,2.6-1.5,4.7c-0.3,3.5,0,4,2.5,4.6
	c1.5,0.4,5.8,1,9.5,1.3c5.5,0.5,6.1,0.4,3.4-0.5c-1.8-0.6-5.9-1.4-9-1.9l-5.7-0.8l4.8-0.1c5.3-0.1,19.4,3.1,16.3,3.7
	c-1.4,0.3-0.9,0.8,2,1.8c5,1.7,6.9,1.7,2.9-0.1C403.7,200.5,406.8,200.9,415.1,203.3z M417.3,195.7c1.8-1.8,3.8-1.6,4.1,0.6
	c0.4,2.2-2.3,5-4.1,4.3C415.2,199.7,415.2,197.7,417.3,195.7z M405.2,197.1c-2-1.1-4.6-2-5.8-2.1c-1.2,0-3.8-0.7-5.7-1.5
	c-3.4-1.4-3.3-1.4,3-0.8c3.6,0.3,9.1,0.6,12.2,0.7c5.9,0.1,6.7,0.9,4.4,4C411.5,199.7,409.5,199.6,405.2,197.1z"/>
<path class="st0" d="M345.4,108.8c0.6-0.4,1.3-1.8,1.7-3.1c0.3-1.4,2.4-6.3,4.6-10.9c4.6-9.7,4.8-12,1.9-17.6
	c-2.5-4.8-2-11.3,1.2-15.4c1.6-2,1.7-2.6,0.5-2.6c-0.8,0-2.4,1.6-3.6,3.6c-2.7,4.5-4.5,13.3-3.1,14.7c0.7,0.7,1,0.5,1-0.4
	c0-0.8,0.7-0.3,1.5,1c2.3,4.1,1.7,8.8-2,16.5C345.5,102.1,343.4,110,345.4,108.8z"/>
<path class="st0" d="M360,117.5c-1.6-2.2-1.8-0.2-0.3,2.6c1.6,2.9,4.4,2.3,7.9-1.6c3.8-4.3,4.2-9.8,1-13.8c-2.4-3.1-3.6-3.2-6.7-0.7
	c-1.7,1.4-2.2,2.9-2.2,6.2c0,4.8,1.2,7.5,2.8,6.5c0.6-0.4,1.9-3,2.9-5.9l1.8-5.2l0.3,3.7C368.1,116.4,363.1,121.8,360,117.5z
	 M362.9,110.4c-0.4,4.8-2.2,5.7-2.2,1.1c0-2.3,1.8-7,2.4-6.2C363.2,105.5,363.1,107.8,362.9,110.4z"/>
<path class="st0" d="M421.9,80.3c4.3-0.4,7.9-1.1,8-1.6c0.2-1-12.3-1.7-15.5-0.8c-1,0.3-1.8,0.9-1.8,1.4c0,0.5-1.3,0.9-3,0.9
	c-1.6,0-3,0.5-3,1s-0.5,1-1.1,1c-0.6,0-0.7-0.6-0.3-1.2c1.2-2-7.4,5.1-9.6,8c-2.7,3.5-2.6,5.2,0.2,2.5c1.2-1.2,5.9-4,10.2-6.3
	C412.8,81.6,415.5,80.8,421.9,80.3z"/>
<path class="st0" d="M390.3,113.7c-0.6,1.7,2.6,5.5,4.7,5.5c2.6,0,2.6-1.4,0-4.2C391.9,111.7,391.1,111.5,390.3,113.7z"/>
<path class="st0" d="M398.3,111.3c-2.6-2.4-2.7-2.5-4.5-1.3c-1,0.6-0.6,1.5,1.8,3.5c1.7,1.5,3.6,2.6,4.1,2.6
	C401.4,116.1,400.7,113.5,398.3,111.3z"/>
<path class="st0" d="M394.9,80.4c-0.6-0.2-2,1-3.2,2.6c-1.2,1.6-2.1,3.8-2.1,4.8c0,1.7,0.2,1.7,1.8-0.3c1-1.2,2.5-2.4,3.4-2.7
	C396.6,84.2,396.7,81,394.9,80.4z"/>
<path class="st0" d="M424.9,70.3c-4.8,0.1-10.1,0.3-11.8,0.5c-9.4,1.1-11.5,1.5-11.5,2.3c0,0.7,5.2,1.5,13,2.1
	c0.8,0.1,3.3-0.3,5.5-0.9s6.1-1.3,8.8-1.6C436.8,71.6,434.3,70.1,424.9,70.3z"/>
<path class="st0" d="M434.7,65.1c0-0.5-1.7-1-3.9-1c-2.1,0-5.8-0.2-8.2-0.5c-2.7-0.3-6.5,0.2-9.9,1.4c-3,1-6.8,2.6-8.5,3.5l-3,1.6
	l5-0.6c2.8-0.3,8.6-1.2,13.1-2s9.7-1.4,11.8-1.4C433,66.1,434.7,65.7,434.7,65.1z"/>
<path class="st0" d="M356.9,134.6c-0.2,0.5,0.7-0.6,2.1-2.6c3.4-4.9,8.7-8.7,13.4-9.8c2.2-0.5,7.5-0.6,11.9-0.2
	c4.4,0.4,8.3,0.4,8.8,0c1.1-0.9-4.9-2.9-10-3.4c-2.1-0.2-4.4-0.4-5.1-0.5c-0.6-0.1-1.9-0.8-2.8-1.7c-0.9-0.9-1.6-1.1-1.6-0.5
	c0,1.5-4.5,5.4-9.7,8.6c-2.5,1.5-4.7,3.8-5.4,5.7C357.9,132.2,357.1,134.1,356.9,134.6z"/>
<path class="st0" d="M395.2,87.4c2-1,5.6-4.7,6.8-6.9c1.2-2.2-2-2.2-3.3,0c-0.7,1.2-1.2,2.2-0.9,2.3c0.2,0.1-0.7,1.4-2.1,2.9
	C393.6,87.9,393.5,88.2,395.2,87.4z"/>
<path class="st0" d="M403.5,61.7c1.5-0.8,3.4-2.2,4.1-3.1c0.8-0.9,7.4-4.5,14.7-8c11.8-5.6,15-7.5,12.5-7.4c-0.4,0-3.7,1.1-7.2,2.4
	c-10.1,3.7-22.2,9.5-24.3,11.6c-1,1.1-2,2.9-2.2,4C400.8,63,401,63,403.5,61.7z"/>
<path class="st0" d="M405,50.1c-2.7,1.6-3.4,2.4-2.5,3.3c1.1,1.1,6.4-1.1,11.2-4.7c0.8-0.6,3.1-2,5-3c1.9-1,4.4-2.6,5.5-3.5
	c1.1-0.9,3.9-2.9,6.3-4.5c5-3.4,6-4.6,3.5-4.4c-1,0.1-6.8,3.2-12.8,6.9C410,47.1,408,48.1,409.3,46c0.4-0.7,0.3-0.9-0.5-0.4
	c-0.6,0.4-0.9,1.1-0.7,1.6C408.4,47.6,407,48.9,405,50.1z"/>
</svg>
